<?xml version="1.0" encoding="UTF-8"?>
<svg id="Layer_2" xmlns="http://www.w3.org/2000/svg" viewBox="0 0 502.5 477.07">
  <defs>
    <style>
      .cls-1 {
        fill: #d7d7d7;
      }

      .cls-2, .cls-3 {
        fill: #fff;
      }

      .cls-4 {
        fill: #ffab6c;
      }

      .cls-5 {
        fill: #ffbc8a;
      }

      .cls-6 {
        fill: #6f6f7c;
      }

      .cls-7 {
        fill: #b2b2b2;
      }

      .cls-8 {
        stroke: #000;
      }

      .cls-8, .cls-3, .cls-9 {
        stroke-miterlimit: 10;
      }

      .cls-8, .cls-9 {
        fill: none;
        stroke-width: 1.47px;
      }

      .cls-10 {
        fill: #030321;
      }

      .cls-11 {
        fill: #ed2938;
      }

      .cls-12 {
        fill: #2b2b2b;
      }

      .cls-13 {
        fill: #9a9399;
      }

      .cls-14 {
        fill: #fe9170;
      }

      .cls-15 {
        fill: #eee;
      }

      .cls-3 {
        stroke: #d8d8d8;
        stroke-width: 1.22px;
      }

      .cls-3, .cls-16, .cls-17 {
        isolation: isolate;
      }

      .cls-9 {
        stroke: #ed2938;
      }

      .cls-18 {
        fill: #c6c6c6;
      }

      .cls-16 {
        opacity: .14;
      }

      .cls-16, .cls-17 {
        fill: #9b9b9b;
      }

      .cls-17 {
        opacity: .24;
      }

      .cls-19 {
        fill: #bc0a1f;
      }

      .cls-20 {
        fill: #e6e7e8;
      }
    </style>
  </defs>
  <g id="Layer_1-2" data-name="Layer_1">
    <g>
      <path d="M295.36,220.18v7.31c0,.06,0,.13.02.21h1.13v2.93h-.75l-.95-1.04h-.07c-.58.7-1.31,1.04-2.2,1.04h-12.49c-1.04,0-1.96-.33-2.75-1-1.06-.88-1.59-2.01-1.59-3.41v-2.97l1.77-1.43h1.73v4.41c0,.47.17.85.5,1.14.26.23.55.34.89.34h10.81c.15,0,.27-.05.36-.16.06-.09.09-.19.09-.29v-7.06h3.5ZM285.55,231.67c.5,0,.92.17,1.26.52.34.35.51.77.51,1.27s-.17.9-.51,1.25c-.34.35-.76.52-1.26.52s-.9-.17-1.25-.52c-.35-.35-.52-.76-.52-1.25s.17-.92.52-1.27c.35-.35.76-.52,1.25-.52Z"/>
      <path d="M303.92,214.36v13.12c0,.06,0,.13.02.21h1.11v2.93h-.73l-.98-1.04h-.04c-.58.7-1.32,1.04-2.23,1.04h-4.75v-2.93h3.75c.09,0,.16-.02.2-.07.09-.06.14-.14.14-.25v-13.01h3.5Z"/>
      <path d="M312.48,214.36l-.02,8.61c1.91-2.06,4.17-3.09,6.79-3.09,1.91,0,3.49.56,4.75,1.68,1.17,1.04,1.75,2.37,1.75,3.97v2.16h.73v2.93h-.43l-.86-1.04h-.05c-.58.7-1.31,1.04-2.2,1.04h-18.03v-2.93h4.09v-13.33h3.5ZM322.25,225.92c-.01-1.01-.44-1.81-1.27-2.38-.61-.44-1.31-.66-2.11-.66-.97,0-1.94.3-2.91.91-1.35.83-2.51,2.13-3.5,3.91h9.45c.23,0,.34-.11.34-.32v-1.45Z"/>
      <path d="M333.89,214.36v13.44c0,.67-.21,1.26-.64,1.79-.58.68-1.31,1.02-2.2,1.02h-4.75v-2.93h3.75c.09,0,.17-.02.23-.07.08-.06.11-.14.11-.25v-13.01h3.5Z"/>
      <path d="M340.52,214.36v15.4l-1.77,1.43h-1.73v-16.83h3.5Z"/>
      <path d="M349.97,227.69c-.47-.92-.7-1.88-.7-2.86,0-1.54.58-2.79,1.73-3.72.98-.8,2.19-1.2,3.61-1.2,1.82,0,3.16.61,4.02,1.82.5.71.75,1.52.75,2.43v3.66c0,.89-.35,1.63-1.04,2.2-.51.41-1.1.61-1.77.61h-5.22c-.21,0-.32.11-.32.32v6.74l-1.77,1.41h-1.73v-8.61c0-.76.25-1.41.76-1.96.51-.55,1.11-.83,1.8-.83h-.11ZM355.88,224.17c0-.53-.2-.92-.61-1.18-.2-.11-.42-.16-.66-.16-1.26,0-1.88.79-1.88,2.38s.85,2.48,2.54,2.48h.29c.21,0,.32-.11.32-.32v-3.2Z"/>
      <path d="M374.02,214.36v12.69c0,.14,0,.35.02.64h1.13v2.93h-.86l-.84-1.04h-.07c-.27.35-.63.61-1.07.79-.36.17-.73.25-1.09.25h-8.42l-1.43-1.77v-1.16h5l-3.59-10.54h3.2l3.59,10.54h.61c.11,0,.19-.03.25-.09.04-.09.07-.17.07-.23v-13.01h3.5Z"/>
      <path d="M382.6,220.18v7.31c0,.06,0,.13.02.21h1.11v2.93h-.7l-1-1.04h-.04c-.58.7-1.32,1.04-2.23,1.04h-4.75v-2.93h3.63c.14,0,.24-.05.32-.14.09-.08.14-.18.14-.32v-7.06h3.5ZM377.11,215.18c.48,0,.9.17,1.25.52.35.35.52.76.52,1.25s-.17.9-.52,1.25-.76.52-1.25.52-.92-.17-1.26-.52-.51-.76-.51-1.25.17-.92.51-1.26c.34-.34.76-.51,1.26-.51ZM381.17,215.18c.48,0,.9.17,1.25.52s.52.76.52,1.25-.17.9-.52,1.25c-.35.35-.76.52-1.25.52s-.92-.17-1.26-.52-.51-.76-.51-1.25.17-.92.51-1.26c.34-.34.76-.51,1.26-.51Z"/>
      <path d="M409.87,220.18v7.63c0,.77-.28,1.43-.83,1.99s-1.21.83-1.99.83h-5.11l-.95-1.07h-.07c-.56.71-1.29,1.07-2.2,1.07h-5.11l-.95-1.07h-.07c-.56.71-1.29,1.07-2.2,1.07h-6.81v-2.93h5.81c.21,0,.32-.11.32-.32v-4.59h3.5v3.57c0,.23,0,.58.02,1.07v.27h4.5c.21,0,.32-.11.32-.32v-5.9h3.5v5.27c0,.26,0,.58.02.95h4.5c.21,0,.32-.11.32-.32v-7.2h3.5Z"/>
      <path d="M416.53,214.36v15.4l-1.77,1.43h-1.73v-16.83h3.5Z"/>
      <path d="M425.45,220.04c.39-.09.94-.14,1.64-.14,1.86,0,3.36.58,4.5,1.75,1.01,1.04,1.52,2.37,1.52,3.97v1.11c0,.42,0,.74.02.95h.57v2.93h-.29l-.84-1.04h-.07c-.14.15-.26.28-.36.39-.53.42-1.13.64-1.79.66h-7.18v-2.93h6.13c.21,0,.32-.11.32-.32v-1.48c0-.92-.28-1.68-.85-2.27-.57-.59-1.31-.89-2.21-.89-.47,0-.83.03-1.09.09v-2.79Z"/>
      <path d="M436.67,224.42c.56-1.67,1.54-2.88,2.95-3.63,1-.56,2.16-.84,3.47-.84,1.24,0,2.36.33,3.36,1,1.21.77,2.08,1.93,2.61,3.47l-.27.7c-.35.2-.81.57-1.38,1.11-.54.54-.95,1.03-1.2,1.45h3.09v2.93h-5.34c-.36,0-.71-.18-1.04-.54h-.09c-.33.36-.7.54-1.11.54h-8.2v-2.93h6.02c-.24-.42-.64-.89-1.18-1.41-.59-.59-1.06-.98-1.41-1.16l-.27-.7ZM445.46,224.29c-.23-.54-.65-.94-1.27-1.18-.38-.15-.79-.23-1.25-.23-.59,0-1.12.11-1.59.32-.53.24-.89.61-1.07,1.09.3.18.73.6,1.29,1.25.64.73,1.04,1.32,1.23,1.77h.14c.21-.53.66-1.16,1.34-1.88.5-.58.89-.95,1.18-1.13Z"/>
      <path d="M456.72,220.18v7.63c0,.67-.22,1.26-.66,1.79-.58.68-1.3,1.02-2.18,1.02h-4.75v-2.93h3.75c.09,0,.17-.02.23-.07.08-.06.11-.14.11-.25v-7.2h3.5ZM454.52,231.67c.48,0,.9.17,1.25.52s.52.77.52,1.27-.17.9-.52,1.25c-.35.35-.76.52-1.25.52s-.92-.17-1.26-.52c-.34-.35-.51-.76-.51-1.25s.17-.92.51-1.27c.34-.35.76-.52,1.26-.52Z"/>
    </g>
    <g>
      <path d="M297.41,246.84v15.19c0,.07,0,.15.03.24h1.31v3.39h-1l-.97-1.21h-.08c-.67.81-1.51,1.21-2.55,1.21h-14.45c-1.38,0-2.57-.49-3.55-1.47-.98-1-1.47-2.21-1.47-3.63v-3.44l2.05-1.66h2v5.1c0,.46.14.84.42,1.16.32.37.71.55,1.18.55h12.64c.12,0,.22-.04.29-.11.07-.05.1-.14.1-.26v-15.05h4.05ZM283.99,255.46c-.21-.37-.35-.74-.42-1.13-.04-.14-.06-.33-.08-.58v-.08c0-.98.32-1.76.95-2.34.63-.58,1.47-.87,2.52-.87.56,0,1.09.06,1.58.18v1.79c-.39-.1-.75-.16-1.08-.16-1.03,0-1.55.52-1.55,1.55,0,.39.09.72.26,1,.3.42.78.63,1.44.63h2.34v.76l-.95,1.18h-6.86v-1.94h1.84Z"/>
      <path d="M302.19,258.48c.65-1.93,1.79-3.33,3.42-4.2,1.16-.65,2.5-.97,4.02-.97,1.44,0,2.73.39,3.89,1.16,1.4.89,2.41,2.23,3.02,4.02l-.32.81c-.4.23-.94.66-1.6,1.29-.63.63-1.09,1.19-1.39,1.68h3.57v3.39h-6.17c-.42,0-.82-.21-1.21-.63h-.11c-.39.42-.81.63-1.29.63h-9.49v-3.39h6.96c-.28-.49-.74-1.03-1.37-1.63-.68-.68-1.23-1.13-1.63-1.34l-.32-.81ZM312.36,258.33c-.26-.63-.75-1.09-1.47-1.37-.44-.17-.92-.26-1.44-.26-.68,0-1.3.12-1.84.37-.61.28-1.02.7-1.23,1.26.35.21.85.69,1.5,1.45.74.84,1.21,1.52,1.42,2.05h.16c.25-.61.76-1.34,1.55-2.18.58-.67,1.03-1.1,1.37-1.31Z"/>
      <path d="M321.35,258.17c0-1.49.54-2.7,1.63-3.63.98-.84,2.33-1.26,4.05-1.26,1.47,0,2.71.37,3.73,1.1,1.52,1.1,2.29,2.78,2.29,5.02,0,2.01-.49,3.7-1.47,5.04-1,1.33-2.32,2-3.97,2-1.42,0-2.54-.53-3.36-1.58-.63.53-1.34.79-2.13.79h-5.49v-3.39h4.34c.12,0,.22-.04.29-.11.07-.09.1-.17.1-.26v-3.73ZM325.39,262.27c.4.51.92.76,1.55.76s1.14-.3,1.52-.89c.39-.59.58-1.38.58-2.36,0-1.05-.2-1.85-.6-2.39-.38-.49-.91-.74-1.58-.74-.44,0-.81.16-1.1.47-.25.32-.37.67-.37,1.08v4.07Z"/>
      <path d="M358.97,246.84v15.42h1.34v3.39h-1.39c-.19,1.93-.97,3.45-2.34,4.57-1.44,1.14-3.27,1.71-5.49,1.71h-2.31c-2.59,0-4.62-.74-6.07-2.23-1.21-1.28-1.81-2.96-1.81-5.04v-4.02l2.05-1.63h2v5.15c0,1.61.38,2.75,1.13,3.4.75.66,2.04.99,3.86.99s3.1-.32,3.84-.95c.77-.68,1.16-1.83,1.16-3.44v-17.31h4.05Z"/>
      <path d="M368.85,256.8c2.28-2.38,4.92-3.57,7.93-3.57,2.17,0,3.98.66,5.41,1.97,1.35,1.21,2.02,2.73,2.02,4.57v2.63c0,.82-.27,1.54-.82,2.15-.65.74-1.46,1.1-2.44,1.1h-20.86v-3.39h4.73v-8.7h4.05l-.03,3.23ZM380.17,260.22c0-.7-.2-1.37-.6-2-.79-1.02-1.89-1.52-3.31-1.52-1.33,0-2.63.47-3.89,1.42-1.37,1-2.54,2.38-3.52,4.15h10.93c.26,0,.39-.12.39-.37v-1.68Z"/>
      <path d="M391.53,246.84v17.81l-2.05,1.66h-2v-19.47h4.05Z"/>
      <path d="M400.75,265.66c-1.86,0-3.35-.66-4.49-1.97-.98-1.12-1.47-2.46-1.47-4.02,0-1.98.52-3.5,1.55-4.57,1.21-1.23,2.75-1.84,4.62-1.84,1.35,0,2.49.31,3.42.92,1.4.93,2.1,2.26,2.1,3.99v4.1h.84v3.39h-.87c-.21,1.93-.98,3.43-2.31,4.52-.81.68-1.8,1.17-3,1.47-.81.21-1.66.32-2.55.32-.39,0-.79-.03-1.21-.08l-1.76-2.16v-1.42c.8.17,1.58.26,2.31.26,2.45,0,3.91-.97,4.36-2.92h-1.55ZM402.43,258.19c0-.54-.2-.96-.6-1.26-.26-.19-.56-.29-.89-.29-.65,0-1.17.25-1.56.75-.39.5-.59,1.16-.59,1.98,0,1.93.96,2.89,2.86,2.89h.79v-4.07Z"/>
      <path d="M415.91,253.57v8.46c0,.07,0,.15.03.24h1.29v3.39h-.81l-1.16-1.21h-.05c-.67.81-1.52,1.21-2.58,1.21h-5.49v-3.39h4.2c.16,0,.28-.05.37-.16.1-.09.16-.21.16-.37v-8.17h4.05ZM409.55,247.79c.56,0,1.04.2,1.44.6s.6.88.6,1.45-.2,1.04-.6,1.45-.88.6-1.44.6-1.06-.2-1.46-.6c-.39-.4-.59-.88-.59-1.45s.2-1.06.59-1.46.88-.59,1.46-.59ZM414.25,247.79c.56,0,1.04.2,1.45.6.4.4.6.88.6,1.45s-.2,1.04-.6,1.45c-.4.4-.88.6-1.45.6s-1.06-.2-1.46-.6c-.39-.4-.59-.88-.59-1.45s.2-1.06.59-1.46.88-.59,1.46-.59Z"/>
      <path d="M419.03,266.86c.58,0,1.07.2,1.47.6s.6.89.6,1.47-.2,1.04-.6,1.45c-.4.4-.89.6-1.47.6s-1.04-.2-1.45-.6c-.4-.4-.6-.88-.6-1.45s.2-1.07.6-1.47.88-.6,1.45-.6ZM425.81,253.57v8.46c0,.07,0,.15.03.24h1.31v3.39h-.81l-1.16-1.21h-.08c-.65.81-1.5,1.21-2.55,1.21h-5.49v-3.39h4.18c.17,0,.31-.05.39-.16.09-.09.13-.21.13-.37v-8.17h4.05ZM423.74,266.86c.58,0,1.07.2,1.47.6s.6.89.6,1.47-.2,1.04-.6,1.45c-.4.4-.89.6-1.47.6s-1.04-.2-1.43-.6c-.39-.4-.59-.88-.59-1.45s.2-1.07.59-1.47c.39-.4.87-.6,1.43-.6Z"/>
      <path d="M457.37,253.57v8.83c0,.89-.32,1.66-.96,2.3s-1.41.96-2.3.96h-5.91l-1.1-1.23h-.08c-.65.82-1.5,1.23-2.55,1.23h-5.91l-1.1-1.23h-.08c-.65.82-1.5,1.23-2.55,1.23h-7.88v-3.39h6.73c.25,0,.37-.12.37-.37v-5.31h4.05v4.12c0,.26,0,.67.03,1.24v.32h5.2c.25,0,.37-.12.37-.37v-6.83h4.05v6.1c0,.3,0,.67.03,1.1h5.2c.25,0,.37-.12.37-.37v-8.33h4.05Z"/>
    </g>
    <g>
      <path d="M277.67,291.56c-.34-.22-.63-.56-.88-1.02-.31-.67-.47-1.32-.47-1.94,0-1.34.43-2.36,1.29-3.06.73-.59,1.67-.88,2.82-.88.43,0,.98.07,1.65.22v2.18c-.52-.1-.91-.14-1.19-.14-.65,0-1.11.14-1.39.43-.28.29-.42.77-.42,1.44,0,.56.15,1,.45,1.32.3.32.71.48,1.24.48.07,0,.14,0,.22-.02.91-.13,1.72-.2,2.43-.2.11,0,.27,0,.49.02h.07v.95l-1.12,1.38c-.79.05-1.59.19-2.41.41-1.13.29-2.27.83-3.44,1.62l-1.35-2.12c.68-.42,1.35-.77,2-1.06Z"/>
      <path d="M294.97,280.14v10.05c0,.11,0,.28.02.5h.9v2.32h-.68l-.67-.83h-.05c-.22.28-.5.49-.84.63-.29.13-.58.2-.86.2h-6.67l-1.13-1.4v-.92h3.96l-2.84-8.35h2.54l2.84,8.35h.49c.08,0,.15-.02.2-.07.04-.07.05-.13.05-.18v-10.31h2.77Z"/>
      <path d="M298.68,290.7c-.11-.54-.16-1.19-.16-1.96,0-1.39.46-2.48,1.37-3.26.74-.62,1.65-.94,2.72-.94,1.2,0,2.14.29,2.82.86.74.64,1.12,1.46,1.12,2.48v2.55c0,.07.02.13.07.18.06.05.13.07.22.07h.29v2.32h-1.1c-.55,0-1.04-.18-1.48-.54-.56.72-1.34,1.08-2.34,1.08s-1.8-.38-2.5-1.13h-.07l-.47.59h-3.4v-2.32h2.91ZM303.77,287.91c0-.28-.09-.52-.27-.74-.2-.22-.48-.32-.83-.32-.44,0-.79.18-1.04.53-.25.35-.38.84-.38,1.47,0,1.59.43,2.39,1.29,2.39.42,0,.83-.18,1.22-.54v-2.79Z"/>
      <path d="M309.49,288.11c.44-1.32,1.22-2.28,2.34-2.88.79-.44,1.71-.67,2.75-.67.98,0,1.87.26,2.66.79.96.61,1.65,1.53,2.07,2.75l-.22.56c-.28.16-.64.45-1.1.88-.43.43-.75.82-.95,1.15h2.45v2.32h-4.23c-.29,0-.56-.14-.83-.43h-.07c-.26.29-.56.43-.88.43h-6.49v-2.32h4.77c-.19-.33-.5-.71-.94-1.12-.47-.47-.84-.77-1.12-.92l-.22-.56ZM316.45,288c-.18-.43-.52-.74-1.01-.94-.3-.12-.63-.18-.99-.18-.47,0-.89.08-1.26.25-.42.19-.7.48-.85.86.24.14.58.47,1.03.99.5.58.83,1.04.97,1.4h.11c.17-.42.52-.92,1.06-1.49.4-.46.71-.76.94-.9Z"/>
      <path d="M325.37,280.14v10.65c0,.53-.17,1-.5,1.42-.46.54-1.04.81-1.74.81h-3.76v-2.32h2.97c.07,0,.13-.02.18-.05.06-.05.09-.11.09-.2v-10.31h2.77Z"/>
      <path d="M330.62,280.14v12.19l-1.4,1.13h-1.37v-13.33h2.77Z"/>
      <path d="M344.18,284.26v6.19c0,.07.02.13.07.18s.12.07.22.07h.61v2.32h-1.42c-.61,0-1.17-.24-1.67-.72-.59.59-1.29.88-2.12.88h-.05c-1.2,0-2.14-.5-2.82-1.49-.55-.78-.83-1.71-.83-2.79,0-1.32.42-2.41,1.26-3.27.76-.78,1.7-1.17,2.82-1.17.61,0,1.22.13,1.82.38l.74-.58h1.38ZM339.54,280.79c.4,0,.73.14,1.01.41s.41.61.41.99-.14.71-.41.99c-.28.28-.61.41-1.01.41s-.71-.14-.99-.41-.41-.61-.41-.99.14-.73.41-1c.28-.27.6-.4.99-.4ZM341.4,286.98c-.29-.07-.56-.11-.81-.11-.53,0-.94.18-1.24.54s-.45.86-.45,1.49c0,.6.16,1.09.49,1.47s.76.58,1.29.58c.2,0,.44-.03.72-.09v-3.88ZM342.76,280.79c.4,0,.73.14,1.01.41s.41.61.41.99-.14.71-.41.99c-.28.28-.61.41-1.01.41s-.71-.14-.98-.41c-.27-.28-.41-.61-.41-.99s.13-.73.41-1,.6-.4.98-.4Z"/>
      <path d="M348.19,287.89c0-1.02.37-1.85,1.11-2.48.67-.58,1.59-.86,2.77-.86,1.01,0,1.86.25,2.55.76,1.04.76,1.57,1.9,1.57,3.44,0,1.38-.34,2.53-1.01,3.45-.68.91-1.59,1.37-2.72,1.37-.97,0-1.74-.36-2.3-1.08-.43.36-.92.54-1.46.54h-3.76v-2.32h2.97c.08,0,.15-.02.2-.07.05-.06.07-.12.07-.18v-2.55ZM350.96,290.7c.28.35.63.52,1.06.52s.78-.2,1.04-.61c.26-.41.4-.95.4-1.62,0-.72-.14-1.27-.41-1.64-.26-.34-.62-.5-1.08-.5-.3,0-.55.11-.75.32-.17.22-.25.46-.25.74v2.79Z"/>
      <path d="M359.54,284.64c.31-.07.74-.11,1.29-.11,1.47,0,2.66.46,3.56,1.38.8.83,1.21,1.88,1.21,3.15v.88c0,.34,0,.59.02.75h.45v2.32h-.23l-.67-.83h-.05c-.11.12-.2.22-.29.31-.42.34-.89.51-1.42.52h-5.68v-2.32h4.86c.17,0,.25-.08.25-.25v-1.17c0-.73-.22-1.33-.67-1.8-.45-.47-1.03-.7-1.75-.7-.37,0-.66.02-.86.07v-2.21Z"/>
      <path d="M368.32,285.05c1.2-.35,2.24-.52,3.11-.52,1.44,0,2.66.45,3.65,1.35.91.84,1.37,1.87,1.37,3.08v1.83c0,.61-.22,1.13-.65,1.57-.44.44-.98.67-1.6.67h-8.27v-2.32h7.48c.17,0,.25-.08.25-.25v-1.19c0-.79-.34-1.41-1.03-1.85-.54-.35-1.16-.52-1.87-.52-.66,0-1.48.13-2.45.38v-2.21ZM371.63,280.79c.38,0,.71.13.98.4.27.27.4.6.4,1s-.13.73-.4,1c-.27.27-.6.4-.98.4s-.73-.14-1.01-.41c-.28-.28-.41-.61-.41-.99s.14-.71.41-.99.61-.41,1.01-.41Z"/>
      <path d="M384.76,289.89v2.1c0,1.1.26,1.88.77,2.33.52.45,1.4.67,2.64.67,1.07,0,1.85-.15,2.35-.44s.82-.81.98-1.54h-.9l-1.19-1.47v-.85h5.79v2.32h-.88c-.16,1.54-.83,2.68-2.03,3.44-.92.58-2.03.86-3.33.86h-1.58c-1.5,0-2.73-.37-3.69-1.12-1.14-.89-1.71-2.18-1.71-3.87v-1.33l1.4-1.11h1.37ZM386.47,298.36c.38,0,.71.14.99.41s.41.61.41,1.01-.14.71-.41.98c-.28.27-.61.41-.99.41s-.73-.14-1-.41c-.27-.27-.41-.6-.41-.98s.13-.73.41-1.01c.27-.28.6-.41,1-.41ZM389.69,298.36c.38,0,.71.14.99.41s.41.61.41,1.01-.14.71-.41.98c-.28.27-.61.41-.99.41s-.73-.14-1-.41c-.27-.27-.41-.6-.41-.98s.13-.73.41-1.01c.27-.28.6-.41,1-.41Z"/>
      <path d="M399.38,280.14v10.4s0,.1.02.16h.88v2.32h-.58l-.77-.83h-.04c-.46.55-1.04.83-1.76.83h-3.76v-2.32h2.97c.07,0,.13-.02.16-.05.07-.05.11-.11.11-.2v-10.31h2.77Z"/>
      <path d="M406.16,284.75v5.79s0,.1.02.16h.88v2.32h-.56l-.79-.83h-.04c-.46.55-1.04.83-1.76.83h-3.76v-2.32h2.88c.11,0,.19-.04.25-.11.07-.06.11-.14.11-.25v-5.59h2.77ZM401.83,280.79c.4,0,.73.13,1,.4s.41.6.41,1-.14.71-.41.99c-.28.28-.61.41-.99.41s-.71-.14-.99-.41c-.28-.28-.41-.61-.41-.99s.13-.71.4-.99c.27-.28.6-.41,1-.41ZM403.43,278.25c.35,0,.64.12.89.37s.37.55.37.91-.12.64-.37.89c-.25.25-.54.37-.89.37s-.65-.12-.9-.37c-.25-.25-.38-.54-.38-.89s.13-.66.38-.91c.25-.25.55-.37.9-.37ZM405.03,280.79c.38,0,.71.14.99.41s.41.61.41.99-.14.71-.41.99c-.28.28-.61.41-.99.41s-.73-.14-1-.41c-.27-.28-.4-.61-.4-.99s.13-.73.4-1c.27-.27.6-.4,1-.4Z"/>
      <path d="M409.85,290.7c-.11-.54-.16-1.19-.16-1.96,0-1.39.46-2.48,1.37-3.26.74-.62,1.65-.94,2.72-.94,1.2,0,2.14.29,2.82.86.74.64,1.12,1.46,1.12,2.48v2.55c0,.07.02.13.07.18.06.05.13.07.22.07h.29v2.32h-1.1c-.55,0-1.04-.18-1.48-.54-.56.72-1.34,1.08-2.34,1.08s-1.8-.38-2.5-1.13h-.07l-.47.59h-3.4v-2.32h2.91ZM414.94,287.91c0-.28-.09-.52-.27-.74-.2-.22-.48-.32-.83-.32-.44,0-.79.18-1.04.53-.25.35-.38.84-.38,1.47,0,1.59.43,2.39,1.29,2.39.42,0,.83-.18,1.22-.54v-2.79Z"/>
      <path d="M421.4,287.89c0-1.02.37-1.85,1.11-2.48.67-.58,1.59-.86,2.77-.86,1.01,0,1.86.25,2.55.76,1.04.76,1.57,1.9,1.57,3.44,0,1.38-.34,2.53-1.01,3.45-.68.91-1.59,1.37-2.72,1.37-.97,0-1.74-.36-2.3-1.08-.43.36-.92.54-1.46.54h-3.76v-2.32h2.97c.08,0,.15-.02.2-.07.05-.06.07-.12.07-.18v-2.55ZM424.17,290.7c.28.35.63.52,1.06.52s.78-.2,1.04-.61c.26-.41.4-.95.4-1.62,0-.72-.14-1.27-.41-1.64-.26-.34-.62-.5-1.08-.5-.3,0-.55.11-.75.32-.17.22-.25.46-.25.74v2.79Z"/>
      <path d="M436.06,284.64c.31-.07.74-.11,1.29-.11,1.47,0,2.66.46,3.56,1.38.8.83,1.21,1.88,1.21,3.15v.88c0,.34,0,.59.02.75h.45v2.32h-.23l-.67-.83h-.05c-.11.12-.2.22-.29.31-.42.34-.89.51-1.42.52h-5.68v-2.32h4.86c.17,0,.25-.08.25-.25v-1.17c0-.73-.22-1.33-.67-1.8-.45-.47-1.03-.7-1.75-.7-.37,0-.66.02-.86.07v-2.21Z"/>
      <path d="M444.83,285.05c1.2-.35,2.24-.52,3.11-.52,1.44,0,2.66.45,3.65,1.35.91.84,1.37,1.87,1.37,3.08v1.83c0,.61-.22,1.13-.65,1.57-.44.44-.98.67-1.6.67h-8.27v-2.32h7.48c.17,0,.25-.08.25-.25v-1.19c0-.79-.34-1.41-1.03-1.85-.54-.35-1.16-.52-1.87-.52-.66,0-1.48.13-2.45.38v-2.21Z"/>
      <path d="M455.46,277.62c-.16-.35-.23-.65-.23-.92,0-.54.16-.98.48-1.31.32-.34.73-.5,1.25-.5.33,0,.69.06,1.06.18v1.13c-.29-.08-.51-.12-.67-.12-.46,0-.68.26-.68.77,0,.22.04.39.13.52.13.17.32.25.56.25h1.26v.56l-.49.59h-3.31v-1.15h.65ZM457.96,280.14v12.19l-1.4,1.13h-1.37v-13.33h2.77Z"/>
    </g>
    <g>
      <path class="cls-10" d="M170.65,79.87c-3.7,4.45-8.16,8.03-13.37,10.76-2.54,1.33-5.2,2.6-7.99,3.82-10.23,4.32-20.81,6.88-31.74,7.66-5.49.4-11.01-.38-16.56-2.34-.25-.09-.42,0-.49.25l-4.31,15.23s.01.09.06.1c.01,0,.03,0,.04,0,7.09-1.57,14.02-2.96,20.79-4.17,2.55-.46,5.8-.59,9.75-.39l7.23-.1c4.22-.36,8.52.78,12.6,1.84,1.03.27,2.22.45,3.56.56,1.17.09,2.37.25,3.62.47,6.7-1.92,13.45-2.99,20.24-3.23l12.96.72c.79.05,1.41.69,1.44,1.47.06,2.53.8,3.82-1.35,5.67-.24.2-.38.46-.41.78-.3,3.33-.73,5.8-1.27,7.42-.76,2.29-2.43,3.87-5.01,4.74l-5.28.9c-1.95.04-3.99.11-6.12.2-1.74.07-3.98-.3-6.71-1.13-2.21-.67-4.02-2.49-5.43-5.46-.43-1.39-.97-2.86-1.64-4.41-.43-.99-.98-1.71-1.66-2.16-.91-.6-2.12-.36-2.72.55-.03.05-.06.1-.09.15-.69,1.27-1.43,2.83-2.22,4.69-1.8,4.25-3.44,6.38-7.92,7.23-3.28.62-7.2.67-11.74.16-4.94-.56-8.54-1.87-9.64-7.2-.36-1.76-.63-3.56-.8-5.38-.13-1.34-1.32-2.32-2.65-2.2-.07,0-.13.02-.2.03l-18.45,3.29c-.33.06-.43.24-.3.55,4.41,10.47,9.43,19.9,15.07,28.31,2.36,3.52,5.13,6.55,8.32,9.1,3.39,2.71,7.13,3.41,11.22,1.8,2.08-.82,3.42-1.41,4.03-1.79,4.82-3.02,9.91-5.46,15.27-7.33,3.2-.96,6.39-1.24,9.58-.83,3.01.39,6.16,2.96,8.77,2.63,2.49-.3,3.94-1.59,4.33-3.89.56-3.28.99-5.37,1.28-6.26l.2,10.02c-.81,6.3-2.21,12.2-4.19,17.69-1.09,3.02-2.87,5.96-5.34,8.8-4.86,5.6-10.5,6.83-17.65,6.61-3.39-.3-6.75-.74-10.05-1.33-10.02-1.77-18.84-6.17-26.46-13.2,5.52,1.07,10.78,1.66,15.8,1.77.63.01,1.1.21,1.42.59,1.41,1.72,2.75,2.97,5.12,3.46,4.32.89,8.2-.03,11.64-2.75,2.13-1.7,3.15-4.79,1.27-7.02-2.88-3.4-8.75-3.76-13-2.88-2.96.61-4.86,2.14-5.72,4.58-.11.3-.32.46-.64.46-7.59.07-14.82-1.47-21.69-4.65,0-.14-.07-.26-.2-.36-2.83-3.99-5.14-8.26-6.92-12.81,2.49-4.62,3.21-9.56,2.16-14.82-1.31-6.57-4.57-11.77-9.78-15.59-2.08-3.9-4.87-7.18-8.36-9.84-.04-12.14,2.78-23.4,8.45-33.79,3.01-5.52,6.8-9.3,11.35-11.36,3.46-1.56,8.89-3.33,16.31-5.31.9-.24,5.45-1.27,13.64-3.08,4.48-.99,8.98-2.2,13.51-3.62,1.47-.33,3.06-.73,4.8-1.19,2.07-.54,3.69-.84,4.86-.9,5.48-.23,9.59,1.88,12.31,6.35,1,1.64,1.64,3.97,1.95,6.97.54,5.23,1,9.78,1.37,13.64.02.27-.06.5-.27.7ZM128.38,113.4c-1.96,0-3.63.5-5.01,1.49-1.53,1.11-2.3,2.58-2.3,4.39,0,2.03.43,4.11,1.29,6.22.87,2.19,2.7,3.45,5.5,3.79,3.91,1.22,8.22,1.25,12.93.1,1.82-.6,3.15-1.47,3.98-2.62,1.49-2.07,2.31-4.13,2.47-6.17,1.52-4.68-1.19-6.04-5.24-6.38-3.87-1.18-8.41-1.46-13.62-.83ZM163.74,114.06c-1.28.11-2.62.41-4.03.91-4.05,1.45-1.7,7.67-.19,10.3,1.3,2.57,3.6,4.03,6.9,4.41,2.36.66,5.14.73,8.37.2.21-.04.32-.16.33-.37,0-.09-.02-.17-.07-.26.48.46,1,.61,1.56.45l2.88-.86c1.84-.79,3.06-2.06,3.66-3.83.71-2.09,1.51-6.03.22-8.49-.47-.88-1.37-1.62-2.71-2.21-1.92-.85-3.96-1.22-6.12-1.11-3.48-.24-7.08.05-10.81.86ZM163.5,157.38l-14.86.98c-.25.02-.44.23-.43.48,0,.09.04.18.09.25,1.36,1.75,2.79,3.16,4.28,4.24,5.27,3.79,9.09-.5,11.13-5.66.08-.21,0-.31-.21-.29Z"/>
      <path class="cls-11" d="M145.63,54.29c-4.53,1.42-9.04,2.63-13.51,3.62-8.19,1.81-12.74,2.84-13.64,3.08-7.42,1.97-12.86,3.74-16.31,5.31-4.56,2.06-8.34,5.85-11.35,11.36-5.67,10.39-8.49,21.65-8.45,33.79v6.81c0,.32.16.48.47.5,2.74.2,5.37,1.04,7.88,2.53,5.21,3.82,8.46,9.02,9.78,15.59,1.05,5.26.33,10.2-2.16,14.82l-4.09,4.21c-.2.21-.22.43-.04.65,2.86,3.58,6.49,6.29,10.91,8.12-.21.06-.1.12.34.19,6.88,3.17,14.11,4.72,21.69,4.65.32,0,.53-.16.64-.46.86-2.44,2.77-3.97,5.72-4.58,4.26-.88,10.13-.53,13,2.88,1.88,2.24.86,5.32-1.27,7.02-3.44,2.73-7.32,3.65-11.64,2.75-2.37-.49-3.71-1.74-5.12-3.46-.32-.38-.79-.58-1.42-.59-5.02-.11-10.29-.7-15.8-1.77l-6.89-2.8c-3.5-1.58-7.14-3.9-10.93-6.96l-2.87-3.28c-.23-.25-.58-.36-.92-.26-3.19.96-6.54,1.01-10.05.16,1.38-.4,2.13-1.3,2.25-2.7.03-.34-.12-.53-.46-.56l-1.79-.17c-2.5-.81-4.36-1.82-5.58-3.03-3.95-3.93-6.14-9.28-6.58-16.07.75-4.29,2.5-7.86,5.27-10.7.1-.1.09-.26,0-.35-.03-.03-.07-.05-.11-.06-1.24-.27-2.15.06-2.73,1-.15.26-.38.37-.69.34l-.68-.06c1.63-1.97,3.46-3.59,5.5-4.86l3.22-1.47c.28-.13.41-.35.41-.65l-.24-8.11c.02-5.42.46-10.79,1.32-16.09,1.15-7.11,3.54-13.77,7.16-19.98,1.06-1.81,3.19-4.58,6.4-8.34,3.46-2.6,6.29-4.45,8.49-5.56,3.57-1.79,8.23-3.5,13.98-5.13,7.39-2.09,15.44-3.04,24.16-2.84,2.5.06,4.75.57,6.74,1.53Z"/>
      <path class="cls-10" d="M92.26,66.28c-3.21,3.75-5.34,6.53-6.4,8.34-3.62,6.21-6.01,12.87-7.16,19.98-.86,5.31-1.3,10.67-1.32,16.09-.33-.32-.57-.45-.72-.4-2.67-8.43-4.44-15.95-5.31-22.54-.19-1.4-.09-3.06.29-4.96.35-1.73.51-2.8.48-3.22-.04-.74-.03-1.47,0-2.19.2-3.65,3.06-7.08,6.34-8.12,1.92-.61,6.52-1.6,13.79-2.99Z"/>
      <path class="cls-10" d="M160.32,106.51c-.01-.14.1-.27.24-.28,0,0,0,0,0,0l11.52-.95c.72-.06,1.35.45,1.41,1.14l.03.26c.06.69-.49,1.3-1.21,1.35,0,0,0,0,0,0l-11.52.95c-.14.01-.26-.09-.28-.23l-.19-2.24Z"/>
      <path class="cls-10" d="M134.01,110.39l-7.29.31c-1.16.03-1.59-.75-1.27-2.33.06-.28.23-.44.52-.45l13.5-.9c.54-.03.81.22.81.76v1.47c0,.47-.38.85-.84.85-.05,0-.09,0-.14-.01-1.7-.28-3.46-.17-5.29.32Z"/>
      <path class="cls-14" d="M76.66,110.29c.15-.06.4.08.72.4l.24,8.11c0,.3-.13.52-.41.65l-3.22,1.47c-.11-.68-.19-2-.25-3.96-.09-3.14.88-5.36,2.91-6.67Z"/>
      <path class="cls-14" d="M90.72,121.28c-2.52-1.49-5.14-2.33-7.88-2.53-.32-.02-.47-.19-.47-.5v-6.81c3.49,2.67,6.27,5.95,8.36,9.84Z"/>
      <path class="cls-15" d="M179.49,128.83c-.2-1.36-.76-2.43-1.68-3.22-.51-1.35-1.49-2.47-2.92-3.38l-.28-5.26-.06-3.78c2.16-.11,4.2.27,6.12,1.11,1.34.59,2.24,1.32,2.71,2.21,1.29,2.46.49,6.4-.22,8.49-.6,1.77-1.82,3.05-3.66,3.83Z"/>
      <path class="cls-15" d="M147.24,120.61l-5.24-6.38c4.05.34,6.76,1.7,5.24,6.38Z"/>
      <ellipse class="cls-10" cx="167.89" cy="121.85" rx="2.8" ry="4.95" transform="translate(-1.06 1.47) rotate(-.5)"/>
      <ellipse class="cls-10" cx="135.5" cy="123.15" rx="2.77" ry="4.94" transform="translate(-1.28 1.43) rotate(-.6)"/>
      <path class="cls-11" d="M177.81,125.61l-1.2,4.08c-.56.17-1.08.02-1.56-.45l-.17-7.01c1.43.9,2.41,2.03,2.92,3.38Z"/>
      <path class="cls-19" d="M67.44,135.62c-1.89,10.39,2.32,17.32,12.65,20.8.24.09.42.02.55-.21.05-.1.08-.2.1-.31.07-.34-.05-.59-.36-.76l-.78-.42,1.79.17c.34.03.49.22.46.56-.12,1.4-.87,2.3-2.25,2.7-5.79-2.04-9.97-5.97-12.54-11.79-3.23-7.34-2.75-14.2,1.44-20.58l.68.06c.3.03.53-.08.69-.34.58-.94,1.48-1.27,2.73-1,.13.03.22.17.18.3-.01.04-.03.08-.06.11-2.76,2.84-4.52,6.41-5.27,10.7Z"/>
      <g>
        <path class="cls-5" d="M175.05,129.25l-.17-7.01-.28-5.26-.06-3.78c-3.48-.24-7.08.05-10.81.86-1.28.11-2.62.41-4.03.91-4.05,1.45-1.7,7.67-.19,10.3,1.3,2.57,3.6,4.03,6.9,4.41,2.36.66,5.14.73,8.37.2.21-.04.32-.16.33-.37,0-.09-.02-.17-.07-.26ZM170.69,121.82c.02,2.74-1.21,4.96-2.76,4.98s-2.82-2.19-2.84-4.93h0c-.02-2.74,1.21-4.96,2.76-4.98,1.55-.01,2.82,2.19,2.84,4.93h0Z"/>
        <path class="cls-5" d="M142,114.23c-3.87-1.18-8.41-1.46-13.62-.83-1.96,0-3.63.5-5.01,1.49-1.53,1.11-2.3,2.58-2.3,4.39,0,2.03.43,4.11,1.29,6.22.87,2.19,2.7,3.45,5.5,3.79,3.91,1.22,8.22,1.25,12.93.1,1.82-.6,3.15-1.47,3.98-2.62,1.49-2.07,2.31-4.13,2.47-6.17l-5.24-6.38ZM135.56,128.09c-1.53.02-2.8-2.18-2.82-4.91-.03-2.73,1.19-4.96,2.72-4.97,1.53-.02,2.8,2.18,2.82,4.91.03,2.73-1.19,4.96-2.72,4.97Z"/>
        <g>
          <path class="cls-5" d="M126.84,110.79l7.23-.1c4.22-.36,8.52.78,12.6,1.84,1.03.27,2.22.45,3.56.56,1.17.09,2.37.25,3.62.47,6.7-1.92,13.45-2.99,20.24-3.23-.75-9.89-1.76-19.82-3.02-29.77-.04-.26-.17-.49-.41-.69-3.7,4.45-8.16,8.03-13.37,10.76-2.54,1.33-5.2,2.6-7.99,3.82-10.23,4.32-20.81,6.88-31.74,7.66-5.49.4-11.01-.38-16.56-2.34-.25-.09-.42,0-.49.25l-4.31,15.23s0,.03,0,.04c.01.04.06.07.1.06,7.09-1.57,14.02-2.96,20.79-4.17,2.55-.46,5.8-.59,9.75-.39ZM160.56,106.23l11.52-.95c.72-.06,1.35.45,1.41,1.14l.03.26s0,0,0,0c.05.69-.49,1.29-1.22,1.35l-11.52.95c-.14.01-.26-.09-.28-.23l-.19-2.24s0,0,0,0c0-.14.1-.27.24-.28ZM125.45,108.37c.06-.28.23-.44.52-.45l13.5-.9c.54-.03.81.22.81.76v1.47s0,.09-.01.14c-.08.46-.51.77-.97.69-1.7-.28-3.46-.17-5.29.32l-7.29.31c-1.16.03-1.59-.75-1.27-2.33Z"/>
          <path class="cls-5" d="M169.03,132.24c-1.74.07-3.98-.3-6.71-1.13-2.21-.67-4.02-2.49-5.43-5.46-.43-1.39-.97-2.86-1.64-4.41-.43-.99-.98-1.71-1.66-2.16-.05-.03-.1-.06-.15-.09-.96-.52-2.15-.16-2.66.79-.69,1.27-1.43,2.83-2.22,4.69-1.8,4.25-3.44,6.38-7.92,7.23-3.28.62-7.2.67-11.74.16-4.94-.56-8.54-1.87-9.64-7.2-.36-1.76-.63-3.56-.8-5.38,0-.07-.02-.13-.03-.2-.24-1.33-1.5-2.21-2.82-1.97l-18.45,3.29c-.33.06-.43.24-.3.55,4.41,10.47,9.43,19.9,15.07,28.31,2.36,3.52,5.13,6.55,8.32,9.1,3.39,2.71,7.13,3.41,11.22,1.8,2.08-.82,3.42-1.41,4.03-1.79,4.82-3.02,9.91-5.46,15.27-7.33,3.2-.96,6.39-1.24,9.58-.83,3.01.39,6.16,2.96,8.77,2.63,2.49-.3,3.94-1.59,4.33-3.89.56-3.28.99-5.37,1.28-6.26l.4-10.67c-1.95.04-3.99.11-6.12.2Z"/>
        </g>
      </g>
      <path class="cls-11" d="M179.49,128.83l-2.88.86,1.2-4.08c.92.79,1.47,1.86,1.68,3.22Z"/>
      <path class="cls-11" d="M180.43,131.13c1.63,8.11-.19,15.3-5.47,21.58l-.2-10.02.4-10.67,5.28-.9Z"/>
      <path class="cls-19" d="M67.44,135.62c.43,6.79,2.62,12.15,6.58,16.07,1.22,1.21,3.09,2.22,5.58,3.03l.78.42c.31.17.43.42.36.76-.02.11-.05.21-.1.31-.12.23-.31.3-.55.21-10.33-3.48-14.54-10.42-12.65-20.8Z"/>
      <path class="cls-2" d="M148.64,158.36l14.86-.98c.22-.02.29.08.21.29-2.04,5.16-5.86,9.45-11.13,5.66-1.49-1.08-2.92-2.49-4.28-4.24-.15-.19-.12-.47.08-.63.07-.06.16-.09.25-.1Z"/>
      <path class="cls-6" d="M105.45,164.87c-.44-.07-.55-.13-.34-.19-.16.13-.11.07.14-.18.13.1.2.22.2.36Z"/>
      <g>
        <path class="cls-4" d="M105.11,164.68s-.01,0-.02-.01c-.07.07-.08.09.02.01Z"/>
        <path class="cls-4" d="M105.09,164.67s.07-.08.16-.17c-2.83-3.99-5.14-8.26-6.92-12.81l-4.09,4.21c-.2.21-.22.43-.04.65,2.85,3.57,6.48,6.28,10.88,8.11Z"/>
        <path class="cls-4" d="M147.78,185.82c-3.39-.3-6.75-.74-10.05-1.33-10.02-1.77-18.84-6.17-26.46-13.2l-6.89-2.8c-3.5-1.58-7.14-3.9-10.93-6.96l.12,22.31c-.15-.12-.18-.06-.07.2.02.06.06.11.11.16,11.04,8.58,22.25,16.89,33.63,24.92.27.19.52.17.75-.06l6.19-6.02,13.83-14.1c-.38-.32-.45-1.37-.22-3.13Z"/>
      </g>
      <path class="cls-6" d="M93.56,183.84c-.15-.12-.18-.06-.07.2.02.06.06.11.11.16,11.04,8.58,22.25,16.89,33.63,24.92.27.19.52.17.75-.06l6.19-6.02,13.83-14.1,1.35,18.01-3.07,28.41c-.05.45-.21.49-.47.13l-5.97-8.05c-.26-.79-.82-1.31-1.68-1.58-.69-1.64-1.86-3.1-3.52-4.38-1.58-3.49-3.73-6.82-6.45-9.98-.25-.3-.7-.33-.99-.08-.05.05-.1.1-.14.16l-11.3,17.42c-.04.07-.07.15-.07.23,0,.1-.01.2-.04.3-.2.22-.37.52-.49.88l-.09.26c-.05.16-.12.3-.21.42l-5.16,6.78c-.13.17-.37.2-.53.07-.04-.03-.07-.07-.1-.11l-17.76-31.54c-.47-3.22.1-6.83.08-9.36-.03-4.43.13-8.86.49-13.29.03-.38.22-.49.57-.32l1.11.52ZM92.49,185.4c-.25,3.7-.34,7.45-.26,11.26.05,2.21-.33,4.5-.48,6.78-.07,1.16.35,2.56,1.26,4.18,6.67,11.86,12.07,21.49,16.2,28.88.07.12.22.16.34.1.03-.02.06-.05.09-.08l17.32-25.99c.12-.17.08-.41-.09-.54l-33.68-24.91c-.43-.32-.66-.21-.7.32ZM145.89,232.13c.74-7.1,1.47-13.71,2.18-19.8.38-3.23.45-6.67.19-10.33-.46-6.52-.7-9.97-.73-10.34-.01-.21-.19-.37-.41-.35-.09,0-.18.05-.25.11l-18.35,18.34c-.24.24-.26.5-.06.77l16.78,22.97c.23.31.45.3.65-.03.09-.15.1-.39.02-.71-.04-.15-.04-.36-.02-.62Z"/>
      <path class="cls-2" d="M92.49,185.4c.04-.53.27-.63.7-.32l33.68,24.91c.17.12.21.36.09.54l-17.32,25.99c-.08.11-.23.14-.35.07-.03-.02-.06-.05-.08-.09-4.13-7.4-9.53-17.02-16.2-28.88-.92-1.63-1.34-3.02-1.26-4.18.15-2.28.53-4.57.48-6.78-.08-3.81,0-7.56.26-11.26Z"/>
      <path class="cls-2" d="M145.91,232.75c.08.33.07.57-.02.71-.2.33-.42.34-.65.03l-16.78-22.97c-.2-.27-.19-.53.06-.77l18.35-18.34c.15-.15.4-.15.55,0,.07.07.1.15.11.24.03.37.28,3.82.73,10.34.26,3.66.2,7.1-.19,10.33-.71,6.1-1.44,12.7-2.18,19.8-.02.27-.02.47.02.62Z"/>
      <path class="cls-20" d="M215.7,285.3h.34c.24,0,.44.19.45.42,3.17,45.48,5.47,90.94,6.92,136.38,13.08,5.56,26.5,10.18,40.27,13.87l16.6-50.1c-14.23-5.22-28.72-9.35-43.47-12.39-.31-.06-.48-.25-.52-.56-.89-7.21-2.06-14.23-3.49-21.06-1.22-5.9-2.26-11.98-3.12-18.26-1.02-7.63-2.43-16.4-4.23-26.28-2.86-15.77-6.38-31.26-12.06-45.73-.41-1.03-1.15-3.43-2.24-7.21-2.51-8.68-8.77-15.61-15.5-20.79-7.68-5.93-16.07-11.19-25.2-15.8-6.96-3.52-14-7.12-21.11-10.82l-3.07,28.41c-.05.45-.2.49-.47.13l-5.97-8.05c-.07.02-.15.06-.23.12-.16.11-.24.27-.24.47l-.04,54.94.21,102.13-.03,27.27c0,.32.16.5.45.57,23.49,4.94,46.85,10.45,70.06,16.53,0,0,.05.06.12.2h0c.07.15,0,.19-.2.13-27.21-6.46-54.53-12.51-81.94-18.14-17.9-3.67-35.9-6.9-54.01-9.69-1.82.32-3.63.04-5.43-.85-.2-.1-.21-.22-.03-.35.11-.08.21-.11.31-.09.7.13,1.6.45,2.68.94.12.06.25.07.37.06.37-.05.63-.39.58-.77-1.48-11.18-4.38-22.68-8.29-33.42-1.37-3.77-2.36-7.3-2.95-10.61-1.18-6.54-2.5-13.52-3.99-20.97-.28-1.38-.13-1.42.43-.13,7.25,16.57,13.52,31.63,18.8,45.15,2.74,6.99,4.96,14.25,6.67,21.77l33.9,5.62c.31.05.45-.08.45-.39l-.06-20.22v-76.09c-.05-16.5-.06-32.99-.03-49.49,0-.47-.12-1-.37-1.59-.23-.57-.35-1.09-.35-1.55,0-8.43.04-16.12.07-23.07,0-.85-.1-2.38-.32-4.6-.03-.3-.19-.48-.49-.55-.39-.08-.65-.19-.79-.33l-.09.26c-.05.16-.12.3-.21.42l-5.16,6.78s-.06.07-.11.09c-.19.11-.42.05-.52-.14l-17.76-31.54-56.74,30.03-24.3,12.85c-.7.36-1.29.89-1.74,1.54-2.62,3.76-5.59,6.93-6.48,11.83-.94,5.23-1.52,10.96-1.74,17.21-.64,17.59-.22,35.93,1.25,55.01,1.98,25.63,5.51,50.42,13.26,74.23,3.18,9.77,7.64,19.6,14.17,26.58,3.29,3.52,6.97,5.28,10.21,7.23,2.39,1.44,4.34,2.49,5.84,3.17,9.74,4.37,19.89,7.7,30.42,10,.58.13.82.48.73,1.06l-2.11,15.07c16.78.13,33.51.27,50.21.42,3.86.04,7.71.2,11.55.5.32.03.46.19.45.5l-.16,3.55,87.6-.02-.08-.83c-1.09-63.62-3.85-127.14-8.26-190.57,0-.23.1-.35.33-.35ZM185.48,344.95l-5.29,5.29c-.07.07-.19.12-.3.12h-26.2c-.11,0-.21-.05-.3-.12l-4.03-4.03c-.07-.07-.12-.18-.13-.29l-.98-33.85h0c0-.24.19-.44.43-.44h35.55c.23,0,.43.19.43.42l.95,32.59c0,.12-.04.23-.12.32Z"/>
      <path class="cls-7" d="M134.64,221.5l-6.13-5.04c-.23-.19-.45-.17-.65.06l-10.93,12.84c.06.56-.37.62-1.28.19.02-.1.04-.2.04-.3,0-.09.03-.16.07-.23l11.3-17.42c.21-.33.64-.43.97-.22.06.04.11.08.16.14,2.71,3.16,4.86,6.49,6.45,9.98Z"/>
      <path class="cls-2" d="M134.64,221.5c1.66,1.28,2.83,2.74,3.52,4.38l.17,56.61.49,102.71-.06,27.28c0,.1-.08.19-.19.19-.01,0-.03,0-.04,0l-19.87-3.97c-.33-.07-.49-.27-.49-.6v-20.39s-.03-76.19-.03-76.19c.12-23.35.11-39.67-.03-48.93-.14-9.79-.2-17.52-.17-23.2,0-1.36-.15-3.02-.48-4.99-.27-1.57-.44-3.25-.53-5.03l10.93-12.84c.2-.23.41-.26.65-.06l6.13,5.04ZM130.65,222.98c0-1.1-1.02-1.98-2.25-1.97h0c-1.23.01-2.23.91-2.22,2,0,1.1,1.02,1.98,2.25,1.97h0c1.23-.01,2.23-.91,2.22-2ZM136.19,229.69c0-.3-.24-.54-.54-.54h-15.32c-.3,0-.54.24-.54.54h0v.04c0,.3.24.54.54.54h15.32c.3,0,.54-.24.54-.54h0v-.04ZM130.67,246.46c.02-1.09-.96-1.99-2.21-2.02h0c-1.24-.03-2.27.83-2.3,1.91h0c-.02,1.09.96,1.99,2.21,2.02h0c1.24.03,2.27-.83,2.3-1.91h0ZM130.68,270.95c-.04-1.09-1.09-1.93-2.34-1.88h0c-1.25.05-2.23.97-2.18,2.06.04,1.09,1.09,1.93,2.34,1.88h0c1.25-.05,2.23-.97,2.18-2.06ZM130.64,295.77c.06-1.09-.89-2.04-2.12-2.1h0c-1.23-.07-2.28.77-2.34,1.86t0,0c-.06,1.09.89,2.04,2.12,2.1h0c1.23.07,2.28-.77,2.34-1.86h0ZM130.65,320.28c-.01-1.07-1.03-1.92-2.27-1.9-1.24.02-2.23.89-2.22,1.96.01,1.07,1.03,1.92,2.27,1.9,1.24-.02,2.23-.89,2.22-1.96ZM130.65,344.83c-.06-1.07-1.11-1.88-2.35-1.81-1.24.07-2.19.99-2.13,2.06.06,1.07,1.11,1.88,2.35,1.81,1.24-.07,2.19-.99,2.13-2.06ZM130.66,371.28c-.04-1.06-1.07-1.88-2.31-1.84h0c-1.24.05-2.21.94-2.17,2,.04,1.06,1.07,1.88,2.31,1.84h0c1.24-.05,2.21-.94,2.17-2h0ZM137.12,405.05c0-.27-.22-.48-.48-.48h-16.29c-.27,0-.48.22-.48.48v.04c0,.27.22.48.48.48h16.29c.27,0,.48-.22.48-.48h0v-.04Z"/>
      <ellipse class="cls-18" cx="128.42" cy="223" rx="2.24" ry="1.98" transform="translate(-1.94 1.13) rotate(-.5)"/>
      <path class="cls-7" d="M139.84,227.45c-.07.02-.15.06-.23.12-.16.11-.24.27-.24.47l-.04,54.94c-.14-.38-.48-.55-1-.49l-.17-56.61c.86.27,1.42.79,1.68,1.58Z"/>
      <rect class="cls-7" x="119.79" y="229.15" width="16.4" height="1.11" rx=".54" ry=".54"/>
      <path class="cls-7" d="M115.66,229.55c.91.44,1.34.38,1.28-.19.09,1.78.26,3.46.53,5.03.33,1.97.49,3.63.48,4.99-.03,5.68.02,13.41.17,23.2.14,9.27.15,25.58.03,48.93-.27-.04-.5-.01-.69.09-.06-16.5-.07-32.99-.04-49.49,0-.48-.12-1-.37-1.59-.23-.57-.35-1.09-.35-1.55,0-8.43.03-16.12.07-23.07,0-.85-.1-2.39-.32-4.6-.03-.3-.19-.48-.49-.55-.39-.08-.65-.19-.79-.33.12-.36.29-.66.49-.88Z"/>
      <ellipse class="cls-18" cx="128.42" cy="246.41" rx="1.97" ry="2.25" transform="translate(-120.84 369.21) rotate(-88.7)"/>
      <ellipse class="cls-18" cx="128.42" cy="271.05" rx="2.26" ry="1.98" transform="translate(-10.77 5.37) rotate(-2.3)"/>
      <path class="cls-7" d="M139.33,282.98l.21,102.13-.72.09-.49-102.71c.53-.06.86.11,1,.49Z"/>
      <path class="cls-7" d="M224.76,475.21c.03,1.35-.34,1.7-1.12,1.02-1.09-63.62-3.85-127.14-8.26-190.57,0-.23.1-.35.33-.35h.34c.24,0,.44.19.45.42,3.17,45.48,5.47,90.94,6.92,136.38.58,17.74,1.03,35.44,1.34,53.11Z"/>
      <ellipse class="cls-18" cx="128.41" cy="295.65" rx="1.98" ry="2.24" transform="translate(-173.75 407.88) rotate(-86.9)"/>
      <path class="cls-7" d="M118.14,311.51l.02,76.19h-.71s0-76.1,0-76.1c.19-.11.41-.14.69-.09Z"/>
      <path class="cls-13" d="M179.9,350.36h-26.2c-.11,0-.22-.04-.3-.12l-4.03-4.03c-.08-.08-.12-.18-.13-.29l-.98-33.85c0-.24.18-.43.42-.44,0,0,0,0,0,0h35.55c.23,0,.42.19.43.42l.95,32.59c0,.12-.04.23-.12.32l-5.29,5.29c-.08.08-.19.12-.3.12ZM182.87,322.32c-2.76.11-5.23.06-7.41-.13-2.97-.27-5.41-.33-7.32-.19-2.7.19-8.64.29-17.83.29-.48,0-.86.39-.86.88,0,0,0,0,0,0l.33,22.07c0,.13.05.26.14.35l3.84,3.83c.12.13.3.2.49.2h24.78c.49,0,.97-.2,1.33-.56l4.09-4.09c.26-.26.38-.57.37-.93l-.91-31.37c0-.21-.19-.38-.4-.38h-33.95c-.21,0-.31.11-.31.32l.24,8.24c0,.29.24.52.54.53,8.21.09,15.21.09,21.01.02.97-.01,1.78.07,2.43.25.58.15,1.4.24,2.45.26,2.1.04,4.51.09,7.23.15.11,0,.13.05.05.12-.08.07-.23.13-.33.13h0Z"/>
      <path class="cls-2" d="M183.16,322.07c-2.71-.06-5.12-.11-7.23-.15-1.05-.02-1.87-.11-2.45-.26-.65-.18-1.46-.26-2.43-.25-5.79.07-12.8.07-21.01-.02-.29,0-.53-.24-.54-.53l-.24-8.24c0-.21.1-.32.31-.32h33.95c.21,0,.39.17.4.38l.91,31.37c.01.36-.11.67-.37.93l-4.09,4.09c-.36.36-.83.56-1.33.56h-24.78c-.19,0-.37-.07-.49-.2l-3.84-3.83c-.09-.09-.14-.22-.14-.35l-.33-22.07c0-.49.38-.89.85-.89,0,0,0,0,0,0,9.18,0,15.12-.1,17.83-.29,1.91-.14,4.35-.07,7.32.19,2.18.19,4.65.23,7.41.13.11,0,.26-.06.33-.13.08-.07.06-.12-.05-.12h0Z"/>
      <path d="M502.35,318.91l-16.68,62.11-73.01-66.85c-.08-.07-.18-.11-.29-.11h-45.48c-.25,0-.46.2-.46.45,0,.12.05.24.14.33,36.12,36.67,68.4,69.47,96.84,98.42.04.05.99,1.06,2.83,3.03,2.42,2.6,5.14,4.83,8.17,6.67l-11.61,43.23c-1.69-1.32-2.89-2.36-3.6-3.12-24.18-25.82-70.27-75.23-138.27-148.21-.22-.23-.48-.35-.79-.36l-5.24-.2c-.06-.3-.2-.46-.45-.46.75-.3,1.37-.45,1.84-.45,59.03.08,118.07.07,177.11-.04,1.13,0,2.84.1,5.16.3.02,0,.03,0,.05,0,2.63.24,4.44,2.72,3.76,5.27Z"/>
      <path d="M314.45,313.82c.24,0,.39.16.45.46-3.28,1.15-5.42,3.26-6.43,6.33-5.33,16.15-10.68,32.29-16.05,48.41-10.48,31.58-20.95,63.17-31.41,94.74-1.79,5.39-.58,9.81,3.64,13.27l-6.69.02c-4.02-3.6-5.34-7.52-3.96-11.74,3.18-9.73,6.42-19.51,9.69-29.35l16.6-50.1c6.99-21.1,13.91-41.99,20.74-62.67.89-2.7,1.66-4.5,2.32-5.42,2.52-3.52,6.74-4.29,11.1-3.95Z"/>
      <path class="cls-12" d="M485.67,381.02l-11.27,41.93c-3.03-1.84-5.75-4.07-8.17-6.67-1.84-1.97-2.79-2.98-2.83-3.03-28.44-28.94-60.72-61.75-96.84-98.42-.18-.18-.18-.46,0-.64.09-.09.21-.14.33-.14h45.48c.11,0,.21.04.29.11l73.01,66.85Z"/>
      <path class="cls-12" d="M462.79,466.18l-2.95,10.86h-81.61c-.85-1.34-1.75-2.62-2.7-3.83-26.17-33.18-52.38-66.33-78.62-99.45-1.33-1.68-2.83-3.26-4.49-4.75,5.37-16.12,10.72-32.26,16.05-48.41,1.01-3.07,3.15-5.18,6.43-6.33l5.24.2c.31.01.57.13.79.36,68,72.99,114.1,122.39,138.27,148.21.71.75,1.91,1.79,3.6,3.12Z"/>
      <ellipse class="cls-18" cx="128.41" cy="320.31" rx="2.24" ry="1.93" transform="translate(-3.9 1.59) rotate(-.7)"/>
      <path class="cls-1" d="M83.15,402.69l-9.15-.71c-1.82.32-3.63.04-5.43-.85-.21-.11-.22-.22-.03-.35.11-.08.21-.11.31-.09.7.13,1.59.44,2.68.94.34.16.74,0,.9-.34.05-.12.07-.25.06-.37-1.48-11.18-4.38-22.68-8.29-33.42-1.37-3.77-2.36-7.3-2.95-10.61-1.18-6.54-2.51-13.53-3.99-20.97-.28-1.38-.14-1.42.43-.13,7.25,16.58,13.52,31.63,18.8,45.15,2.73,6.99,4.96,14.25,6.67,21.77Z"/>
      <ellipse class="cls-18" cx="128.41" cy="344.96" rx="2.24" ry="1.94" transform="translate(-19.06 7.71) rotate(-3.2)"/>
      <path d="M378.23,477.05l-113.59-.02c-4.21-3.46-5.42-7.89-3.64-13.27,10.46-31.58,20.93-63.16,31.41-94.74,1.66,1.49,3.16,3.07,4.49,4.75,26.24,33.12,52.45,66.27,78.62,99.45.95,1.21,1.85,2.49,2.7,3.84Z"/>
      <ellipse class="cls-18" cx="128.42" cy="371.36" rx="2.24" ry="1.92" transform="translate(-13.52 4.96) rotate(-2.1)"/>
      <path class="cls-7" d="M139.54,385.11l-.03,27.27c0,.32.15.5.45.57,23.49,4.95,46.84,10.46,70.06,16.53,0,0,.05.07.12.2h0c.07.15,0,.19-.2.13-27.22-6.47-54.53-12.52-81.94-18.14-17.91-3.67-35.91-6.9-54.01-9.69l9.15.71,33.9,5.62c.3.05.45-.08.45-.39l-.06-20.22h.71s0,20.4,0,20.4c0,.33.16.53.49.6l19.87,3.97c.11.02.21-.04.23-.14,0-.01,0-.03,0-.04l.06-27.28.72-.09Z"/>
      <rect class="cls-7" x="119.87" y="404.57" width="17.25" height="1" rx=".48" ry=".48"/>
      <path class="cls-1" d="M263.69,435.96c-3.28,9.83-6.51,19.61-9.69,29.35-1.38,4.22-.06,8.14,3.96,11.74h-34.23l-.08-.83c.77.67,1.15.33,1.12-1.02-.32-17.67-.77-35.37-1.34-53.11,13.07,5.56,26.5,10.18,40.27,13.87Z"/>
      <path class="cls-15" d="M18.34,467.07h53.88c.38,0,.7.26.8.63l1.06,4.4c16.78.13,33.51.27,50.21.42,3.85.04,7.7.2,11.55.5.31.02.46.19.45.5l-.16,3.55-134.5-.03-.03-9.74,16.75-.23Z"/>
      <g>
        <g>
          <path d="M150.09,293.52v-2.84s.05,0,.08,0c1.47,0,2.93,0,4.4,0,.78,0,1.54.11,2.28.38,1.23.47,2,1.34,2.37,2.57.22.72.27,1.47.26,2.22,0,.29,0,.59.03.88.07.58.46.94,1.05,1.02.29.04.58.04.87-.03.51-.12.8-.44.9-.93.03-.15.04-.3.04-.45,0-.91,0-1.83,0-2.74v-.09h-.11c-.75,0-1.5,0-2.24,0-.04,0-.08,0-.08,0h0c-.03-.08-.06-.15-.08-.23-.24-.73-.62-1.39-1.2-1.93-.28-.26-.59-.48-.95-.68h7.55s0,.05,0,.07c0,1.91,0,3.82,0,5.74,0,.65-.09,1.28-.33,1.89-.39,1.02-1.14,1.68-2.2,2-.72.22-1.45.26-2.19.23-.53-.02-1.05-.1-1.55-.27-1.21-.41-1.94-1.24-2.3-2.43-.18-.61-.21-1.24-.14-1.87.04-.42.03-.83-.09-1.24-.18-.65-.61-1.04-1.27-1.21-.28-.07-.57-.09-.86-.09-1.38,0-2.76,0-4.14,0h-.11,0Z"/>
          <path class="cls-11" d="M150.07,294.23h2.89v3.45c0,.07.04.11.11.11.41,0,.83,0,1.24,0,.54,0,1.07-.06,1.54-.38.16,1.03.56,1.95,1.34,2.69-.16.06-.3.13-.45.18-.58.2-1.17.32-1.78.33-.88.02-1.76.02-2.64.02-.72,0-1.43,0-2.15,0h-.1v-6.4Z"/>
        </g>
        <g>
          <path d="M180.43,290.78v.89h-1.67v1.65h1.67v.94c.03,1.01-.46,1.48-1.46,1.41h-1.77,0s0,0,0,0c-.52-.06-.76-.37-.74-.93v-3.18h.86v3.21h1.69c.23-.03.35-.13.38-.31v-.19s0-.04,0-.06h-1.6v-2.3c-.02-.74.27-1.11.87-1.12h1.78ZM177.26,297.05h.93v-.93h-.93v.93ZM178.59,297.05h.93v-.93h-.93v.93Z"/>
          <path d="M181.59,290.68c.51-.03.99.07,1.46.29.51.31.86.7,1.05,1.17.19.47.27.92.24,1.35v.84h-3.42v-.84h2.47v-.18c-.04-1.11-.64-1.69-1.8-1.72v-.92Z"/>
        </g>
        <g>
          <path d="M167.97,291.93v2.86h1.25c.52,0,.76-.15.73-.45h-.64v-.85h2.15v.85h-.48c-.12.84-.58,1.29-1.39,1.34h-1.55c-.66,0-1.01-.31-1.04-.96v-2.78h.98ZM167.89,296.12h.94v.94h-.94v-.94ZM169.23,296.12h.94v.94h-.94v-.94Z"/>
          <path d="M171.78,290.81h1.64c.87.04,1.39.46,1.55,1.25v2.28h-3.75v-.85h2.66v-1.2c.02-.32-.15-.54-.53-.63h-1.57v-.85ZM172.62,295.75h.94v-.94h-.94v.94Z"/>
        </g>
        <rect class="cls-11" x="166.99" y="297.92" width="17.36" height="2.71"/>
        <g>
          <path class="cls-2" d="M168.59,298.75v.96c0,.43-.19.63-.55.61v-.29c.16,0,.23-.11.23-.33v-.95h.32ZM168.28,298.23h.3v.3h-.3v-.3Z"/>
          <path class="cls-2" d="M169.24,298.75v.96c0,.43-.19.63-.55.61v-.29c.16,0,.23-.11.23-.33v-.95h.32Z"/>
          <path class="cls-2" d="M170.32,298.75v.87h.14v.27h-.14c0,.12-.02.22-.08.3-.08.1-.21.14-.37.13h-.42v-.29h.46c.09,0,.12-.05.1-.14-.23.01-.41-.06-.51-.22-.11-.16-.13-.35-.05-.58.07-.23.33-.34.77-.34h.11ZM170.01,299.03c-.25.01-.35.14-.31.38.05.16.16.23.31.21v-.59Z"/>
          <path class="cls-2" d="M170.87,299.62v.27h-.48v-.27h.48Z"/>
          <path class="cls-2" d="M171.3,299.62v.27h-.48v-.27h.48Z"/>
          <path class="cls-2" d="M171.73,299.62v.27h-.48v-.27h.48Z"/>
          <path class="cls-2" d="M172.16,299.62v.27h-.48v-.27h.48Z"/>
          <path class="cls-2" d="M172.59,299.62v.27h-.48v-.27h.48Z"/>
          <path class="cls-2" d="M173.02,299.62v.27h-.48v-.27h.48Z"/>
          <path class="cls-2" d="M173.45,299.62v.27h-.48v-.27h.48Z"/>
          <path class="cls-2" d="M173.88,299.62v.27h-.48v-.27h.48Z"/>
          <path class="cls-2" d="M174.31,299.62v.27h-.48v-.27h.48Z"/>
          <path class="cls-2" d="M174.74,299.62v.27h-.48v-.27h.48Z"/>
          <path class="cls-2" d="M175.17,299.62v.27h-.48v-.27h.48Z"/>
          <path class="cls-2" d="M175.59,299.62v.27h-.48v-.27h.48Z"/>
          <path class="cls-2" d="M175.96,298.75h.33v1.14h-.74v-.27h.41v-.87ZM175.56,298.23h.3v.3h-.3v-.3ZM175.99,298.23h.3v.3h-.3v-.3Z"/>
          <path class="cls-2" d="M177.41,298.75v.87h.14v.27h-.14c0,.12-.02.22-.08.3-.08.1-.21.14-.37.13h-.42v-.29h.46c.09,0,.12-.05.1-.14-.23.01-.41-.06-.51-.22-.11-.16-.13-.35-.05-.58.07-.23.33-.34.77-.34h.11ZM177.09,299.03c-.25.01-.35.14-.31.38.05.16.16.23.31.21v-.59Z"/>
          <path class="cls-2" d="M177.95,299.62v.27h-.48v-.27h.48Z"/>
          <path class="cls-2" d="M178.38,299.62v.27h-.48v-.27h.48Z"/>
          <path class="cls-2" d="M178.81,299.62v.27h-.48v-.27h.48Z"/>
          <path class="cls-2" d="M179.24,299.62v.27h-.48v-.27h.48Z"/>
          <path class="cls-2" d="M179.67,299.62v.27h-.48v-.27h.48Z"/>
          <path class="cls-2" d="M180.1,299.62v.27h-.48v-.27h.48Z"/>
          <path class="cls-2" d="M180.53,299.62v.27h-.48v-.27h.48Z"/>
          <path class="cls-2" d="M180.96,299.62v.27h-.48v-.27h.48Z"/>
          <path class="cls-2" d="M181.39,299.62v.27h-.48v-.27h.48Z"/>
          <path class="cls-2" d="M181.82,299.62v.27h-.48v-.27h.48Z"/>
          <path class="cls-2" d="M182.25,299.62v.27h-.48v-.27h.48Z"/>
          <path class="cls-2" d="M182.68,299.62v.27h-.48v-.27h.48Z"/>
          <path class="cls-2" d="M182.74,299.24c.01-.32.19-.48.54-.49h.32v.85c.01.39-.18.58-.57.56h-.28v-.27h-.11v-.27h.11v-.38ZM183.19,299.04c-.07,0-.1.04-.11.11v.72h.07c.08,0,.11-.04.11-.12v-.71h-.07Z"/>
        </g>
      </g>
      <g>
        <path class="cls-2" d="M360.02,389.43l2.65-8.47c.07,0,.13-.01.2-.01,3.67.02,7.36.04,11.06.08,1.97.02,3.83.34,5.48,1.17,2.79,1.41,4.12,4.07,4.14,7.86.01,2.26-.42,4.61-1.04,7.01-.24.95-.49,1.92-.63,2.87-.27,1.91.49,3.13,2.03,3.42.76.14,1.55.15,2.38-.05,1.48-.37,2.52-1.41,3.16-3.04.19-.48.33-.98.44-1.47.68-2.96,1.34-5.87,1.99-8.74l.06-.28h-.29c-1.97-.03-3.94-.05-5.91-.07-.1,0-.21,0-.21,0h0c-.02-.24-.04-.47-.04-.71-.08-2.26-.58-4.25-1.65-5.89-.52-.79-1.15-1.45-1.91-2.02l19.48.13c-.01.07-.02.14-.04.22-1.19,5.79-2.42,11.78-3.71,17.95-.45,2.14-1.13,4.26-2.21,6.31-1.83,3.48-4.4,5.71-7.61,6.76-2.17.71-4.27.83-6.32.67-1.45-.11-2.84-.41-4.08-1.03-2.97-1.49-4.24-4.39-4.14-8.39.05-2.03.54-4.07,1.26-6.11.48-1.34.79-2.66.83-3.95.07-2.03-.73-3.27-2.29-3.8-.67-.23-1.41-.29-2.16-.3-3.56-.04-7.11-.08-10.64-.12h-.29s0,0,0,0Z"/>
        <path class="cls-11" d="M359.29,391.62l7.46.09-.09.32-3.13,10.69c-.07.23,0,.35.19.36,1.1.02,2.21.04,3.32.06,1.45.03,2.91-.14,4.47-1.17-.51,3.44-.25,6.53,1.21,9.13-.49.21-.94.42-1.4.59-1.77.67-3.52,1.03-5.2,1.04-2.43.02-4.84-.06-7.24-.1-1.95-.04-3.88-.09-5.82-.14h-.27s6.53-20.86,6.53-20.86Z"/>
      </g>
    </g>
    <g>
      <g>
        <polygon class="cls-16" points="391 204.64 279.18 187.84 307.53 41.56 413.63 60.93 391 204.64"/>
        <polygon class="cls-3" points="388.26 200.33 276.43 183.54 304.78 37.25 410.89 56.62 388.26 200.33"/>
        <rect class="cls-8" x="380.1" y="72.36" width="13.7" height="13.7" rx="2.06" ry="2.06" transform="translate(23.67 -75.8) rotate(11.54)"/>
        <rect class="cls-8" x="376.5" y="89.96" width="13.7" height="13.7" rx="2.06" ry="2.06" transform="translate(27.11 -74.73) rotate(11.54)"/>
        <rect class="cls-8" x="372.91" y="107.57" width="13.7" height="13.7" rx="2.06" ry="2.06" transform="translate(30.56 -73.65) rotate(11.54)"/>
        <rect class="cls-8" x="369.32" y="125.17" width="13.7" height="13.7" rx="2.06" ry="2.06" transform="translate(34.01 -72.58) rotate(11.54)"/>
        <rect class="cls-8" x="365.72" y="142.77" width="13.7" height="13.7" rx="2.06" ry="2.06" transform="translate(37.46 -71.5) rotate(11.54)"/>
        <path class="cls-9" d="M387.52,76.97c-3.76,3.43-5.06,8.65,7.32,3.22,3.8-1.34,5.92-2.57,5.92-2.57"/>
        <path class="cls-9" d="M383.46,94.03c-3.76,3.43-5.06,8.65,7.32,3.22,3.8-1.34,5.92-2.57,5.92-2.57"/>
        <path class="cls-9" d="M380.52,111.63c-3.76,3.43-5.06,8.65,7.32,3.22,3.8-1.34,5.92-2.57,5.92-2.57"/>
        <path class="cls-9" d="M377.14,129.23c-3.76,3.43-5.06,8.65,7.32,3.22,3.8-1.34,5.92-2.57,5.92-2.57"/>
        <path class="cls-9" d="M373.21,146.84c-3.76,3.43-5.06,8.65,7.32,3.22,3.8-1.34,5.92-2.57,5.92-2.57"/>
        <rect class="cls-1" x="336.99" y="121.51" width="4.13" height="78.46" rx=".52" ry=".52" transform="translate(118.65 464.41) rotate(-79.39)"/>
        <rect class="cls-1" x="334.55" y="131.57" width="4.13" height="78.46" rx=".52" ry=".52" transform="translate(106.77 470.22) rotate(-79.39)"/>
      </g>
      <polygon class="cls-17" points="353.96 177.46 235.87 159.73 265.81 5.26 377.85 25.71 353.96 177.46"/>
      <polygon class="cls-3" points="351.06 172.91 232.97 155.18 262.91 .71 374.96 21.16 351.06 172.91"/>
      <g>
        <g>
          <path d="M297.03,31.09l.63-3.1s.06,0,.09.01c1.6.33,3.2.65,4.8.98.85.18,1.66.46,2.4.93,1.24.78,1.89,1.91,2.02,3.34.08.84-.03,1.66-.21,2.48-.07.32-.14.65-.16.97-.05.65.29,1.13.92,1.35.31.11.62.17.95.16.58-.02.97-.3,1.19-.82.06-.15.11-.32.14-.48.21-1,.41-2,.61-2.99l.02-.1-.12-.02c-.82-.17-1.63-.33-2.45-.5-.04,0-.09-.02-.09-.02h0c-.02-.09-.03-.18-.04-.27-.1-.86-.37-1.66-.88-2.38-.25-.35-.54-.66-.88-.95l8.25,1.68s0,.05-.01.08c-.43,2.09-.85,4.18-1.28,6.27-.15.71-.39,1.38-.78,2-.66,1.03-1.62,1.58-2.85,1.7-.83.08-1.64-.03-2.45-.23-.57-.14-1.12-.34-1.63-.64-1.23-.71-1.85-1.79-1.97-3.17-.06-.71.05-1.4.27-2.07.14-.45.22-.9.18-1.37-.06-.75-.44-1.27-1.12-1.6-.29-.14-.61-.23-.92-.29-1.51-.31-3.01-.62-4.52-.92l-.12-.03h0Z"/>
          <path class="cls-11" d="M296.85,31.86l3.16.64-.02.11-.75,3.65c-.02.08.02.12.1.14.45.09.9.18,1.36.28.59.12,1.18.18,1.77-.07-.06,1.16.18,2.25.86,3.24-.19.03-.36.07-.53.1-.67.1-1.35.09-2.02-.03-.97-.17-1.93-.38-2.89-.57-.78-.16-1.56-.32-2.34-.48l-.11-.02,1.43-6.99Z"/>
        </g>
        <g>
          <path d="M330.78,34.87l-.2.97-1.82-.37-.37,1.8,1.82.37-.21,1.03c-.19,1.11-.83,1.52-1.91,1.22l-1.94-.4h0s-.01,0-.01,0c-.55-.18-.75-.58-.6-1.18l.71-3.47.94.19-.72,3.5,1.85.38c.25.02.41-.06.49-.25l.04-.2s0-.05,0-.07l-1.75-.36.51-2.52c.14-.81.54-1.15,1.2-1.03l1.94.4ZM325.92,41.01l1.02.21.21-1.02-1.02-.21-.21,1.02ZM327.37,41.3l1.02.21.21-1.02-1.02-.21-.21,1.02Z"/>
          <path d="M332.07,35.01c.56.08,1.07.3,1.53.65.49.45.79.95.89,1.51.1.56.09,1.07-.03,1.53l-.19.92-3.74-.76.19-.92,2.7.55.04-.19c.21-1.22-.32-1.98-1.58-2.28l.2-1Z"/>
        </g>
        <g>
          <path d="M316.91,33.34l-.64,3.12,1.36.28c.57.11.86,0,.89-.33l-.7-.14.19-.93,2.34.48-.19.93-.53-.11c-.32.89-.92,1.28-1.81,1.15l-1.7-.35c-.72-.14-1.03-.57-.93-1.29l.62-3.04,1.07.22ZM315.88,37.9l1.02.21-.21,1.02-1.02-.21.21-1.02ZM317.35,38.2l1.02.21-.21,1.02-1.02-.21.21-1.02Z"/>
          <path d="M321.32,32.97l1.79.37c.95.24,1.42.81,1.41,1.71l-.32,1.56-.19.93-4.1-.84.19-.93,2.91.59.27-1.31c.09-.35-.05-.62-.43-.81l-1.72-.35.19-.93ZM321.14,38.54l1.02.21.21-1.02-1.02-.21-.21,1.02Z"/>
        </g>
        <rect class="cls-11" x="314.01" y="41.57" width="19.35" height="3.02" transform="translate(15.16 -63.88) rotate(11.54)"/>
        <g>
          <path class="cls-2" d="M316.07,40.92l-.21,1.04c-.1.46-.35.64-.74.55l.06-.32c.17.03.28-.07.33-.3l.21-1.04.35.07ZM315.85,40.29l.33.07-.07.33-.33-.07.07-.33Z"/>
          <path class="cls-2" d="M316.77,41.07l-.21,1.04c-.1.46-.35.64-.74.55l.06-.32c.17.03.28-.07.33-.3l.21-1.04.35.07Z"/>
          <path class="cls-2" d="M317.96,41.31l-.19.95.15.03-.06.3-.15-.03c-.02.13-.07.24-.15.31-.11.09-.26.11-.44.06l-.46-.09.06-.32.5.1c.1.01.14-.03.14-.13-.26-.04-.43-.16-.51-.35-.08-.2-.06-.41.07-.64.13-.23.44-.3.92-.21l.12.03ZM317.56,41.55c-.27-.04-.41.07-.42.34.02.19.12.29.29.3l.13-.64Z"/>
          <path class="cls-2" d="M318.37,42.38l-.06.3-.52-.11.06-.3.52.11Z"/>
          <path class="cls-2" d="M318.83,42.48l-.06.3-.52-.11.06-.3.52.11Z"/>
          <path class="cls-2" d="M319.3,42.57l-.06.3-.52-.11.06-.3.52.11Z"/>
          <path class="cls-2" d="M319.77,42.67l-.06.3-.52-.11.06-.3.52.11Z"/>
          <path class="cls-2" d="M320.24,42.77l-.06.3-.52-.11.06-.3.52.11Z"/>
          <path class="cls-2" d="M320.71,42.86l-.06.3-.52-.11.06-.3.52.11Z"/>
          <path class="cls-2" d="M321.18,42.96l-.06.3-.52-.11.06-.3.52.11Z"/>
          <path class="cls-2" d="M321.65,43.05l-.06.3-.52-.11.06-.3.52.11Z"/>
          <path class="cls-2" d="M322.12,43.15l-.06.3-.52-.11.06-.3.52.11Z"/>
          <path class="cls-2" d="M322.59,43.24l-.06.3-.52-.11.06-.3.52.11Z"/>
          <path class="cls-2" d="M323.06,43.34l-.06.3-.52-.11.06-.3.52.11Z"/>
          <path class="cls-2" d="M323.52,43.44l-.06.3-.52-.11.06-.3.52.11Z"/>
          <path class="cls-2" d="M324.12,42.57l.36.07-.19.95-.06.3-.81-.17.06-.3.45.09.19-.95ZM323.8,41.92l.33.07-.07.33-.33-.07.07-.33ZM324.27,42.01l.33.07-.07.33-.33-.07.07-.33Z"/>
          <path class="cls-2" d="M325.7,42.89l-.19.95.15.03-.06.3-.15-.03c-.02.13-.07.24-.15.31-.11.09-.26.11-.44.06l-.46-.09.06-.32.5.1c.1.01.14-.03.14-.13-.26-.04-.43-.16-.51-.35-.08-.2-.06-.41.07-.64.13-.23.44-.3.92-.21l.12.03ZM325.29,43.13c-.27-.04-.41.07-.42.34.02.19.12.29.29.3l.13-.64Z"/>
          <path class="cls-2" d="M326.1,43.96l-.06.3-.52-.11.06-.3.52.11Z"/>
          <path class="cls-2" d="M326.57,44.06l-.06.3-.52-.11.06-.3.52.11Z"/>
          <path class="cls-2" d="M327.04,44.15l-.06.3-.52-.11.06-.3.52.11Z"/>
          <path class="cls-2" d="M327.51,44.25l-.06.3-.52-.11.06-.3.52.11Z"/>
          <path class="cls-2" d="M327.98,44.35l-.06.3-.52-.11.06-.3.52.11Z"/>
          <path class="cls-2" d="M328.45,44.44l-.06.3-.52-.11.06-.3.52.11Z"/>
          <path class="cls-2" d="M328.92,44.54l-.06.3-.52-.11.06-.3.52.11Z"/>
          <path class="cls-2" d="M329.39,44.63l-.06.3-.52-.11.06-.3.52.11Z"/>
          <path class="cls-2" d="M329.85,44.73l-.06.3-.52-.11.06-.3.52.11Z"/>
          <path class="cls-2" d="M330.32,44.82l-.06.3-.52-.11.06-.3.52.11Z"/>
          <path class="cls-2" d="M330.79,44.92l-.06.3-.52-.11.06-.3.52.11Z"/>
          <path class="cls-2" d="M331.26,45.02l-.06.3-.52-.11.06-.3.52.11Z"/>
          <path class="cls-2" d="M331.42,44.62c.08-.35.32-.49.7-.42l.34.07-.19.93c-.08.43-.33.59-.75.49l-.3-.06.06-.3-.12-.02.06-.3.12.02.08-.41ZM331.95,44.5c-.07,0-.12.02-.14.1l-.16.79.08.02c.08.01.13-.02.14-.11l.16-.78-.08-.02Z"/>
        </g>
      </g>
      <rect class="cls-1" x="308.16" y="14.45" width="4.36" height="82.76" rx=".47" ry=".47" transform="translate(198.34 350.59) rotate(-79.39)"/>
      <rect class="cls-1" x="305.82" y="27.4" width="4.36" height="82.76" rx=".7" ry=".7" transform="translate(183.7 358.86) rotate(-79.39)"/>
      <rect class="cls-1" x="303.36" y="40.33" width="4.36" height="82.73" rx=".46" ry=".46" transform="translate(168.99 366.98) rotate(-79.39)"/>
      <rect class="cls-1" x="300.95" y="53.29" width="4.36" height="82.71" rx=".42" ry=".42" transform="translate(154.31 375.17) rotate(-79.39)"/>
      <rect class="cls-1" x="298.59" y="66.18" width="4.36" height="82.8" rx=".6" ry=".6" transform="translate(139.66 383.41) rotate(-79.39)"/>
      <rect class="cls-1" x="296.22" y="79.1" width="4.36" height="82.85" rx=".55" ry=".55" transform="translate(125 391.64) rotate(-79.39)"/>
      <rect class="cls-1" x="306.29" y="105.56" width="4.34" height="57.7" rx=".54" ry=".54" transform="translate(119.57 412.85) rotate(-79.39)"/>
      <g>
        <path d="M256.13,150.88c-.21,0-.26-.07-.28-.1-.09-.12-.31-.68.46-2.76l.84-2.28c.23-.63-.08-1.32-.68-1.55-.08-.03-.17-.05-.26-.06-.3-.05-.65-.1-1.05-.15-.06,0-.13-.01-.19-.01-.39,0-.78.17-1.17.5-1.03.9-2.35,1.76-3.92,2.57-.09.04-.17.07-.24.07-.04,0-.15,0-.31-.19-.75-.92-1.17-2.13-1.26-3.59-.02-.26-.06-.86,1.35-1.14.66-.14,1.06-.58,1.13-1.25l.34-3.13c.04-.31.14-.41.46-.41h.65c.23,0,.26.03.26.26v3.82c0,1.06.56,1.18.8,1.18h0c.26,0,.54-.13.86-.41l4.22-3.63c.11-.09.2-.1.26-.1s.12.01.18.04l1.93.72c.13.05.27.08.41.08.34,0,.64-.17.85-.48.58-.88,1.5-1.72,2.73-2.5.06-.04.13-.06.19-.06.09,0,.17.04.24.1l.52.52s.04.06.04.07c0,.02,0,.05-.03.08l-4.35,4.36c-.19.19-.78.78-.56,1.38.21.61,1.03.69,1.29.72l33.15,3.59c.23.03.4.22.4.44v.66c0,.07,0,.11-.01.13-.01,0-.03,0-.06,0-.02,0-.05,0-.07,0l-33.22-3.6c-.07,0-.13-.01-.2-.01-.63,0-1.09.37-1.27,1.01-.8,2.84-1.53,3.78-2,4.07-1.4.87-2.1,1.05-2.44,1.05ZM258.43,140.45c-.1,0-.19.01-.28.04-.36.11-.74.39-1.18.87-.29.3-.41.61-.34.92.07.31.3.54.7.69.15.06.31.09.48.09.39,0,.81-.16,1.28-.49.4-.28.55-.7.44-1.17-.09-.35-.27-.61-.54-.78-.17-.11-.36-.17-.56-.17Z"/>
        <path d="M323.37,161.06c-.19,0-.38-.04-.54-.13-.01-.03-.05-.11-.06-.3,0-.13.04-.28.13-.46.41-.8.89-1.57,1.42-2.29.39-.54.73-1.1.5-1.54-.06-.11-.23-.37-.66-.37-.27,0-.62.1-1.1.3-2.02.83-4.2,2.04-6.47,3.59-.13.09-.28.14-.43.14-.25,0-.49-.13-.63-.33-.1-.15-.15-.33-.13-.52.39-4.07,1.93-7.45,4.57-10.03,1.24-1.22,2.69-1.89,4.1-1.89,1.95,0,3.54,1.3,4.34,3.58.21.62.61.72.82.72.25,0,.49-.12.73-.35.71-.68,1.38-1.11,2.01-1.27.07-.02.13-.03.17-.03.05,0,.11,0,.16.23.03.13.03.54-.5,1.6-.19.36-.21.67-.05.93.1.17.32.37.79.37.04,0,.07,0,.11,0,.61-.03,1.23-.05,1.83-.05,3.42,0,6.7.55,9.76,1.64.18.06.3.23.3.42v.69c0,.1-.08.19-.18.19-.02,0-.04,0-.06,0-3.24-1.12-6.69-1.69-10.25-1.69-1.36,0-2.77.08-4.18.25-.59.07-1.09.44-1.35.98-.83,1.79-2.25,3.57-4.21,5.29-.27.24-.6.37-.94.37ZM324.01,148.41c-.33,0-.67.05-1.02.16-.6.19-1.38.8-2.45,1.94-2.02,2.18-3.1,4.01-3.31,5.61-.04.29.01.52.16.69.13.14.31.22.51.22h0c.12,0,.24-.03.39-.08l8.5-3.26c.67-.26,1.03-1,.81-1.69-.71-2.32-1.98-3.6-3.59-3.6Z"/>
      </g>
    </g>
  </g>
</svg>