<svg width="18" height="18" viewBox="0 0 18 18" fill="none" xmlns="http://www.w3.org/2000/svg">
<g clip-path="url(#clip0_4_328)">
<path d="M13.1251 18C7.01331 18.1725 -3.80769 7.33875 1.39731 1.4535C1.41606 1.4355 2.21556 0.737999 2.21556 0.737999C2.7105 0.259529 3.3736 -0.00536624 4.06198 0.000385476C4.75036 0.00613719 5.40893 0.282075 5.89581 0.768749L7.51056 2.508C7.98576 3.00482 8.24854 3.66734 8.24308 4.35481C8.23762 5.04228 7.96435 5.70054 7.48131 6.18975L7.18956 6.48525C8.05673 8.4044 9.59059 9.94385 11.5066 10.818L11.8141 10.518C12.3138 10.0415 12.9779 9.77564 13.6684 9.77564C14.359 9.77564 15.023 10.0415 15.5228 10.518L17.2013 12.075C17.6993 12.56 17.9851 13.2222 17.9965 13.9172C18.0079 14.6122 17.7439 15.2835 17.2621 15.7845C17.2621 15.7845 16.5646 16.5848 16.5466 16.6035C16.0968 17.0508 15.5629 17.4045 14.9756 17.6442C14.3883 17.8839 13.7594 18.0048 13.1251 18ZM2.96256 3.075C-0.682438 7.58775 10.9823 18.5798 14.9288 15.0375C14.9288 15.0375 15.6218 14.2433 15.6406 14.2245C15.677 14.1907 15.706 14.1497 15.7258 14.1041C15.7457 14.0586 15.7559 14.0094 15.7559 13.9598C15.7559 13.9101 15.7457 13.8609 15.7258 13.8154C15.706 13.7698 15.677 13.7288 15.6406 13.695L13.9621 12.1395C13.7371 11.952 13.6111 11.9498 13.4011 12.1095L12.5498 12.9473C12.3961 13.0984 12.2022 13.2023 11.9912 13.2464C11.7802 13.2906 11.561 13.2732 11.3596 13.1963C9.86311 12.6396 8.50383 11.7678 7.37388 10.6398C6.24393 9.51178 5.36974 8.154 4.81056 6.6585C4.72893 6.45544 4.7083 6.23298 4.75119 6.01837C4.79409 5.80377 4.89865 5.60633 5.05206 5.45025L5.88381 4.605C5.92172 4.57158 5.9522 4.53059 5.97329 4.48466C5.99437 4.43874 6.0056 4.3889 6.00623 4.33837C6.00687 4.28784 5.9969 4.23774 5.97698 4.1913C5.95706 4.14486 5.92762 4.10311 5.89056 4.06875L4.27506 2.3295C4.20261 2.27171 4.11132 2.24279 4.0188 2.24833C3.92629 2.25387 3.8391 2.29347 3.77406 2.3595C3.75681 2.37825 2.96256 3.075 2.96256 3.075ZM17.7376 8.19975C18.0559 7.09882 18.0731 5.93266 17.7874 4.8228C17.5017 3.71295 16.9236 2.70004 16.1133 1.88964C15.3029 1.07923 14.2901 0.501004 13.1803 0.215211C12.0704 -0.0705818 10.9043 -0.0534748 9.80331 0.264749C9.66173 0.307002 9.52986 0.376727 9.41522 0.469945C9.30059 0.563162 9.20544 0.678046 9.1352 0.808036C9.06497 0.938027 9.02102 1.08058 9.00588 1.22755C8.99073 1.37453 9.00468 1.52304 9.04694 1.66462C9.08919 1.80621 9.15892 1.93808 9.25213 2.05271C9.34535 2.16735 9.46023 2.2625 9.59022 2.33274C9.72021 2.40297 9.86277 2.44692 10.0097 2.46206C10.1567 2.4772 10.3052 2.46325 10.4468 2.421C11.1588 2.21746 11.9122 2.20806 12.629 2.39377C13.3458 2.57948 13.9999 2.95355 14.5235 3.47718C15.047 4.00082 15.421 4.65496 15.6066 5.3718C15.7922 6.08864 15.7827 6.84208 15.5791 7.554C15.5369 7.69563 15.523 7.84419 15.5382 7.99118C15.5535 8.13817 15.5975 8.28072 15.6679 8.41068C15.7382 8.54065 15.8335 8.65548 15.9482 8.74862C16.063 8.84176 16.1949 8.91138 16.3366 8.9535C16.441 8.9843 16.5494 8.99996 16.6583 9C16.9004 8.99973 17.136 8.92136 17.3301 8.77651C17.5241 8.63166 17.6662 8.42807 17.7353 8.196L17.7376 8.19975ZM13.5481 8.2995C13.6526 8.19503 13.7355 8.07097 13.7921 7.93444C13.8487 7.7979 13.8778 7.65155 13.8778 7.50375C13.8778 7.35595 13.8487 7.2096 13.7921 7.07306C13.7355 6.93653 13.6526 6.81248 13.5481 6.708L12.7501 5.90925V4.875C12.7501 4.57663 12.6315 4.29048 12.4206 4.0795C12.2096 3.86853 11.9234 3.75 11.6251 3.75C11.3267 3.75 11.0405 3.86853 10.8296 4.0795C10.6186 4.29048 10.5001 4.57663 10.5001 4.875V6.375C10.5 6.52276 10.529 6.66909 10.5855 6.80563C10.642 6.94216 10.7249 7.06623 10.8293 7.17075L11.9543 8.29575C12.0588 8.40029 12.1828 8.48322 12.3194 8.53981C12.4559 8.59639 12.6023 8.62551 12.7501 8.62551C12.8979 8.62551 13.0442 8.59639 13.1807 8.53981C13.3173 8.48322 13.4413 8.40029 13.5458 8.29575L13.5481 8.2995Z" fill="white"/>
</g>
<defs>
<clipPath id="clip0_4_328">
<rect width="18" height="18" fill="white"/>
</clipPath>
</defs>
</svg>
