<svg width="72" height="73" viewBox="0 0 72 73" fill="none" xmlns="http://www.w3.org/2000/svg">
<path d="M71.007 36.503L62.367 12.746C60.354 7.217 55.05 3.5 49.167 3.5H22.833C16.95 3.5 11.646 7.217 9.633 12.746L0.993 36.503C0.333 38.312 0 40.208 0 42.14V46.997C0 51.17 2.466 54.752 6 56.444V61.997C6 66.131 9.363 69.497 13.5 69.497C17.637 69.497 21 66.131 21 61.997V57.497H51V61.997C51 66.131 54.363 69.497 58.5 69.497C62.637 69.497 66 66.131 66 61.997V56.444C69.534 54.752 72 51.17 72 46.997V42.14C72 40.208 71.667 38.312 71.007 36.503ZM12.45 13.772C14.031 9.422 18.207 6.5 22.833 6.5H49.164C53.79 6.5 57.966 9.422 59.547 13.772L64.539 27.5H7.458L12.45 13.772ZM18 62C18 64.481 15.981 66.5 13.5 66.5C11.019 66.5 9 64.481 9 62V57.347C9.495 57.419 9.987 57.5 10.5 57.5H18V62ZM45 54.5H27V51.5C27 49.847 28.344 48.5 30 48.5H42C43.656 48.5 45 49.847 45 51.5V54.5ZM63 62C63 64.481 60.981 66.5 58.5 66.5C56.019 66.5 54 64.481 54 62V57.5H61.5C62.013 57.5 62.505 57.419 63 57.347V62ZM69 47C69 51.134 65.637 54.5 61.5 54.5H48V51.5C48 48.191 45.309 45.5 42 45.5H30C26.691 45.5 24 48.191 24 51.5V54.5H10.5C6.363 54.5 3 51.134 3 47V42.143C3 41.249 3.111 40.37 3.285 39.5H10.5C11.328 39.5 12 38.828 12 38C12 37.172 11.328 36.5 10.5 36.5H4.185L6.366 30.5H65.631L67.812 36.5H61.497C60.669 36.5 59.997 37.172 59.997 38C59.997 38.828 60.669 39.5 61.497 39.5H68.712C68.886 40.367 68.997 41.249 68.997 42.143L69 47Z" fill="black"/>
</svg>
