<svg width="17" height="17" viewBox="0 0 17 17" fill="none" xmlns="http://www.w3.org/2000/svg">
<g clip-path="url(#clip0_4_319)">
<path d="M12.3959 14.875C11.0288 14.875 9.91675 13.7629 9.91675 12.3958C9.91675 11.0287 11.0288 9.91666 12.3959 9.91666C13.763 9.91666 14.8751 11.0287 14.8751 12.3958C14.8751 13.7629 13.763 14.875 12.3959 14.875ZM12.3959 10.625C11.4191 10.625 10.6251 11.4197 10.6251 12.3958C10.6251 13.3719 11.4191 14.1667 12.3959 14.1667C13.3727 14.1667 14.1667 13.3719 14.1667 12.3958C14.1667 11.4197 13.3727 10.625 12.3959 10.625Z" fill="white"/>
<path d="M12.3958 17C11.0032 17 9.70061 16.3802 8.82157 15.2986C7.94253 14.2177 7.60465 12.7996 7.89436 11.4091C8.25703 9.66946 9.66944 8.25704 11.4091 7.89508C12.7982 7.60396 14.2169 7.94254 15.2979 8.82229C16.3802 9.70063 17 11.004 17 12.3958V13.4583C17 14.2396 16.3646 14.875 15.5833 14.875C14.802 14.875 14.1667 14.2396 14.1667 13.4583V10.2708C14.1667 10.0753 14.3253 9.91667 14.5208 9.91667C14.7163 9.91667 14.875 10.0753 14.875 10.2708V13.4583C14.875 13.8486 15.1923 14.1667 15.5833 14.1667C15.9743 14.1667 16.2917 13.8486 16.2917 13.4583V12.3958C16.2917 11.2179 15.7668 10.1157 14.8516 9.37125C13.9372 8.6275 12.7358 8.34204 11.5536 8.58783C10.0859 8.89383 8.89382 10.086 8.58782 11.5536C8.34132 12.7344 8.62748 13.9365 9.37053 14.8516C10.115 15.7668 11.2179 16.2917 12.3958 16.2917C12.5913 16.2917 12.75 16.4503 12.75 16.6458C12.75 16.8413 12.5913 17 12.3958 17Z" fill="white"/>
<path d="M6.72917 10.625H1.41667C0.635375 10.625 0 9.98962 0 9.20833V2.125C0 1.34371 0.635375 0.708332 1.41667 0.708332H14.1667C14.948 0.708332 15.5833 1.34371 15.5833 2.125V6.72917C15.5833 6.92467 15.4247 7.08333 15.2292 7.08333C15.0337 7.08333 14.875 6.92467 14.875 6.72917V2.125C14.875 1.73471 14.5577 1.41667 14.1667 1.41667H1.41667C1.02567 1.41667 0.708333 1.73471 0.708333 2.125V9.20833C0.708333 9.59862 1.02567 9.91667 1.41667 9.91667H6.72917C6.92467 9.91667 7.08333 10.0753 7.08333 10.2708C7.08333 10.4663 6.92467 10.625 6.72917 10.625Z" fill="white"/>
<path d="M7.79162 6.78442C7.53237 6.78442 7.27312 6.72562 7.03654 6.60875L0.196871 3.2215C0.0212041 3.13508 -0.0496292 2.92187 0.0367875 2.74692C0.124621 2.57054 0.337829 2.50112 0.511371 2.58612L7.35033 5.97337C7.62729 6.11008 7.95595 6.11008 8.23291 5.97337L15.0719 2.58612C15.2461 2.50042 15.4586 2.57054 15.5465 2.74692C15.6329 2.92187 15.5613 3.13437 15.3857 3.2215L8.5467 6.60875C8.31012 6.72562 8.05087 6.78442 7.79162 6.78442Z" fill="white"/>
</g>
<defs>
<clipPath id="clip0_4_319">
<rect width="17" height="17" fill="white"/>
</clipPath>
</defs>
</svg>
