<svg width="21" height="21" viewBox="0 0 21 21" fill="none" xmlns="http://www.w3.org/2000/svg">
<g clip-path="url(#clip0_4_312)">
<path d="M14.5195 9.59775C12.8233 9.59775 11.4434 8.2178 11.4434 6.52158C11.4434 4.82536 12.8233 3.44541 14.5195 3.44541C16.2157 3.44541 17.5957 4.82536 17.5957 6.52158C17.5957 8.2178 16.2157 9.59775 14.5195 9.59775ZM14.5195 5.08604C13.7279 5.08604 13.084 5.73011 13.084 6.52158C13.084 7.31322 13.7279 7.95713 14.5195 7.95713C15.3112 7.95713 15.9551 7.31322 15.9551 6.52158C15.9551 5.73011 15.3112 5.08604 14.5195 5.08604ZM9.36357 15.8318L12.4365 12.6932C13.1178 12.9251 13.8013 13.0427 14.4748 13.0431H14.4783C15.4986 13.0431 16.4956 12.7992 17.4417 12.3182C17.8456 12.1128 18.0065 11.6191 17.8013 11.2153C17.5959 10.8114 17.1021 10.6505 16.6982 10.8558C15.9847 11.2185 15.2378 11.4024 14.4783 11.4024C14.4775 11.4024 14.4766 11.4024 14.4758 11.4024C13.8498 11.4021 13.2022 11.2602 12.5508 10.9806C12.2395 10.847 11.878 10.9184 11.6411 11.1605L9.59765 13.2475V6.55731C9.59765 5.24305 10.1166 4.00313 11.0588 3.06586C11.9831 2.14621 13.1969 1.64073 14.4791 1.64073C14.4876 1.64073 14.4963 1.64073 14.5048 1.64089C15.8144 1.64762 17.0415 2.16464 17.9599 3.09662C18.8744 4.02444 19.3714 5.2525 19.3592 6.55443C19.3526 7.25522 19.1934 7.96114 18.8986 8.59608C18.7076 9.00687 18.8861 9.49473 19.297 9.68555C19.7078 9.87637 20.1957 9.69789 20.3865 9.28709C20.7789 8.44195 20.991 7.50227 20.9997 6.56965C21.016 4.82825 20.3514 3.18586 19.1283 1.94498C17.9016 0.699932 16.2624 0.0093954 14.5133 0.000263043C12.7836 -0.00886934 11.1441 0.666767 9.90174 1.90268C8.64772 3.15013 7.95703 4.80325 7.95703 6.55731V15.2579C7.95703 15.5913 8.15874 15.8914 8.46748 16.0175C8.56778 16.0584 8.67288 16.0782 8.77718 16.0782C8.99363 16.0782 9.20608 15.9925 9.36357 15.8318ZM21 17.7188C21 15.9095 19.5281 14.4376 17.7187 14.4376H13.0019C12.5489 14.4376 12.1816 14.8048 12.1816 15.2579C12.1816 15.711 12.5489 16.0782 13.0019 16.0782H17.7187C18.6233 16.0782 19.3594 16.8143 19.3594 17.7188C19.3594 18.6234 18.6233 19.3595 17.7187 19.3595H3.28125C2.37666 19.3595 1.64062 18.6234 1.64062 17.7188C1.64062 16.8143 2.37666 16.0782 3.28125 16.0782H5.49609C5.94919 16.0782 6.3164 15.711 6.3164 15.2579C6.3164 14.8048 5.94919 14.4376 5.49609 14.4376H3.28125C1.47192 14.4376 0 15.9095 0 17.7188C0 19.5282 1.47192 21.0001 3.28125 21.0001H17.7187C19.5281 21.0001 21 19.5282 21 17.7188Z" fill="white"/>
</g>
<defs>
<clipPath id="clip0_4_312">
<rect width="21" height="21" fill="white"/>
</clipPath>
</defs>
</svg>
