<svg width="72" height="73" viewBox="0 0 72 73" fill="none" xmlns="http://www.w3.org/2000/svg">
<g clip-path="url(#clip0_144_682)">
<path d="M35.9999 72.5001C31.3829 72.5001 27.0299 70.4721 24.0539 66.9381C23.7689 66.5991 23.3969 66.4431 22.9259 66.4731C18.3419 66.8541 13.8089 65.2221 10.5449 61.9581C7.28093 58.6941 5.63393 54.1821 6.02993 49.5771C6.06893 49.1361 5.90093 48.7341 5.56493 48.4521C2.02793 45.4731 0.00292969 41.1171 0.00292969 36.5031C0.00292969 31.8891 2.03093 27.5331 5.56493 24.5571C5.90393 24.2721 6.07193 23.8701 6.03293 23.4291C5.63693 18.8241 7.28393 14.3121 10.5479 11.0481C13.8089 7.7871 18.2999 6.1341 22.9289 6.5331C23.3639 6.5691 23.7719 6.4071 24.0569 6.0681C27.0329 2.5311 31.3859 0.506104 36.0029 0.506104C40.6199 0.506104 44.9729 2.5341 47.9489 6.0681C48.2369 6.4071 48.6089 6.5631 49.0769 6.5331C53.6399 6.1311 58.1939 7.7841 61.4579 11.0481C64.7219 14.3121 66.3689 18.8241 65.9729 23.4291C65.9339 23.8701 66.1019 24.2721 66.4379 24.5541C69.9749 27.5331 71.9999 31.8891 71.9999 36.5031C71.9999 41.1171 69.9719 45.4731 66.4379 48.4491C66.0989 48.7341 65.9309 49.1361 65.9699 49.5771C66.3659 54.1821 64.7189 58.6941 61.4549 61.9581C58.1939 65.2191 53.7089 66.8781 49.0739 66.4731C48.6419 66.4491 48.2309 66.6021 47.9459 66.9381C44.9699 70.4751 40.6169 72.5001 35.9999 72.5001ZM23.0579 63.4641C24.3329 63.4641 25.5149 64.0131 26.3519 65.0061C28.7549 67.8621 32.2739 69.5001 36.0029 69.5001C39.7319 69.5001 43.2509 67.8621 45.6539 65.0061C46.5719 63.9141 47.9249 63.3441 49.3379 63.4821C53.0609 63.7971 56.7029 62.4711 59.3399 59.8341C61.9769 57.1971 63.3059 53.5521 62.9879 49.8291C62.8679 48.4071 63.4229 47.0691 64.5149 46.1511C67.3679 43.7451 69.0059 40.2261 69.0059 36.5001C69.0059 32.7741 67.3679 29.2521 64.5119 26.8461C63.4229 25.9311 62.8679 24.5901 62.9879 23.1681C63.3059 19.4451 61.9769 15.8001 59.3399 13.1631C56.6999 10.5261 53.0309 9.1941 49.3379 9.5151C47.8979 9.6351 46.5749 9.0831 45.6539 7.9911C43.2509 5.1351 39.7319 3.4971 36.0029 3.4971C32.2739 3.4971 28.7549 5.1351 26.3519 7.9911C25.4309 9.0831 24.0659 9.6321 22.6679 9.5151C18.9389 9.1941 15.3029 10.5261 12.6659 13.1631C10.0289 15.8001 8.69993 19.4451 9.01793 23.1681C9.13793 24.5901 8.58293 25.9281 7.49093 26.8461C4.63793 29.2521 2.99993 32.7711 2.99993 36.4971C2.99993 40.2231 4.63793 43.7451 7.49393 46.1511C8.58293 47.0661 9.13793 48.4071 9.01793 49.8291C8.69993 53.5521 10.0289 57.1971 12.6659 59.8341C15.3029 62.4711 18.9629 63.7881 22.6679 63.4821C22.7999 63.4701 22.9289 63.4641 23.0579 63.4641ZM26.9999 24.5001C25.3439 24.5001 23.9999 25.8441 23.9999 27.5001C23.9999 29.1561 25.3439 30.5001 26.9999 30.5001C28.6559 30.5001 29.9999 29.1561 29.9999 27.5001C29.9999 25.8441 28.6559 24.5001 26.9999 24.5001ZM44.9999 42.5001C43.3439 42.5001 41.9999 43.8441 41.9999 45.5001C41.9999 47.1561 43.3439 48.5001 44.9999 48.5001C46.6559 48.5001 47.9999 47.1561 47.9999 45.5001C47.9999 43.8441 46.6559 42.5001 44.9999 42.5001ZM29.7479 49.3311L44.7479 26.8311C45.2069 26.1411 45.0209 25.2111 44.3309 24.7521C43.6469 24.2961 42.7139 24.4791 42.2519 25.1691L27.2519 47.6691C26.7929 48.3591 26.9789 49.2891 27.6689 49.7481C27.9239 49.9191 28.2149 50.0001 28.4999 50.0001C28.9829 50.0001 29.4569 49.7661 29.7479 49.3311Z" fill="black"/>
</g>
<defs>
<clipPath id="clip0_144_682">
<rect width="72" height="72" fill="white" transform="translate(0 0.5)"/>
</clipPath>
</defs>
</svg>
