<svg width="72" height="73" viewBox="0 0 72 73" fill="none" xmlns="http://www.w3.org/2000/svg">
<g clip-path="url(#clip0_144_680)">
<path d="M69 12.5H64.5C63.675 12.5 63 11.825 63 11C63 10.175 63.675 9.49999 64.5 9.49999H69C70.77 9.49999 71.565 8.71699 71.922 8.05999C72.48 7.03099 72.168 5.89099 71.736 5.23099C69.393 1.66399 65.154 -0.11501 60.918 0.70399C56.754 1.51399 53.445 4.86499 52.683 9.03799C52.656 9.19399 52.632 9.34699 52.614 9.49999H19.611C19.593 9.34699 19.572 9.19399 19.542 9.03799C18.783 4.86199 15.471 1.51099 11.307 0.70099C7.07101 -0.11501 2.83501 1.65799 0.489009 5.22799C0.0540092 5.88799 -0.257991 7.02799 0.300009 8.05699C0.591009 8.59699 1.35601 9.49699 3.22201 9.49699H7.50001C8.32801 9.49699 9.00001 10.172 9.00001 10.997C9.00001 11.822 8.32801 12.497 7.50001 12.497H3.22201C1.35601 12.497 0.591009 13.4 0.300009 13.937C-0.257991 14.969 0.0540092 16.109 0.489009 16.766C2.45701 19.757 5.75401 21.488 9.25801 21.488C9.93601 21.488 10.623 21.425 11.307 21.293C15.474 20.483 18.783 17.132 19.545 12.953C19.572 12.8 19.593 12.647 19.614 12.497H52.614C52.632 12.65 52.653 12.806 52.683 12.959C53.445 17.135 56.754 20.486 60.918 21.293C61.605 21.425 62.292 21.488 62.97 21.488C66.474 21.488 69.774 19.757 71.739 16.766C72.174 16.103 72.483 14.963 71.925 13.937C71.571 13.277 70.773 12.497 69.003 12.497L69 12.5ZM16.683 11.003C16.683 11.471 16.68 11.939 16.593 12.422C16.059 15.35 13.653 17.786 10.734 18.353C7.81801 18.917 4.99201 17.831 3.26101 15.503H7.50001C9.98101 15.503 12 13.484 12 11.003C12 8.52199 9.98101 6.50299 7.50001 6.50299H3.25801C4.99201 4.17199 7.81801 3.08299 10.734 3.65299C13.65 4.21699 16.059 6.65599 16.59 9.57799C16.677 10.061 16.683 10.532 16.683 11.009V11.003ZM61.488 18.35C58.572 17.786 56.166 15.347 55.632 12.422C55.542 11.936 55.539 11.468 55.539 10.997C55.539 10.526 55.539 10.061 55.632 9.57199C56.166 6.64699 58.572 4.21099 61.488 3.64399C62.001 3.54499 62.508 3.49399 63.009 3.49399C65.364 3.49399 67.536 4.57099 68.961 6.49399H64.5C62.019 6.49399 60 8.51299 60 10.994C60 13.475 62.019 15.494 64.5 15.494H68.964C67.233 17.825 64.401 18.917 61.488 18.344V18.35ZM60.258 28.301C57.858 24.107 53.367 21.497 48.537 21.497H23.463C18.633 21.497 14.142 24.104 11.742 28.301L5.56801 39.104C3.88501 42.047 3.00001 45.395 3.00001 48.782V53C3.00001 57.179 5.45701 60.797 9.00001 62.486V65C9.00001 69.137 12.366 72.5 16.5 72.5C20.634 72.5 24 69.137 24 65V63.5H48V65C48 69.137 51.363 72.5 55.5 72.5C59.637 72.5 63 69.137 63 65V62.486C66.543 60.797 69 57.179 69 53V48.782C69 45.392 68.112 42.047 66.432 39.104L60.258 28.301ZM14.346 29.789C16.212 26.525 19.707 24.497 23.463 24.497H48.534C52.293 24.497 55.785 26.525 57.648 29.789L63.822 40.592C64.173 41.207 64.485 41.846 64.755 42.5H7.24201C7.51201 41.846 7.82101 41.21 8.17201 40.592L14.346 29.789ZM21 64.997C21 67.478 18.981 69.497 16.5 69.497C14.019 69.497 12 67.478 12 64.997V63.389C12.489 63.458 12.99 63.497 13.5 63.497H21V64.997ZM60 64.997C60 67.478 57.981 69.497 55.5 69.497C53.019 69.497 51 67.478 51 64.997V63.497H58.5C59.01 63.497 59.511 63.461 60 63.389V64.997ZM66 52.997C66 57.134 62.637 60.497 58.5 60.497H13.5C9.36601 60.497 6.00001 57.134 6.00001 52.997V48.779C6.00001 47.675 6.11401 46.574 6.33301 45.497H15V49.997C15 50.825 15.672 51.497 16.5 51.497C17.328 51.497 18 50.825 18 49.997V45.497H54V49.997C54 50.825 54.672 51.497 55.5 51.497C56.328 51.497 57 50.825 57 49.997V45.497H65.667C65.886 46.574 66 47.672 66 48.779V52.997Z" fill="black"/>
</g>
<defs>
<clipPath id="clip0_144_680">
<rect width="72" height="72" fill="white" transform="translate(0 0.5)"/>
</clipPath>
</defs>
</svg>
