<?xml version="1.0" encoding="UTF-8"?>
<svg id="Layer_2" xmlns="http://www.w3.org/2000/svg" xmlns:xlink="http://www.w3.org/1999/xlink" viewBox="0 0 1664.24 874.16">
  <defs>
    <style>
      .cls-1 {
        fill: #b32c52;
      }

      .cls-2 {
        fill: #d10019;
      }

      .cls-3 {
        mask: url(#mask-5);
      }

      .cls-4 {
        mask: url(#mask-1);
      }

      .cls-5 {
        mask: url(#mask-10);
      }

      .cls-6 {
        mask: url(#mask-6);
      }

      .cls-7 {
        fill: #777378;
      }

      .cls-8 {
        mask: url(#mask-7);
      }

      .cls-9 {
        fill: #f799a2;
      }

      .cls-10 {
        fill: #fff;
      }

      .cls-11 {
        mask: url(#mask);
      }

      .cls-12 {
        fill: #f4f5f9;
      }

      .cls-13 {
        fill: #44171d;
      }

      .cls-14 {
        fill: none;
      }

      .cls-15 {
        fill: #303030;
      }

      .cls-16 {
        mask: url(#mask-8);
      }

      .cls-17 {
        fill: #b2b2b2;
      }

      .cls-18 {
        mask: url(#mask-2);
      }

      .cls-19 {
        fill: #8e8e8e;
      }

      .cls-20 {
        mask: url(#mask-9);
      }

      .cls-21 {
        fill: #d7dce8;
      }

      .cls-22 {
        fill: #bfbfbf;
      }

      .cls-23 {
        fill: #223a61;
      }

      .cls-24, .cls-25 {
        fill: #3d3d3d;
      }

      .cls-24, .cls-26 {
        opacity: .5;
      }

      .cls-27 {
        fill: #666;
      }

      .cls-28 {
        fill: #f7f9f8;
      }

      .cls-29 {
        fill: #d93664;
      }

      .cls-30 {
        fill: #878787;
      }

      .cls-31 {
        fill: #ed2938;
      }

      .cls-32 {
        fill: #2b2b2b;
      }

      .cls-33 {
        fill: #1d1d1b;
      }

      .cls-34 {
        mask: url(#mask-11);
      }

      .cls-35 {
        fill: #828282;
      }

      .cls-36 {
        fill: #565656;
      }

      .cls-37 {
        fill: #3c3c3b;
      }

      .cls-38 {
        mask: url(#mask-4);
      }

      .cls-39 {
        fill: #dadada;
      }

      .cls-26 {
        fill: #c66536;
      }

      .cls-40 {
        clip-path: url(#clippath);
      }

      .cls-41 {
        fill: #e6e7e8;
      }

      .cls-42 {
        fill: #f18e4f;
      }

      .cls-43 {
        mask: url(#mask-3);
      }
    </style>
    <mask id="mask" x="660.22" y="0" width="943.52" height="874.16" maskUnits="userSpaceOnUse">
      <g id="mask0_830_4862">
        <path class="cls-10" d="M1509.36,327.81h-754.8v245.84h754.8v-245.84Z"/>
      </g>
    </mask>
    <mask id="mask-1" x="754.55" y="327.82" width="754.8" height="245.84" maskUnits="userSpaceOnUse">
      <g id="mask1_830_4862">
        <path class="cls-10" d="M1509.36,327.82h-754.8v245.84h754.8v-245.84Z"/>
      </g>
    </mask>
    <mask id="mask-2" x="660.22" y="0" width="943.52" height="874.16" maskUnits="userSpaceOnUse">
      <g id="mask2_830_4862">
        <path class="cls-10" d="M1182.15,327.81c-23.19-.13-46.36,1.04-69.41,3.5-21.97,3.13-43.47,8.98-63.99,17.43-10.41,4.48-63.69,27.92-87.62,43.16-4.79,3.05-9.69,5.99-14.67,8.71-1.96,1.07-11.78,1.34-14.67,1.51-32.03,1.89-88.86,10.23-131.51,27.38-9.9,4.14-19.58,8.78-29,13.9-3.54,2.35-9.25,5.45-10.53,9.85-.29.92-.28,1.91.03,2.82.31.91.9,1.71,1.69,2.26,1.48,1.35,1.38,2.67,1.13,4.61-1.26,10.08-2.46,20.08-3.51,30.19-.85,8.25-2.83,29.49-3.58,30.66-1.13,1.49-1.81,3.27-1.95,5.14,0,.4.04.81.13,1.2.64,2,1.7,3.84,3.1,5.41,1.4,1.57,3.11,2.83,5.02,3.69,8.48,3.18,47.72,6.21,69.35,7.03,1.73.06,2.46-.94,2.09-2.34-6.28-23.93-4.37-45.75,7.64-63.44,5.26-7.69,12.24-14.04,20.38-18.57,8.14-4.53,17.22-7.11,26.52-7.53,27.86-1.51,55.87,15.25,65.58,47.56,3.45,11.49,3.61,28.81,2.98,40.83h335.34c.03-.93-.09-1.9-.12-2.51-1.6-33.59,4.69-46.82,13.37-58.31,8.55-11.31,22.24-24.41,52.7-23.64,32.96.83,49.62,27.19,53.32,35.71,5.1,12.05,8,24.92,8.55,38-.1,2.15.2,4.3.87,6.35,1.4,1.82,6.58,1.03,8.99.77,14.62-1.58,29.16-3.91,43.55-6.97,7.85-1.51,15.57-3.63,23.09-6.35,2.33-1.42,4.34-3.31,5.9-5.54,1.56-2.24,2.65-4.77,3.18-7.44.8-7.83,2.77-31.1,3.24-43.93.06-1.72-1.1-2.44-2.06-3.23-2.52-2.06-12.03-11.14-13.26-15.84-1.35-5.13-1.92-10.44-2.84-15.66-.73-1.98-.79-4.14-.18-6.15,1.22-2.44,6.84-11.31,7.28-13.75.25-2.67.19-5.35-.19-8-.16-2.59-.01-5.2.45-7.76.62-3.3,2.81-7.66-1.91-7.72-2.59-.04-19.09-.07-24.72-.42-11.27-.61-22.47-2.26-33.44-4.93-10.5-2.83-20.76-6.48-30.68-10.91-10.35-4.39-55.4-20.64-60.29-22.24-42.77-14.05-82.75-19.37-132.67-23.45-8.44-.71-19.61-1.03-31.65-1.03h-1.03Z"/>
      </g>
    </mask>
    <mask id="mask-3" x="754.55" y="327.58" width="755.29" height="246.07" maskUnits="userSpaceOnUse">
      <g id="mask3_830_4862">
        <path class="cls-10" d="M1509.36,327.82h-754.8v245.84h754.8v-245.84Z"/>
      </g>
    </mask>
    <mask id="mask-4" x="770.55" y="438.97" width="91.78" height="34.56" maskUnits="userSpaceOnUse">
      <g id="mask4_830_4862">
        <path class="cls-10" d="M819.29,439.6c-6.8,1.78-13.44,4.13-19.84,7.02-8.86,3.41-17.51,7.35-25.89,11.81-2.55,1.48-3.01,2.08-2.17,4.82.78,2.4,1.73,4.74,2.86,6.99,1.69,3.28,5.06,2.56,8.18,2.39,13.49-1.03,26.82-3.5,39.79-7.36,14.72-4.44,28.31-11.22,33.49-15.71,2.12-1.84,6.62-4.89,3.17-5.91-6.81-1.71-13.74-2.95-20.72-3.72-3.91-.58-7.86-.91-11.81-.97-2.36-.03-4.72.18-7.05.63Z"/>
      </g>
    </mask>
    <clipPath id="clippath">
      <path class="cls-14" d="M862.32,438.97h-91.78v34.56h91.78v-34.56Z"/>
    </clipPath>
    <mask id="mask-5" x="754.55" y="327.82" width="754.8" height="245.84" maskUnits="userSpaceOnUse">
      <g id="mask5_830_4862">
        <path class="cls-10" d="M1509.36,327.82h-754.8v245.84h754.8v-245.84Z"/>
      </g>
    </mask>
    <mask id="mask-6" x="929.64" y="410.31" width="487.32" height="37.15" maskUnits="userSpaceOnUse">
      <g id="mask6_830_4862">
        <path class="cls-10" d="M1391.67,410.51c-8.4.11-95.61,3-175.83,6.74-66.82,3.11-133.77,7.05-200.48,11.97-16.58,1.22-66.56,5.82-74.44,6.73-2.7.31-11.27,1.89-7.17,5.72,2.68,2.5,7.41,3.31,10.89,4.01,6.14,1.22,12.38,1.8,18.64,1.74,16.04-.14,31.06-3.76,46.85-6.23,16.15-2.52,40.94-5.79,57.2-7.29,34.43-3.2,282.01-19.91,333.19-20.71,6.75-.1,16.44-.5,13.87-1.89-4.15-.84-8.4-1.14-12.63-.89-4.1,0-8.08.09-10.09.12"/>
      </g>
    </mask>
    <mask id="mask-7" x="754.55" y="327.82" width="754.8" height="245.84" maskUnits="userSpaceOnUse">
      <g id="mask7_830_4862">
        <path class="cls-10" d="M1509.36,327.82h-754.8v245.84h754.8v-245.84Z"/>
      </g>
    </mask>
    <mask id="mask-8" x="967.11" y="336.74" width="390.95" height="70.38" maskUnits="userSpaceOnUse">
      <g id="mask8_830_4862">
        <path class="cls-10" d="M1119.86,339.7c-25.41,3.59-54.09,13.35-72.17,20.76-24.36,10.1-48.02,21.81-70.83,35.04-1.83,1.05-9.73,5.88-6.72,7.79,2.97.9,6.05,1.41,9.15,1.52,3.4.35,37.29,2.3,50.86,1.78,5.68-.21,221.12-7.15,251.58-10.45,13.63-1.48,27.68-2.7,40.9-6.59,10.31-3.51,20.33-7.82,29.97-12.89,2.76-1.89,5.48-4.33,1.93-5.79-22.5-9.28-48.71-19.12-74.54-24.18-26.19-4.79-52.67-7.75-79.27-8.87-11.56-.63-23.17-1.08-34.75-1.08-15.42-.09-30.82.89-46.1,2.96Z"/>
      </g>
    </mask>
    <mask id="mask-9" x="1021.44" y="337.12" width="144.33" height="89.16" maskUnits="userSpaceOnUse">
      <g id="mask9_830_4862">
        <path class="cls-10" d="M1029.99,387.81c-.75.44-.97.89-.73,1.52,1.16,2.57,2.53,5.03,4.1,7.37,1.53,3.01,2.16,6.4,1.82,9.76l12.57-.42c-1.19-2.81-2.41-5.61-3.67-8.4-1.17-2.59-5.41-11.09-3.52-12.14,4.93-2.72,8.77,9.16,10.12,12.19,1.2,2.7,2.31,5.43,3.49,8.12,22.48-.76,57.92-1.98,94.37-3.34.16-3.26.31-6.53.48-9.79-.03-.42-.2-.82-.49-1.12-.29-.3-.68-.49-1.1-.53-3.35-.47-7.66-2.79-7.2-6.56.47-3.76,1.35-7.51,2.16-11.23.69-3.17,1.13-7,3.45-9.46,2.57-2.72,7.47-2.74,10.93-2.84.92-.02,1.07-.23,1.17-.94.02-.14.13-1.17.15-1.42.1-1.13-.24-1.51-.87-1.55-.21,0-.7-.04-.79-.04-1.9-.04-3.81-.06-5.71-.06-42.08,0-84.28,9.57-120.7,30.87"/>
      </g>
    </mask>
    <mask id="mask-10" x="1177.07" y="336.73" width="146.49" height="84.82" maskUnits="userSpaceOnUse">
      <g id="mask10_830_4862">
        <path class="cls-10" d="M1188.41,357.41c-2.17.69-2.14,2.05-2.48,4.38-.63,4.46-1.8,29.2-2.13,39.32,45.25-1.79,85.91-3.66,97.92-4.97,9.65-1.05,19.49-1.96,29.11-3.79.03-.22.07-.42.13-.62.35-1.45,5.83-10.95,3.46-11.64-20.69-10.1-43.58-15.02-66.16-18.6-12.11-1.91-24.32-3.14-36.57-3.68-4.07-.18-13.69-.59-19.25-.59-1.34-.06-2.69.01-4.02.2"/>
      </g>
    </mask>
    <mask id="mask-11" x="754.55" y="327.82" width="754.8" height="245.84" maskUnits="userSpaceOnUse">
      <g id="mask11_830_4862">
        <path class="cls-10" d="M1509.36,327.82h-754.8v245.84h754.8v-245.84Z"/>
      </g>
    </mask>
  </defs>
  <g id="Layer_1-2" data-name="Layer_1">
    <g>
      <path class="cls-25" d="M622.58,539.18c-.4-.23-.66-.66-.64-1.15.02-.71.62-1.26,1.32-1.24l169.17,5.63c.71.02,1.26.62,1.24,1.32-.02.71-.62,1.26-1.32,1.24l-169.16-5.63c-.22,0-.42-.07-.6-.17Z"/>
      <g>
        <g>
          <path class="cls-15" d="M653.57,531.4c0,22.3-18.08,40.38-40.38,40.38s-40.38-18.08-40.38-40.38,18.08-40.38,40.38-40.38,40.38,18.08,40.38,40.38Z"/>
          <path class="cls-36" d="M640.75,531.4c0,15.22-12.34,27.56-27.56,27.56s-27.56-12.34-27.56-27.56,12.34-27.56,27.56-27.56,27.56,12.34,27.56,27.56Z"/>
        </g>
        <path class="cls-25" d="M1643.61,307.64h0c-1.93-1.23-4.49-.66-5.71,1.26l-139.04,217.96c-1.23,1.93-.66,4.49,1.26,5.72h0c1.93,1.23,4.49.66,5.71-1.26l139.04-217.96c1.23-1.93.66-4.49-1.26-5.72Z"/>
        <polygon class="cls-41" points="1648.61 259.44 1634.66 259.44 1617.35 607.19 1648.61 607.19 1648.61 259.44"/>
        <path class="cls-41" d="M1664.24,588.84v28.22c0,1.19-.15,2.35-.45,3.46-1.52,5.79-6.81,10.07-13.08,10.07H480.95v-55.27h1169.76c7.47,0,13.53,6.05,13.53,13.52Z"/>
        <path class="cls-27" d="M631.09,630.6h-96.58v-240.33c12.93,0,25.18,3.26,35.91,9.02,21.12,11.35,36.37,32.45,39.46,57.7l21.21,173.62Z"/>
        <path class="cls-41" d="M1490.99,630.6v10.47c0,23.13-18.75,41.89-41.9,41.89h-873.8v-52.37h915.7Z"/>
        <rect class="cls-19" x="290.63" y="625.63" width="190.32" height="57.33"/>
        <rect class="cls-27" x="445.56" y="448.37" width="10.28" height="241.13"/>
        <path class="cls-41" d="M445.56,248.36v434.6H22.05v-196.81s1.61-15.64,6.1-40.19c8.71-47.62,28.21-128.78,67.71-194.59.27-.45.53-.88.82-1.32,14.12-22.52,38.83-36.26,65.48-36.26h248.84c19.1,0,34.58,15.48,34.58,34.58Z"/>
        <path class="cls-12" d="M445.56,558.08v124.88h-248.72l11.6-39.32,11.04-37.42c8.38-28.34,34.85-48.13,64.39-48.13h161.69Z"/>
        <polygon class="cls-12" points="208.44 642.41 208.44 643.64 196.84 682.96 22.05 682.96 22.05 642.41 208.44 642.41"/>
        <path class="cls-27" d="M38.46,627.38v-7.44c0-4.49-3.64-8.13-8.13-8.13H12.32c-6.81,0-12.32,5.52-12.32,12.32v47.38c0,8.24,6.68,14.92,14.92,14.92h62.49c6.56,0,11.88-5.32,11.88-11.88v-29.11c0-5.44-4.41-9.86-9.86-9.86h-32.79c-4.53,0-8.19-3.67-8.19-8.19Z"/>
        <path class="cls-27" d="M40.66,520.25v50.97c0,2.76-2.24,5-5,5h-14.75c-.83,0-1.51-.68-1.51-1.51v-45.93c0-4.12,1.99-8.03,5.43-10.29,3.11-2.04,6.83-3.23,10.83-3.23,2.75,0,5.01,2.24,5.01,5Z"/>
        <path class="cls-19" d="M1663.8,620.52c-1.52,5.79-6.81,10.07-13.08,10.07H605.21v-10.07h1058.58Z"/>
        <g>
          <path class="cls-19" d="M445.56,584.64v98.32h-221.04l20.43-69.23c5.1-17.25,20.94-29.09,38.92-29.09h161.69Z"/>
          <g>
            <circle class="cls-32" cx="345.04" cy="700.33" r="110.81"/>
            <circle cx="345.04" cy="700.33" r="93.14"/>
            <path class="cls-24" d="M407.32,702.37c0,4.54-.52,8.97-1.5,13.22-1.48,6.34-3.98,12.28-7.33,17.64-4.72,7.56-11.12,13.97-18.67,18.67-5.36,3.35-11.29,5.85-17.63,7.31h-.01c-4.25.98-8.66,1.5-13.2,1.5s-8.97-.52-13.21-1.5c-6.34-1.47-12.28-3.97-17.64-7.31-7.55-4.72-13.95-11.11-18.67-18.67-3.35-5.36-5.85-11.3-7.31-17.64-.99-4.25-1.51-8.67-1.51-13.22s.52-8.97,1.51-13.2c1.46-6.34,3.96-12.28,7.31-17.64,4.71-7.55,11.11-13.95,18.67-18.67,5.36-3.36,11.3-5.86,17.64-7.33,4.24-.98,8.66-1.5,13.21-1.5s8.96.52,13.2,1.5h.01c6.34,1.47,12.28,3.97,17.64,7.31,7.55,4.73,13.96,11.13,18.66,18.68,3.36,5.36,5.86,11.3,7.33,17.64.98,4.24,1.5,8.66,1.5,13.2Z"/>
            <path class="cls-36" d="M345.04,768.28c-5.17,0-10.35-.59-15.37-1.75-7.3-1.69-14.22-4.56-20.57-8.53-8.77-5.47-16.28-12.99-21.74-21.74-3.97-6.35-6.83-13.26-8.52-20.56-1.17-5.01-1.76-10.19-1.76-15.38s.59-10.38,1.76-15.39c1.67-7.28,4.54-14.2,8.53-20.56,5.45-8.74,12.96-16.26,21.73-21.72,6.34-3.97,13.25-6.84,20.56-8.53,9.67-2.23,19.89-2.32,29.63-.25l.12.02,1.01.23c7.29,1.69,14.21,4.56,20.56,8.53,8.77,5.49,16.28,13.01,21.73,21.75,3.97,6.33,6.84,13.25,8.53,20.55,1.16,5.02,1.75,10.2,1.75,15.37s-.59,10.34-1.74,15.37c-1.71,7.31-4.58,14.24-8.54,20.58-5.47,8.76-12.98,16.28-21.74,21.74-6.35,3.97-13.26,6.83-20.54,8.52l-1.14.25c-4.62.99-9.44,1.5-14.24,1.5ZM345.04,633.65c-5.08,0-10.15.58-15.09,1.71-7.17,1.66-13.95,4.48-20.17,8.37-8.6,5.37-15.98,12.74-21.32,21.32-3.91,6.24-6.73,13.03-8.37,20.17-1.15,4.92-1.73,10-1.73,15.1s.58,10.18,1.72,15.09c1.66,7.15,4.47,13.94,8.36,20.17,5.35,8.58,12.73,15.96,21.33,21.33,6.23,3.89,13.02,6.71,20.18,8.37,9.5,2.19,19.55,2.27,29.13.23l1.04-.23c7.14-1.65,13.92-4.47,20.15-8.36,8.59-5.35,15.97-12.73,21.33-21.33,3.89-6.22,6.71-13.01,8.38-20.19,1.14-4.93,1.71-10.01,1.71-15.08s-.58-10.16-1.72-15.08c-1.66-7.17-4.47-13.95-8.37-20.16-5.35-8.58-12.72-15.96-21.32-21.35-6.23-3.89-13.02-6.71-20.17-8.36l-1.04-.23c-4.61-.98-9.34-1.48-14.05-1.48Z"/>
            <path class="cls-10" d="M403.38,700.33c0,4.54-.52,8.97-1.5,13.22-1.48,6.34-3.98,12.28-7.33,17.64-4.72,7.57-11.12,13.97-18.67,18.67-5.36,3.35-11.29,5.85-17.63,7.31h-.01c-4.25.98-8.66,1.5-13.2,1.5s-8.97-.52-13.21-1.5c-6.34-1.47-12.28-3.97-17.64-7.31-7.55-4.72-13.96-11.11-18.67-18.67-3.35-5.36-5.85-11.3-7.31-17.64-.99-4.25-1.51-8.67-1.51-13.22s.52-8.97,1.51-13.21c1.46-6.34,3.96-12.28,7.31-17.64,4.71-7.55,11.11-13.96,18.67-18.67,5.36-3.36,11.3-5.86,17.64-7.33,4.24-.98,8.66-1.5,13.21-1.5s8.96.52,13.2,1.5h.01c6.34,1.47,12.28,3.97,17.64,7.31,7.55,4.73,13.96,11.13,18.66,18.68,3.36,5.36,5.86,11.3,7.33,17.64.98,4.24,1.5,8.66,1.5,13.21Z"/>
            <g>
              <path class="cls-32" d="M358.24,643.48c-1.2,3.64-6.65,6.38-13.2,6.38s-12.01-2.74-13.21-6.38c4.24-.98,8.66-1.5,13.21-1.5s8.96.52,13.2,1.5Z"/>
              <path class="cls-32" d="M309.35,664.64c-4.63,4.62-10.42,6.55-13.84,4.84,4.71-7.55,11.11-13.96,18.67-18.67,1.72,3.41-.22,9.21-4.84,13.84Z"/>
              <path class="cls-32" d="M294.57,700.33c0,6.55-2.74,12.01-6.37,13.22-.99-4.25-1.51-8.67-1.51-13.22s.52-8.97,1.51-13.21c3.63,1.21,6.37,6.66,6.37,13.21Z"/>
              <path class="cls-32" d="M314.19,749.85c-7.55-4.72-13.96-11.11-18.67-18.67,3.41-1.72,9.21.21,13.84,4.84,4.62,4.62,6.55,10.42,4.84,13.84Z"/>
              <path class="cls-32" d="M358.24,757.17c-4.25.98-8.66,1.5-13.2,1.5s-8.97-.52-13.21-1.5c1.2-3.63,6.65-6.37,13.21-6.37s12.01,2.74,13.2,6.37Z"/>
              <path class="cls-32" d="M394.55,731.18c-4.72,7.57-11.12,13.97-18.67,18.67-1.71-3.41.22-9.22,4.85-13.84,4.62-4.63,10.42-6.55,13.82-4.84Z"/>
              <path class="cls-32" d="M403.38,700.33c0,4.54-.52,8.97-1.5,13.22-3.63-1.2-6.37-6.66-6.37-13.22s2.74-12.01,6.37-13.21c.98,4.24,1.5,8.66,1.5,13.21Z"/>
              <path class="cls-32" d="M394.55,669.48c-3.41,1.71-9.21-.22-13.82-4.84-4.64-4.64-6.55-10.43-4.84-13.85,7.55,4.73,13.96,11.13,18.66,18.68Z"/>
            </g>
            <circle class="cls-32" cx="345.04" cy="700.33" r="10.83"/>
          </g>
        </g>
        <g>
          <path class="cls-19" d="M1438.27,612.65v70.31h-221.04l20.43-69.23c5.1-17.25,20.94-29.09,38.92-29.09h133.68c15.47,0,28.01,12.54,28.01,28.01Z"/>
          <g>
            <circle class="cls-32" cx="1337.74" cy="700.33" r="110.81"/>
            <circle cx="1337.74" cy="700.33" r="93.14"/>
            <path class="cls-24" d="M1400.02,702.37c0,4.54-.52,8.97-1.5,13.22-1.48,6.34-3.98,12.28-7.33,17.64-4.72,7.56-11.12,13.97-18.67,18.67-5.36,3.35-11.29,5.85-17.63,7.31h-.01c-4.25.98-8.66,1.5-13.2,1.5s-8.97-.52-13.21-1.5c-6.34-1.47-12.28-3.97-17.64-7.31-7.55-4.72-13.96-11.11-18.67-18.67-3.35-5.36-5.85-11.3-7.31-17.64-.99-4.25-1.51-8.67-1.51-13.22s.52-8.97,1.51-13.2c1.46-6.34,3.96-12.28,7.31-17.64,4.71-7.55,11.11-13.95,18.67-18.67,5.36-3.36,11.3-5.86,17.64-7.33,4.24-.98,8.66-1.5,13.21-1.5s8.96.52,13.2,1.5h.01c6.34,1.47,12.28,3.97,17.64,7.31,7.55,4.73,13.96,11.13,18.66,18.68,3.36,5.36,5.86,11.3,7.33,17.64.98,4.24,1.5,8.66,1.5,13.2Z"/>
            <path class="cls-36" d="M1337.74,768.28c-5.17,0-10.35-.59-15.37-1.75-7.3-1.69-14.22-4.56-20.57-8.53-8.77-5.47-16.28-12.99-21.74-21.74-3.97-6.35-6.83-13.26-8.52-20.56-1.17-5.01-1.76-10.19-1.76-15.38s.59-10.38,1.76-15.39c1.67-7.28,4.54-14.2,8.53-20.56,5.45-8.74,12.96-16.26,21.73-21.72,6.34-3.97,13.25-6.84,20.56-8.53,9.67-2.23,19.89-2.32,29.63-.25l.12.02,1.01.23c7.29,1.69,14.21,4.56,20.56,8.53,8.77,5.49,16.28,13.01,21.73,21.75,3.97,6.33,6.84,13.25,8.53,20.55,1.16,5.02,1.75,10.2,1.75,15.37s-.59,10.34-1.74,15.37c-1.71,7.31-4.58,14.24-8.54,20.58-5.47,8.76-12.98,16.28-21.74,21.74-6.35,3.97-13.26,6.83-20.54,8.52l-1.14.25c-4.62.99-9.44,1.5-14.24,1.5ZM1337.74,633.65c-5.08,0-10.15.58-15.09,1.71-7.17,1.66-13.95,4.48-20.17,8.37-8.6,5.37-15.98,12.74-21.32,21.32-3.91,6.24-6.73,13.03-8.37,20.17-1.15,4.92-1.73,10-1.73,15.1s.58,10.18,1.72,15.09c1.66,7.15,4.47,13.94,8.36,20.17,5.35,8.58,12.73,15.96,21.33,21.33,6.23,3.89,13.02,6.71,20.18,8.37,9.5,2.19,19.55,2.27,29.13.23l1.04-.23c7.14-1.65,13.92-4.47,20.15-8.36,8.59-5.35,15.97-12.73,21.33-21.33,3.89-6.22,6.71-13.01,8.38-20.19,1.14-4.93,1.71-10.01,1.71-15.08s-.58-10.16-1.72-15.08c-1.66-7.17-4.47-13.95-8.37-20.16-5.35-8.58-12.72-15.96-21.32-21.35-6.23-3.89-13.02-6.71-20.17-8.36l-1.04-.23c-4.61-.98-9.34-1.48-14.05-1.48Z"/>
            <path class="cls-10" d="M1396.08,700.33c0,4.54-.52,8.97-1.5,13.22-1.48,6.34-3.98,12.28-7.33,17.64-4.72,7.57-11.12,13.97-18.67,18.67-5.36,3.35-11.29,5.85-17.63,7.31h-.01c-4.25.98-8.66,1.5-13.2,1.5s-8.97-.52-13.21-1.5c-6.34-1.47-12.28-3.97-17.64-7.31-7.55-4.72-13.96-11.11-18.67-18.67-3.35-5.36-5.85-11.3-7.31-17.64-.99-4.25-1.51-8.67-1.51-13.22s.52-8.97,1.51-13.21c1.46-6.34,3.96-12.28,7.31-17.64,4.71-7.55,11.11-13.96,18.67-18.67,5.36-3.36,11.3-5.86,17.64-7.33,4.24-.98,8.66-1.5,13.21-1.5s8.96.52,13.2,1.5h.01c6.34,1.47,12.28,3.97,17.64,7.31,7.55,4.73,13.96,11.13,18.66,18.68,3.36,5.36,5.86,11.3,7.33,17.64.98,4.24,1.5,8.66,1.5,13.21Z"/>
            <g>
              <path class="cls-32" d="M1350.94,643.48c-1.2,3.64-6.65,6.38-13.2,6.38s-12.01-2.74-13.21-6.38c4.24-.98,8.66-1.5,13.21-1.5s8.96.52,13.2,1.5Z"/>
              <path class="cls-32" d="M1302.06,664.64c-4.63,4.62-10.42,6.55-13.84,4.84,4.71-7.55,11.11-13.96,18.67-18.67,1.72,3.41-.22,9.21-4.84,13.84Z"/>
              <path class="cls-32" d="M1287.27,700.33c0,6.55-2.74,12.01-6.37,13.22-.99-4.25-1.51-8.67-1.51-13.22s.52-8.97,1.51-13.21c3.63,1.21,6.37,6.66,6.37,13.21Z"/>
              <path class="cls-32" d="M1306.89,749.85c-7.55-4.72-13.96-11.11-18.67-18.67,3.41-1.72,9.21.21,13.84,4.84,4.62,4.62,6.55,10.42,4.84,13.84Z"/>
              <path class="cls-32" d="M1350.94,757.17c-4.25.98-8.66,1.5-13.2,1.5s-8.97-.52-13.21-1.5c1.2-3.63,6.65-6.37,13.21-6.37s12.01,2.74,13.2,6.37Z"/>
              <path class="cls-32" d="M1387.25,731.18c-4.72,7.57-11.12,13.97-18.67,18.67-1.71-3.41.22-9.22,4.85-13.84,4.62-4.63,10.42-6.55,13.82-4.84Z"/>
              <path class="cls-32" d="M1396.08,700.33c0,4.54-.52,8.97-1.5,13.22-3.63-1.2-6.37-6.66-6.37-13.22s2.74-12.01,6.37-13.21c.98,4.24,1.5,8.66,1.5,13.21Z"/>
              <path class="cls-32" d="M1387.25,669.48c-3.41,1.71-9.21-.22-13.82-4.84-4.64-4.64-6.55-10.43-4.84-13.85,7.55,4.73,13.96,11.13,18.66,18.68Z"/>
            </g>
            <circle class="cls-32" cx="1337.74" cy="700.33" r="10.83"/>
          </g>
        </g>
        <path class="cls-27" d="M360.86,262.99v112.56c0,6.74-5.18,12.38-11.91,12.91-17.63,1.37-43.24,5.27-72.26,10.44-34.44,6.16-73.68,14.15-110.01,21.91-10.28,2.18-20.33,4.36-29.98,6.47-9.39,2.05-18.4,4.05-26.86,5.93-13.2,2.95-25.07,5.63-34.99,7.89-9.97,2.27-18.93-6.55-16.8-16.55,5.41-25.34,13.33-56.34,24.54-88.25,8.62-24.58,19.19-49.7,32.03-73.22,4.38-8.02,12.75-13.06,21.9-13.06h211.37c7.15,0,12.96,5.79,12.96,12.94Z"/>
        <path class="cls-27" d="M168.75,631.87h-86.36c-19.18,0-34.78-15.6-34.78-34.78v-172.74c0-.06,0-.13.01-.19.07-.46,7.19-46.39,21.35-91.73,19.15-61.34,41.43-92.44,66.2-92.44h223.19c10.03,0,18.19,8.16,18.19,18.19v254.14c0,17.19-13.99,31.18-31.18,31.18h-54.62c-31.66,0-60.69,17.13-75.76,44.72-2.87,5.25-5.25,10.55-7.09,15.74-5.9,16.71-21.63,27.93-39.15,27.93ZM50.17,424.45v172.64c0,17.77,14.45,32.22,32.22,32.22h86.36c16.43,0,31.19-10.54,36.73-26.22,1.88-5.32,4.32-10.75,7.26-16.12,15.52-28.41,45.42-46.05,78.01-46.05h54.62c15.78,0,28.61-12.84,28.61-28.61v-254.14c0-8.61-7.01-15.62-15.62-15.62h-223.19c-55.95,0-84.22,176.88-85,181.91Z"/>
        <rect class="cls-27" x="266.54" y="423.51" width="62.08" height="20.52" rx="6.31" ry="6.31"/>
        <path class="cls-28" d="M323.86,439.22h-52.56c-3.01,0-5.45-2.44-5.45-5.45h0c0-3.01,2.44-5.45,5.45-5.45h52.56c3.01,0,5.45,2.44,5.45,5.45h0c0,3.01-2.44,5.45-5.45,5.45Z"/>
        <path class="cls-27" d="M613.19,682.96h-132.23v-377.76c0-8.02,6.51-14.52,14.52-14.52h36.32c6.61,0,12.27,4.73,13.43,11.24l67.96,381.04Z"/>
        <path class="cls-41" d="M613.19,682.96h-111.31v-377.76c0-8.02,6.51-14.52,14.52-14.52h15.39c6.61,0,12.27,4.73,13.43,11.24l16.66,93.44,41.96,235.23,9.34,52.37Z"/>
        <path class="cls-19" d="M611.67,630.6h-7.83l-41.96-235.23c2.93,1.13,5.79,2.45,8.53,3.92l41.25,231.31Z"/>
        <rect class="cls-19" x="455.85" y="517.06" width="25.11" height="28.67"/>
        <path class="cls-36" d="M1646.6,500.26h-23.34c-3.87,0-7.11,2.94-7.48,6.8l-6.55,68.26h44.9v-67.54c0-4.15-3.37-7.52-7.52-7.52Z"/>
        <path class="cls-15" d="M1659.44,575.32c0,14.61-11.85,26.46-26.46,26.46s-26.46-11.85-26.46-26.46,11.85-26.46,26.46-26.46,26.46,11.85,26.46,26.46Z"/>
        <circle class="cls-25" cx="1632.98" cy="575.32" r="13.66"/>
        <path class="cls-35" d="M1561.04,549.87v25.45h-130.16v-25c0-18.36,14.89-33.26,33.26-33.26h64.09c18.12,0,32.81,14.69,32.81,32.81Z"/>
        <path class="cls-36" d="M1561.04,549.87v25.45h-104.55v-25c0-18.36,14.89-33.26,33.26-33.26h38.49c18.12,0,32.81,14.69,32.81,32.81Z"/>
        <path class="cls-12" d="M844.27,622.82v15.55c0,6.34-5.15,11.5-11.51,11.5h-166.4c-6.27-.1-11.32-5.22-11.32-11.5v-15.55c0-6.34,5.15-11.5,11.5-11.5h166.22c5.57,0,10.21,3.96,11.28,9.2.15.74.23,1.51.23,2.29Z"/>
        <path class="cls-27" d="M855.35,632.02v15.55c0,6.34-5.15,11.49-11.5,11.49h-166.22c-5.56,0-10.21-3.95-11.28-9.2h166.4c6.36,0,11.51-5.15,11.51-11.5v-7.77h11c.06.46.09.94.09,1.42Z"/>
        <path class="cls-19" d="M501.87,280.39h24.08c2.94,0,5.33,2.39,5.33,5.33v4.96h-34.75v-4.96c0-2.94,2.39-5.33,5.33-5.33Z"/>
        <path class="cls-42" d="M513.93,256.25h0c-6.09,0-11.02,4.94-11.02,11.03v13.11h22.05v-13.11c0-6.09-4.94-11.03-11.03-11.03Z"/>
        <path class="cls-26" d="M524.95,267.28v13.11h-7.83v-13.11c0-4.7-2.95-8.73-7.1-10.3,1.22-.46,2.54-.72,3.91-.72,6.09,0,11.02,4.93,11.02,11.02Z"/>
        <path class="cls-22" d="M360.86,336.32v39.23c0,6.74-5.18,12.38-11.91,12.91-59.27,4.61-208.76,37.73-274.09,52.66-9.97,2.27-18.93-6.55-16.8-16.55,5.41-25.34,13.33-56.34,24.54-88.25h278.26Z"/>
        <g>
          <path class="cls-21" d="M199.77,250.05l-63.07,177.24c-9.39,2.05-18.4,4.05-26.86,5.93l65.18-183.18h24.75Z"/>
          <path class="cls-21" d="M329.66,250.05l-52.97,148.86c-34.44,6.16-73.68,14.15-110.01,21.91l60.76-170.77h102.22Z"/>
        </g>
      </g>
    </g>
    <g class="cls-11">
      <g>
        <g class="cls-4">
          <g>
            <path class="cls-33" d="M968.54,542.78c.4-8.3.42-17.14-.01-26.56-1.83-40.46-33.74-73.33-75.36-73.33s-75.36,32.83-75.36,73.33c-.01,8.87.46,17.74,1.4,26.56h149.33Z"/>
            <path class="cls-37" d="M945.7,520.98c-.03,10.38-3.13,20.52-8.92,29.15-5.79,8.62-14,15.33-23.6,19.28-9.6,3.96-20.15,4.98-30.33,2.93-10.18-2.04-19.52-7.06-26.85-14.41-7.33-7.35-12.32-16.71-14.33-26.9-2.02-10.19-.97-20.74,3.01-30.33,3.98-9.59,10.71-17.79,19.34-23.55,8.63-5.77,18.78-8.84,29.16-8.84,13.95.02,27.31,5.58,37.16,15.46,9.85,9.88,15.37,23.26,15.36,37.21Z"/>
            <path class="cls-30" d="M932.56,520.99c-.02,7.79-2.35,15.39-6.69,21.86-4.34,6.46-10.5,11.5-17.7,14.46-7.2,2.96-15.12,3.73-22.75,2.2-7.63-1.53-14.64-5.29-20.14-10.81-5.5-5.51-9.24-12.53-10.75-20.17-1.51-7.64-.72-15.56,2.26-22.75,2.98-7.19,8.03-13.34,14.51-17.66,6.48-4.32,14.09-6.63,21.87-6.63,10.46.01,20.49,4.18,27.87,11.59,7.39,7.41,11.53,17.45,11.51,27.91Z"/>
            <path class="cls-33" d="M1430.92,539.08c.12-6.05-.27-12.1-1.15-18.09-5.92-42.14-27.5-73.61-75.04-77.05-44.77-3.23-76.74,34.53-78.36,77.05-.33,7.3.21,14.62,1.61,21.8h65.47c43.37,0,87.47-3.7,87.47-3.7"/>
            <path class="cls-37" d="M1407.24,520.98c-.03,10.38-3.13,20.52-8.92,29.15-5.79,8.62-14,15.33-23.6,19.28-9.6,3.96-20.15,4.98-30.33,2.93-10.18-2.04-19.52-7.06-26.85-14.41-7.33-7.35-12.32-16.71-14.33-26.9-2.01-10.19-.97-20.74,3.01-30.33,3.98-9.59,10.71-17.79,19.34-23.55,8.63-5.77,18.78-8.84,29.16-8.84,13.95.02,27.31,5.58,37.16,15.46,9.85,9.88,15.37,23.26,15.35,37.21Z"/>
            <path class="cls-30" d="M1394.11,520.99c-.02,7.79-2.35,15.39-6.69,21.86-4.34,6.46-10.5,11.5-17.7,14.46-7.2,2.96-15.11,3.73-22.75,2.2-7.63-1.53-14.64-5.29-20.14-10.81-5.5-5.51-9.24-12.53-10.75-20.17-1.51-7.64-.72-15.56,2.26-22.75,2.98-7.19,8.03-13.34,14.51-17.66,6.47-4.32,14.09-6.63,21.87-6.63,10.46.01,20.49,4.18,27.87,11.59,7.39,7.41,11.53,17.45,11.51,27.91Z"/>
          </g>
        </g>
        <g class="cls-18">
          <path class="cls-31" d="M660.22,491.7L943.27,0l660.47,382.46-283.06,491.7-660.47-382.46Z"/>
        </g>
        <g class="cls-43">
          <g>
            <rect class="cls-14" x="754.56" y="327.58" width="755.29" height="218.69"/>
            <path class="cls-29" d="M1508.65,488.76c0-.64-.61-.98-1.28-.98-10.93,0-21.84-.07-32.76.43-.22.02-.44.1-.63.22-.19.12-.34.29-.45.49-.11.2-.17.42-.17.65,0,.23.05.45.15.65.31.98.83,1.87,1.52,2.63.69.75,1.54,1.35,2.49,1.73,2.91.89,5.95,1.3,9,1.2,6.92.11,13.66,0,20.59,0,1.02,0,1.1-.72,1.18-1.38.1-.76.36-3.68.37-5.63"/>
          </g>
        </g>
        <g class="cls-38">
          <g class="cls-40">
            <rect class="cls-17" x="770.55" y="438.97" width="91.78" height="34.56"/>
          </g>
        </g>
        <g class="cls-3">
          <g>
            <path class="cls-37" d="M800.91,508.07c-1.69-3.77-3.47-7.5-5.17-11.26-1.01-2.23-2.36-4.97-4.29-5.5-2.12-.57-10.18-1.93-9.24.66.34.94,3.74,7.93,4.57,9.93,2.62,5.27,4.69,10.79,6.16,16.49,1.38,7.77-1.73,9.93-7.54,11.56-3.94,1.1-7.97,2.16-11.92,3.24-3.59.98-6.98,1.34-4.55,3.27.94.58,1.99.94,3.09,1.08,1.1.13,2.21.03,3.26-.31,5.26-1.32,24.55-4.27,27.91-9.27,4.35-6.45.4-13.89-2.29-19.89"/>
            <path class="cls-2" d="M1268.16,502.35c-.63-2.76-18.99-4.28-23.74-4.65-60.68-4.72-184.83-.1-250.04,6.32-3.08.3-11.58,1.24-13.85,3.84-2.5,2.89,5.9,3.8,10.39,3.8,40,0,244.62-4.37,255.41-4.41,5.46-.02,22.72-.95,21.82-4.91"/>
          </g>
        </g>
        <g class="cls-6">
          <path class="cls-2" d="M1416.96,410.39h-487.32v37.07h487.32v-37.07Z"/>
        </g>
        <g class="cls-8">
          <g>
            <path class="cls-1" d="M1498.67,411.93c-6.22-3.19-17.27-7.85-23.76-10.4-3.79-1.75-8.02-2.28-12.12-1.51-14.65,2.16-29.37,5.14-43.9,8.03-1.63.33-7.69,1.62-8.25,2.8-.9,1.9,2.45,3.54,3.65,4.3,5.62,3.55,11.36,7.07,17.17,10.31,6.02,3.36,11.5,3.38,18.52,3.38,7.74,0,30.74.16,34.96.11,2.69-.03,6.28-.2,8-2.08,1.63-1.78,9.08-13.22,5.73-14.93"/>
            <path class="cls-9" d="M1475.38,418.5c-5.38.13-7.36-.33-12.1,2.83-3.86,2.59-6.32,4.58.17,4.69,5.65.1,19.82-.11,30.34-.25,1.67-2.34,3.14-4.82,4.37-7.42-6.03-.1-16.62,0-22.77.14"/>
            <path class="cls-39" d="M891.03,503c.09.31.19.63.28.94.34,1.1.86,2.77.51,3.16-.06.06-.1.13-.13.21-.03.08-.04.16-.04.25,0,.08.02.17.06.24.03.08.08.14.15.2.06.06.14.1.21.13.08.03.16.04.25.03.08,0,.16-.03.24-.06.07-.04.14-.09.2-.15.83-.92.31-2.6-.24-4.38-.09-.31-.19-.62-.28-.92-.15-.51-.42-1.35-.74-2.38-1.2-3.75-3.99-12.54-3.36-14.09.31-.75,5.19-1.21,8.7-.83.17.02.34-.03.46-.13s.21-.26.23-.42c.02-.17-.03-.33-.14-.46-.1-.13-.26-.21-.42-.23-.09,0-9.04-.77-10,1.59-.67,1.66.78,6.94,3.33,14.95.33,1.02.59,1.84.73,2.34"/>
            <path class="cls-39" d="M866.74,505.78c5.26,2.54,19.9,7.45,24.27,8.91,1.01.36,2.07.57,3.15.6.83.03,1.65-.2,2.34-.65.56-.44,1.01-1,1.31-1.65.3-.64.45-1.35.43-2.06.01-.09,0-.17-.02-.26-.02-.08-.07-.16-.12-.23-.06-.07-.12-.12-.2-.16-.08-.04-.16-.06-.25-.07-.09,0-.17,0-.26.04-.08.03-.15.08-.22.13-.06.06-.11.13-.15.21-.03.08-.05.16-.05.25.02.52-.07,1.03-.27,1.51-.21.48-.52.9-.91,1.23-.7.3-1.45.45-2.21.43-.76-.02-1.51-.2-2.18-.54-1.71-.55-4.99-1.66-8.66-2.94,1.87.02,3.7-.58,5.2-1.7.67-.59,1.16-1.35,1.42-2.21.26-.85.28-1.76.05-2.62-.01-.08-.05-.16-.09-.24-.05-.07-.1-.13-.17-.18s-.15-.08-.23-.1c-.08-.02-.17-.02-.25,0s-.16.05-.23.1c-.07.05-.13.11-.17.18-.05.07-.08.15-.09.24-.01.08-.01.17.01.25.18.64.18,1.32-.01,1.97-.19.64-.55,1.22-1.05,1.66-2.03,1.76-6.45,1.92-10.76.38-3.67-1.34-7.07-2.67-9.08-3.63-1.42-.68-1.39-1.61-1.07-5.03l.05-.45c.32-3.38,10.5-10.51,16.27-12.1.16-.04.3-.15.38-.29.08-.15.1-.32.06-.48-.05-.16-.15-.3-.3-.38-.14-.08-.31-.1-.48-.06-5.72,1.58-16.78,8.97-17.18,13.2l-.05.45c-.32,3.35-.5,5.19,1.77,6.29"/>
            <path class="cls-39" d="M892.48,511.43c0,.34.1.66.29.94.19.28.45.49.76.62.31.13.65.16.98.09.33-.07.63-.23.87-.47.24-.24.4-.54.46-.87.06-.33.03-.67-.1-.98s-.35-.57-.63-.76c-.28-.19-.61-.29-.94-.29-.45,0-.88.18-1.2.5-.32.32-.5.75-.5,1.2ZM894.62,511.43c0,.09-.02.17-.07.24-.05.07-.12.13-.2.16-.08.03-.17.04-.26.03-.08-.02-.16-.06-.22-.12-.06-.06-.1-.14-.12-.23-.02-.09,0-.17.02-.26.03-.08.09-.15.16-.2s.16-.07.24-.07c.06,0,.12.01.17.03.06.02.1.05.14.1.04.04.07.09.1.14.02.05.03.11.03.17Z"/>
            <path class="cls-39" d="M872.95,517.82c1.07-.01,1.93-.03,2.45-.02h.98c1.15,0,2.89,0,3.16.43.04.07.09.14.16.19s.14.09.22.11c.08.02.17.03.25.02.08-.01.16-.04.24-.08.07-.04.14-.1.19-.17.05-.07.08-.15.1-.23.02-.08.02-.17,0-.25-.02-.08-.05-.16-.09-.23-.63-1.06-2.39-1.05-4.24-1.05h-.96c-.53,0-1.4,0-2.48.02-3.92.06-13.12.18-14.42-.88-.63-.52.35-5.33,1.75-8.59.04-.08.06-.16.07-.25,0-.09,0-.17-.03-.25-.03-.08-.08-.15-.14-.22-.06-.06-.13-.11-.21-.15-.08-.03-.16-.05-.25-.05s-.17.02-.25.05c-.08.03-.15.08-.21.15-.06.06-.1.14-.13.22-.03.08-3.37,8.45-1.39,10.06,1.38,1.13,6.85,1.28,15.23,1.17Z"/>
            <path class="cls-39" d="M870.96,541.9c3.95-4.3,12.91-16.91,15.57-20.69.64-.7,1.12-1.54,1.39-2.46.27-.92.33-1.88.17-2.82-.26-.66-.66-1.26-1.19-1.73-.53-.48-1.16-.82-1.85-1.01-.15-.06-.33-.05-.48.02-.15.07-.27.2-.33.35-.06.16-.05.33.01.48.07.15.2.27.35.33.5.13.97.37,1.36.7.39.33.71.76.91,1.23.09.76.01,1.52-.23,2.25-.24.72-.63,1.39-1.15,1.94-1.04,1.47-3.03,4.3-5.33,7.45.56-1.79.52-3.71-.11-5.48-.37-.81-.95-1.5-1.69-2-.74-.5-1.6-.78-2.49-.81-.16-.01-.33.03-.45.14-.13.1-.21.25-.23.41-.02.16.03.33.13.46.1.13.26.21.42.23.67.01,1.32.22,1.87.58.56.37,1,.88,1.28,1.49,1.08,2.46-.05,6.75-2.76,10.43-2.35,3.13-4.61,6.01-6.11,7.65-1.07,1.16-1.93.87-5.11-.45l-.42-.17c-3.13-1.29-6.97-13.14-6.8-19.13,0-.08-.01-.16-.04-.24-.03-.08-.07-.15-.13-.21-.06-.06-.12-.11-.2-.14-.07-.03-.16-.05-.24-.05h-.02c-.16,0-.32.06-.44.18-.12.11-.19.27-.19.43-.16,5.95,3.67,18.71,7.58,20.33l.41.17c1.3.67,2.72,1.09,4.17,1.27.45,0,.89-.1,1.3-.3.41-.2.76-.48,1.04-.83"/>
            <path class="cls-39" d="M882.73,516.73c-.13.43-.09.9.13,1.3.21.4.57.7,1,.83.32.1.67.1.99,0,.32-.1.61-.29.82-.55.21-.26.34-.58.38-.91.03-.33-.03-.67-.19-.97-.16-.3-.4-.54-.7-.7-.3-.16-.63-.23-.97-.19-.34.03-.65.16-.91.38-.26.21-.45.5-.55.82ZM883.93,517.1c.03-.1.09-.18.18-.24.08-.06.19-.08.29-.07.1,0,.2.05.27.13.07.07.12.17.13.27.01.1-.02.2-.07.29-.06.08-.14.15-.24.18-.1.03-.2.02-.3-.01-.1-.04-.17-.11-.22-.2-.02-.05-.04-.11-.05-.17,0-.06,0-.12.02-.17Z"/>
            <path class="cls-39" d="M884.43,536.82c.11-.3.22-.62.32-.93.37-1.1.92-2.76,1.43-2.86.16-.03.31-.13.4-.27.09-.14.12-.31.09-.47-.03-.16-.13-.31-.27-.4-.14-.09-.31-.12-.48-.09-1.21.26-1.76,1.93-2.36,3.69-.1.31-.21.61-.31.91-.18.5-.45,1.34-.79,2.37-1.22,3.75-4.06,12.52-5.49,13.4-.68.43-4.91-2.06-7.54-4.44-.06-.06-.13-.11-.21-.14-.08-.03-.16-.05-.25-.05-.09,0-.17.02-.25.06-.08.03-.15.09-.21.15-.06.06-.1.14-.13.22-.03.08-.04.17-.03.25,0,.09.03.17.07.24.04.08.09.14.16.2.06.06,5.55,4.77,8.24,4.77.28.01.56-.06.8-.2,1.51-.94,3.42-6.08,6.02-14.07.33-1.02.6-1.84.77-2.33"/>
            <path class="cls-39" d="M891.26,527.37c-.45-.84-1.09-1.56-1.87-2.11-.78-.55-1.67-.92-2.61-1.07h-.1c-.69.05-1.36.25-1.96.6-.6.34-1.11.82-1.5,1.39-.05.06-.09.14-.12.22-.02.08-.03.16-.02.24,0,.08.03.16.07.24.04.07.09.14.15.19.07.05.14.09.22.12.08.02.16.03.24.02.08,0,.16-.03.23-.07.07-.04.14-.09.19-.16.28-.44.65-.8,1.1-1.07.44-.27.94-.42,1.46-.46,1.07.03,2.25.93,3.51,2.66,1.06,1.46,3.08,4.28,5.31,7.46-1.51-1.11-3.34-1.69-5.21-1.67-.88.09-1.73.42-2.44.96-.71.54-1.25,1.27-1.57,2.1-.04.08-.06.16-.07.24,0,.08,0,.17.03.25s.07.15.13.22c.06.06.13.11.2.15.08.04.16.05.24.06.09,0,.17-.01.25-.04.08-.03.15-.08.21-.14.06-.06.11-.13.14-.21.23-.63.63-1.18,1.15-1.59.52-.41,1.16-.67,1.82-.74,2.67-.22,6.34,2.23,8.95,5.99,2.21,3.24,4.18,6.31,5.24,8.28.75,1.38.19,2.12-2.07,4.71l-.3.34c-2.23,2.55-14.65,2.37-20.24.28-.16-.06-.33-.05-.48.02-.15.07-.27.2-.33.35-.06.16-.05.33.02.48.07.15.2.27.35.33,3.78,1.16,7.72,1.72,11.67,1.66,4.43,0,8.55-.67,9.96-2.29l.29-.34c2.21-2.53,3.43-3.92,2.23-6.14-2.79-5.14-11.8-17.72-14.49-21.45"/>
            <path class="cls-39" d="M885.78,529.52c.18.13.39.22.6.28.22.05.44.06.66.02.22-.04.43-.11.62-.23s.35-.27.49-.45c.2-.27.31-.6.32-.93.01-.34-.07-.67-.25-.95-.18-.29-.44-.51-.74-.65-.31-.14-.65-.18-.98-.13-.33.05-.64.21-.89.44-.24.23-.42.53-.5.85-.08.33-.06.67.06.99.12.31.33.59.6.78ZM886.41,527.88c.04-.06.09-.1.16-.14.06-.03.13-.05.2-.05.09,0,.19.03.26.08.09.07.16.17.18.29.02.12-.01.23-.08.33-.06.09-.16.16-.28.18-.12.02-.23,0-.33-.08-.05-.03-.09-.08-.12-.13-.03-.05-.05-.1-.06-.16,0-.06,0-.12,0-.17.01-.06.04-.11.07-.16"/>
            <path class="cls-39" d="M907.55,535.6c-.87-.63-1.57-1.13-1.98-1.45-.26-.2-.52-.39-.79-.59-.93-.68-2.33-1.72-2.29-2.23.01-.08.01-.17-.01-.25-.02-.08-.06-.16-.11-.23-.05-.07-.12-.12-.19-.17-.08-.04-.16-.07-.24-.08-.08,0-.17,0-.25.03s-.16.07-.22.12c-.07.06-.12.13-.16.2-.03.08-.06.16-.06.25-.12,1.23,1.29,2.27,2.79,3.37.26.19.52.38.77.57.42.33,1.13.83,2.01,1.47,3.19,2.3,10.65,7.68,11.06,9.31.2.79-3.45,4.07-6.5,5.86-.07.04-.14.09-.19.16-.05.07-.09.14-.11.22-.02.08-.03.16-.02.25.01.08.04.16.08.23.04.07.1.14.16.19.06.05.14.09.22.11.08.02.16.03.24.01.08-.01.16-.03.23-.08.08-.05,7.72-4.78,7.09-7.26-.44-1.72-4.74-5.11-11.55-10.02"/>
            <path class="cls-39" d="M928.82,521.8l-.23-.39c-1.73-2.88-2.68-4.47-5.15-3.99-5.72,1.1-20.41,5.89-24.78,7.33-2.45.81-3.89,1.9-4.39,3.31-.19.69-.21,1.41-.07,2.1.14.7.44,1.35.88,1.91.04.07.1.14.17.19.07.05.15.09.23.11.08.02.17.02.26,0,.08-.01.16-.05.23-.09.07-.05.13-.11.18-.18.05-.07.08-.15.09-.23.02-.08.01-.17,0-.25-.02-.08-.06-.16-.1-.23-.33-.4-.56-.87-.68-1.38-.12-.5-.12-1.03,0-1.53.36-1.02,1.57-1.87,3.59-2.54,1.71-.55,4.99-1.64,8.69-2.8-1.51,1.11-2.62,2.68-3.16,4.47-.19.87-.13,1.78.17,2.62.3.84.82,1.58,1.52,2.14.06.06.13.1.21.13.08.03.16.04.24.04.08,0,.16-.02.24-.06.08-.04.14-.09.2-.15.11-.12.17-.29.16-.45,0-.17-.08-.32-.2-.44-.53-.41-.93-.96-1.16-1.59-.23-.63-.28-1.31-.14-1.96.59-2.63,4.04-5.39,8.41-6.73,3.75-1.1,7.27-2.08,9.45-2.5,1.54-.3,2.08.46,3.84,3.4l.23.39c1.75,2.91-2.21,14.72-5.88,19.43-.1.13-.15.3-.13.46.02.16.1.32.24.42.06.05.14.09.22.11.08.02.16.03.24.02.08,0,.16-.03.23-.08.07-.04.14-.09.19-.16,3.66-4.69,8.15-17.23,5.97-20.86"/>
            <path class="cls-39" d="M897.79,530.94c.08.01.17.02.26.02.36,0,.72-.12,1.01-.33.36-.27.6-.67.67-1.12.07-.45-.05-.9-.31-1.26-.16-.22-.38-.4-.64-.52-.25-.12-.53-.17-.81-.16-.28.01-.55.1-.79.24-.24.14-.44.34-.58.58-.14.24-.22.51-.24.79-.01.28.04.56.16.81.12.25.3.47.52.64.22.17.49.28.76.32ZM897.79,528.91s.1-.06.16-.07c.06-.01.12-.02.17,0,.06,0,.11.03.16.06.05.03.09.07.13.12.03.05.06.1.07.16.01.06.02.11.01.17-.01.06-.03.11-.06.16-.03.05-.07.09-.12.13-.09.07-.21.1-.33.08-.12-.02-.22-.08-.29-.17-.07-.09-.1-.21-.08-.33.02-.12.08-.22.17-.29Z"/>
            <path class="cls-39" d="M909.47,513.21c-.27.18-.53.38-.8.57-.93.68-2.35,1.7-2.82,1.5-.15-.07-.33-.07-.48,0-.16.06-.28.18-.35.34-.07.15-.07.33-.01.48.06.16.18.28.34.35.2.09.41.13.63.13,1.28-.26,2.47-.87,3.43-1.75.26-.19.52-.38.78-.55.44-.31,1.14-.83,2.02-1.47,3.16-2.33,10.59-7.81,12.23-7.69.81.05,2.81,4.54,3.56,8,.02.08.05.16.1.22.05.07.11.13.18.17.07.04.15.07.23.09.08.01.16.01.24,0,.08-.02.16-.05.23-.1.07-.05.12-.11.17-.18.05-.07.07-.15.09-.23.01-.08.01-.16,0-.25-.02-.09-2.16-8.83-4.71-9-1.79-.11-6.3,2.95-13.06,7.94-.86.64-1.56,1.15-1.99,1.45"/>
            <path class="cls-39" d="M900.23,522.12c.66.49,1.47.74,2.3.71.6,0,1.19-.09,1.76-.25.16-.04.3-.15.38-.29.08-.14.11-.32.07-.48-.05-.16-.15-.3-.29-.38-.15-.08-.32-.11-.48-.06-.48.19-1,.27-1.51.22-.51-.04-1.01-.2-1.45-.47-.51-.57-.89-1.23-1.12-1.96-.23-.73-.29-1.5-.19-2.25,0-1.8-.02-5.27,0-9.16.58,1.78,1.73,3.32,3.27,4.39.69.42,1.49.64,2.3.65.96-.02,1.9-.29,2.73-.79.15-.08.25-.22.3-.38.04-.16.02-.33-.06-.48-.04-.07-.1-.14-.16-.19-.07-.05-.14-.09-.22-.11-.08-.02-.16-.03-.24-.02-.08.01-.16.04-.23.08-.55.38-1.2.59-1.86.62-.67.03-1.33-.13-1.91-.46-2.31-1.38-3.86-5.52-3.8-10.1.1-3.92.26-7.57.53-9.79.19-1.57,1.08-1.84,4.41-2.62l.43-.1c3.29-.77,13.29,6.62,16.63,11.59.05.07.1.13.17.17.07.05.15.08.23.09.08.02.16.02.24,0,.08-.02.16-.05.23-.1.07-.05.13-.11.17-.17.05-.07.08-.15.09-.23.01-.08.01-.16,0-.25-.01-.08-.05-.16-.09-.23-3.31-4.93-13.84-13.07-17.96-12.11l-.44.1c-3.27.77-5.07,1.19-5.37,3.69-.71,5.79-.68,21.29-.66,25.9-.12.95-.01,1.91.3,2.81.31.9.83,1.72,1.51,2.39"/>
            <path class="cls-39" d="M901.97,517.27c-.32.11-.6.31-.81.57-.21.27-.33.59-.35.92-.02.34.05.67.22.96.17.29.42.53.72.68.3.15.64.21.98.16.33-.04.65-.18.9-.41s.44-.51.52-.84c.09-.33.08-.67-.03-.99-.07-.21-.19-.41-.33-.58-.15-.17-.33-.31-.53-.41-.2-.1-.42-.16-.64-.17-.22-.02-.44.01-.66.09ZM902.65,519.3c-.08.03-.17.03-.26,0-.08-.02-.16-.07-.22-.14-.06-.07-.09-.15-.1-.23-.01-.09,0-.17.04-.25.02-.05.06-.1.1-.14.04-.04.09-.07.15-.09.05-.01.09-.02.14-.02.1,0,.21.04.29.1.08.07.14.16.15.27.01.1,0,.21-.06.3-.06.09-.14.16-.24.19Z"/>
            <path class="cls-39" d="M1352.59,503c.09.31.19.63.28.94.34,1.1.86,2.77.51,3.16-.06.06-.1.13-.13.21-.03.08-.04.16-.04.25,0,.08.02.17.06.24.03.08.09.14.15.2.06.06.13.1.21.13.08.03.16.04.25.03.08,0,.17-.03.24-.06.08-.04.14-.09.2-.15.83-.92.31-2.6-.24-4.38-.09-.31-.19-.62-.28-.92-.15-.51-.41-1.35-.74-2.38-1.2-3.75-4-12.54-3.36-14.09.31-.75,5.19-1.21,8.7-.83.17.02.33-.03.46-.13s.21-.26.23-.42c.02-.17-.03-.33-.13-.46-.1-.13-.26-.21-.42-.23-.09,0-9.04-.77-10,1.59-.67,1.66.78,6.94,3.33,14.95.32,1.02.59,1.84.73,2.34"/>
            <path class="cls-39" d="M1328.29,505.78c5.26,2.54,19.9,7.45,24.27,8.91,1.01.36,2.07.57,3.15.6.83.03,1.65-.2,2.35-.65.56-.44,1.01-1,1.31-1.65.3-.64.45-1.35.42-2.06.01-.09,0-.17-.02-.26-.02-.08-.06-.16-.12-.23-.05-.07-.12-.12-.2-.16-.08-.04-.16-.06-.25-.07-.09,0-.17,0-.25.04-.08.03-.16.08-.22.13-.06.06-.11.13-.15.21-.03.08-.05.16-.05.25.03.52-.07,1.03-.27,1.51-.2.48-.52.9-.91,1.23-.7.3-1.45.45-2.21.43-.76-.02-1.51-.2-2.19-.54-1.7-.55-4.99-1.66-8.66-2.94,1.87.02,3.7-.58,5.2-1.7.67-.59,1.16-1.35,1.42-2.21.26-.85.28-1.76.05-2.62-.01-.08-.04-.16-.09-.24-.04-.07-.1-.13-.17-.18-.07-.05-.15-.08-.23-.1-.08-.02-.17-.02-.25,0s-.16.05-.23.1c-.07.05-.13.11-.18.18-.05.07-.08.15-.09.24-.01.08-.01.17,0,.25.18.64.18,1.32,0,1.97-.19.64-.55,1.22-1.05,1.66-2.03,1.76-6.45,1.92-10.76.38-3.67-1.34-7.07-2.67-9.07-3.63-1.42-.68-1.39-1.61-1.07-5.03l.04-.45c.32-3.38,10.5-10.51,16.27-12.1.08-.02.15-.06.22-.11.07-.05.12-.11.16-.19s.07-.15.08-.23c.01-.08,0-.17-.02-.24-.02-.08-.06-.15-.11-.22-.05-.07-.11-.12-.19-.16-.07-.04-.15-.07-.23-.08-.08-.01-.17,0-.24.02-5.72,1.58-16.78,8.97-17.18,13.2l-.04.45c-.32,3.35-.5,5.19,1.77,6.29"/>
            <path class="cls-39" d="M1354.04,511.43c0,.34.1.66.29.94.19.28.45.49.76.62.31.13.65.16.98.09.33-.07.63-.23.87-.47.24-.24.4-.54.46-.87.07-.33.03-.67-.1-.98-.13-.31-.35-.57-.63-.76-.28-.19-.61-.29-.94-.29-.45,0-.88.18-1.2.5-.32.32-.5.75-.5,1.2ZM1356.18,511.43c0,.09-.03.17-.07.24-.05.07-.12.13-.2.16-.08.03-.17.04-.26.03-.09-.02-.16-.06-.23-.12s-.1-.14-.12-.23c-.02-.09,0-.17.03-.26.03-.08.09-.15.16-.2.07-.05.16-.07.25-.07.06,0,.12.01.17.03.05.02.1.05.14.1.04.04.07.09.1.14.02.05.03.11.03.17Z"/>
            <path class="cls-39" d="M1334.5,517.82c1.07-.01,1.93-.03,2.45-.02h.98c1.16,0,2.89,0,3.16.43.04.07.1.14.16.19.07.05.14.09.22.11.08.02.17.03.25.02.08-.01.16-.04.24-.08.07-.04.14-.1.19-.17.05-.07.09-.15.1-.23.02-.08.02-.17,0-.25-.01-.08-.05-.16-.09-.23-.63-1.06-2.39-1.05-4.24-1.05h-.96c-.53,0-1.4,0-2.48.02-3.92.06-13.12.18-14.42-.88-.63-.52.35-5.33,1.75-8.59.04-.08.06-.16.07-.25,0-.09,0-.17-.04-.25-.03-.08-.07-.15-.13-.22-.06-.06-.13-.11-.21-.15-.08-.03-.16-.05-.25-.05s-.17.02-.25.05c-.08.03-.15.08-.21.15-.06.06-.1.14-.13.22-.04.08-3.37,8.45-1.4,10.06,1.38,1.13,6.85,1.28,15.23,1.17Z"/>
            <path class="cls-39" d="M1332.52,541.9c3.95-4.3,12.91-16.91,15.57-20.69.65-.7,1.12-1.54,1.39-2.46s.33-1.88.17-2.82c-.26-.66-.66-1.26-1.19-1.73-.53-.48-1.16-.82-1.84-1.01-.16-.06-.33-.05-.48.02-.15.07-.27.2-.33.35-.06.16-.05.33.02.48.07.15.2.27.35.33.5.13.97.37,1.36.7.39.33.71.76.91,1.23.09.76.01,1.52-.23,2.25-.24.72-.63,1.39-1.15,1.94-1.04,1.47-3.03,4.3-5.33,7.45.56-1.79.52-3.71-.11-5.48-.37-.81-.95-1.5-1.69-2-.74-.5-1.6-.78-2.49-.81-.17-.02-.33.03-.46.14-.13.11-.21.26-.23.42-.02.17.03.33.14.46.11.13.26.21.42.23.67.01,1.32.22,1.88.58.56.37,1,.88,1.28,1.49,1.08,2.46-.05,6.75-2.76,10.43-2.35,3.13-4.61,6.01-6.11,7.65-1.07,1.16-1.93.87-5.11-.44l-.42-.17c-3.13-1.29-6.97-13.14-6.8-19.13,0-.08-.01-.16-.04-.24-.03-.08-.07-.15-.13-.21-.06-.06-.12-.11-.2-.14-.08-.03-.16-.05-.24-.06h-.02c-.16,0-.32.07-.44.18-.12.11-.18.27-.19.43-.16,5.95,3.67,18.71,7.58,20.33l.42.17c1.3.67,2.71,1.1,4.17,1.27.45,0,.89-.11,1.3-.3.41-.2.76-.48,1.04-.83"/>
            <path class="cls-39" d="M1344.28,516.73c-.13.43-.09.9.12,1.3.21.4.57.7,1,.83.32.1.66.1.99,0,.32-.1.61-.29.82-.55.21-.26.34-.58.38-.91.03-.33-.03-.67-.19-.97-.16-.3-.4-.54-.7-.7-.3-.16-.63-.23-.97-.19-.34.03-.65.16-.91.38-.26.21-.45.5-.55.82ZM1345.49,517.1c.03-.1.09-.18.18-.24.09-.06.19-.08.29-.07.1,0,.2.06.27.13.07.07.12.17.13.27.01.1-.02.2-.07.29-.06.09-.14.15-.24.18-.1.03-.2.02-.3-.02-.09-.04-.17-.11-.22-.2-.03-.05-.04-.11-.05-.17,0-.06,0-.12.02-.17Z"/>
            <path class="cls-39" d="M1345.98,536.82c.11-.3.22-.62.32-.93.37-1.1.92-2.76,1.43-2.86.16-.03.31-.13.4-.27.09-.14.12-.31.09-.47-.03-.16-.13-.31-.27-.4-.14-.09-.31-.12-.47-.09-1.21.26-1.76,1.93-2.36,3.69-.1.31-.2.61-.31.91-.18.5-.45,1.34-.79,2.37-1.22,3.75-4.07,12.52-5.49,13.4-.69.43-4.92-2.06-7.54-4.44-.06-.06-.13-.11-.21-.14-.08-.03-.16-.05-.25-.05-.09,0-.17.02-.25.06-.08.03-.15.09-.21.15-.06.06-.1.14-.13.22-.03.08-.04.17-.03.25,0,.09.03.17.07.24.04.08.1.14.16.2.06.06,5.55,4.77,8.24,4.77.28.01.56-.06.81-.2,1.5-.94,3.42-6.08,6.02-14.07.33-1.02.6-1.84.77-2.33"/>
            <path class="cls-39" d="M1352.81,527.37c-.45-.84-1.09-1.56-1.87-2.11-.78-.55-1.67-.92-2.61-1.07-.71.04-1.4.23-2.01.58-.62.35-1.15.83-1.55,1.41-.05.06-.09.14-.12.22-.02.08-.03.16-.02.24,0,.08.03.16.07.23.04.07.09.14.16.19.06.05.14.09.22.12.08.02.16.03.24.02.08,0,.16-.03.23-.07.07-.04.14-.09.19-.16.28-.44.65-.8,1.1-1.07.44-.27.94-.42,1.46-.46,1.07.03,2.25.93,3.51,2.66,1.05,1.46,3.07,4.27,5.31,7.45-1.51-1.1-3.34-1.69-5.21-1.66-.89.09-1.73.42-2.44.96-.71.54-1.25,1.27-1.57,2.1-.04.08-.06.16-.07.24,0,.08,0,.17.03.25.03.08.07.15.13.22.06.06.13.11.2.15.08.04.16.06.25.06.08,0,.17-.01.25-.04.08-.03.15-.08.21-.14.06-.06.11-.13.14-.21.23-.63.63-1.18,1.15-1.59.53-.41,1.16-.67,1.82-.74,2.67-.22,6.34,2.23,8.95,5.99,2.21,3.25,4.18,6.31,5.24,8.28.75,1.38.19,2.12-2.07,4.71l-.3.34c-2.23,2.55-14.65,2.37-20.25.28-.16-.06-.33-.05-.48.02-.15.07-.27.2-.33.35-.06.16-.05.33.02.48.07.15.2.27.35.33,3.78,1.16,7.71,1.72,11.67,1.66,4.44,0,8.55-.67,9.96-2.29l.3-.34c2.21-2.53,3.43-3.92,2.23-6.14-2.79-5.14-11.8-17.72-14.49-21.45"/>
            <path class="cls-39" d="M1347.35,529.52c.18.13.39.22.6.28.22.05.44.06.66.02s.43-.11.62-.23c.19-.12.35-.27.48-.45.2-.27.31-.6.32-.93.01-.34-.08-.67-.25-.95-.18-.29-.43-.51-.74-.65-.31-.14-.65-.18-.98-.13-.33.05-.64.21-.89.44-.25.23-.42.53-.5.85-.08.33-.06.67.06.99.12.31.33.59.6.78ZM1347.98,527.88c.04-.06.09-.1.16-.14.06-.03.13-.05.2-.05.09,0,.18.03.26.08.09.07.16.17.18.29.02.12,0,.23-.08.33-.07.09-.16.16-.28.18-.12.02-.23,0-.33-.08-.05-.03-.09-.08-.12-.13-.03-.05-.05-.1-.06-.16,0-.06,0-.12,0-.17.01-.06.04-.11.07-.16"/>
            <path class="cls-39" d="M1369.11,535.6c-.87-.63-1.57-1.13-1.99-1.45-.26-.2-.52-.39-.79-.59-.93-.68-2.34-1.72-2.28-2.23.01-.08,0-.17-.01-.25-.02-.08-.06-.16-.11-.23-.05-.07-.12-.12-.19-.17-.08-.04-.16-.07-.24-.08-.09,0-.17,0-.25.03-.08.03-.16.07-.22.12-.06.06-.12.13-.15.2-.04.08-.06.16-.06.25-.12,1.23,1.29,2.27,2.79,3.37.26.19.52.38.77.57.42.33,1.13.83,2.01,1.47,3.19,2.3,10.65,7.68,11.06,9.31.2.79-3.44,4.07-6.5,5.86-.07.04-.13.09-.18.16-.05.07-.09.14-.11.22-.02.08-.03.16-.02.25.01.08.04.16.08.23.04.07.1.14.16.19.07.05.14.09.22.11.08.02.16.03.24.01.08-.01.16-.03.23-.08.08-.05,7.72-4.78,7.09-7.26-.44-1.72-4.74-5.11-11.55-10.02"/>
            <path class="cls-39" d="M1390.38,521.8l-.23-.39c-1.73-2.88-2.68-4.47-5.16-3.99-5.72,1.1-20.41,5.89-24.78,7.33-2.45.81-3.89,1.9-4.39,3.31-.19.69-.21,1.41-.07,2.1.14.7.44,1.35.88,1.91.04.07.1.14.17.19.07.05.15.09.23.11.08.02.17.02.25,0,.08-.01.16-.05.24-.09.07-.05.13-.11.18-.18s.08-.15.1-.23c.02-.08.01-.17,0-.25-.02-.08-.05-.16-.1-.23-.33-.4-.56-.87-.68-1.38-.12-.5-.12-1.03,0-1.53.36-1.02,1.57-1.87,3.59-2.54,1.7-.55,4.99-1.64,8.69-2.8-1.51,1.11-2.62,2.68-3.16,4.47-.19.87-.13,1.78.17,2.62.3.84.82,1.58,1.52,2.14.06.06.13.1.21.13.08.03.16.04.24.04.08,0,.16-.02.24-.06.07-.04.14-.09.2-.15.11-.12.17-.29.16-.45s-.08-.32-.2-.44c-.53-.41-.93-.96-1.16-1.59-.23-.63-.28-1.31-.15-1.96.59-2.63,4.05-5.39,8.41-6.73,3.75-1.1,7.27-2.08,9.45-2.5,1.54-.3,2.07.46,3.85,3.4l.23.39c1.75,2.91-2.21,14.72-5.88,19.43-.1.13-.15.3-.13.46.02.16.11.32.24.42.07.05.14.09.22.11.08.02.16.03.24.02.08,0,.16-.03.23-.08.07-.04.14-.09.19-.16,3.66-4.69,8.15-17.23,5.97-20.86"/>
            <path class="cls-39" d="M1359.35,530.94c.08.01.17.02.25.02.36,0,.72-.12,1.01-.33.36-.27.6-.67.67-1.12.07-.45-.05-.9-.31-1.26-.17-.22-.39-.4-.64-.52-.25-.12-.53-.17-.81-.16s-.55.1-.79.24c-.24.14-.44.34-.58.58-.14.24-.23.51-.24.79-.01.28.04.56.16.81.12.25.3.47.52.64.22.17.49.28.76.32ZM1359.35,528.91s.1-.06.16-.07c.06-.01.11-.02.17,0,.06,0,.11.03.16.06.05.03.09.07.13.12.03.05.06.1.07.16.01.06.02.11,0,.17,0,.06-.03.11-.06.16-.03.05-.07.09-.12.13-.09.07-.21.1-.33.08-.09-.01-.17-.05-.23-.11-.06-.06-.11-.13-.13-.22-.02-.08-.02-.17.01-.26.03-.08.08-.15.15-.21Z"/>
            <path class="cls-39" d="M1371.02,513.21c-.28.18-.53.38-.8.57-.94.68-2.36,1.7-2.82,1.5-.15-.07-.33-.07-.48,0-.16.06-.28.18-.35.34-.07.15-.07.33,0,.48.06.16.18.28.34.35.2.09.41.13.63.13,1.28-.26,2.47-.87,3.43-1.75.26-.19.52-.38.78-.55.44-.31,1.14-.83,2.02-1.47,3.16-2.33,10.56-7.81,12.23-7.69.81.05,2.81,4.54,3.56,8,.02.08.05.16.1.22.05.07.11.13.18.17.07.04.15.07.23.09.08.01.16.01.25,0,.08-.02.16-.05.22-.1.07-.05.13-.11.17-.18.04-.07.07-.15.09-.23.01-.08.01-.16,0-.25-.02-.09-2.16-8.83-4.71-9-1.79-.11-6.31,2.95-13.05,7.94-.86.64-1.56,1.15-1.99,1.45"/>
            <path class="cls-39" d="M1361.79,522.12c.66.49,1.47.74,2.29.71.6,0,1.19-.09,1.76-.25.16-.04.3-.15.38-.29.08-.14.11-.32.06-.48-.04-.16-.15-.3-.29-.38-.14-.08-.32-.11-.48-.06-.48.19-1,.27-1.51.22s-1.01-.2-1.46-.47c-.51-.57-.89-1.23-1.12-1.96-.23-.73-.29-1.5-.19-2.25,0-1.8-.02-5.27,0-9.16.58,1.78,1.73,3.32,3.27,4.39.69.42,1.49.64,2.3.65.96-.02,1.91-.29,2.73-.79.14-.08.25-.22.29-.38.04-.16.02-.33-.06-.48-.04-.07-.09-.14-.16-.19-.07-.05-.14-.09-.22-.11-.08-.02-.16-.03-.25-.02-.08.01-.16.04-.23.08-.55.38-1.19.59-1.86.62-.67.03-1.33-.13-1.91-.46-2.31-1.38-3.86-5.52-3.8-10.1.1-3.92.26-7.57.53-9.79.19-1.57,1.08-1.84,4.41-2.62l.44-.1c3.29-.77,13.29,6.62,16.63,11.59.05.07.11.13.17.17.07.05.15.08.23.09.08.02.16.02.25,0,.08-.02.16-.05.23-.1s.13-.11.17-.17c.05-.07.08-.15.09-.23.02-.08.02-.16,0-.25-.02-.08-.05-.16-.1-.23-3.31-4.93-13.84-13.07-17.96-12.11l-.44.1c-3.27.77-5.07,1.19-5.38,3.69-.71,5.79-.68,21.29-.66,25.9-.12.95-.02,1.91.3,2.81.31.9.83,1.72,1.5,2.39"/>
            <path class="cls-39" d="M1363.55,517.27c-.32.11-.6.31-.81.57-.21.27-.33.59-.35.92-.02.34.05.67.22.96.17.29.42.53.72.68.3.15.64.21.98.16s.65-.18.9-.41.44-.51.52-.84c.09-.33.08-.67-.03-.99-.07-.21-.18-.41-.33-.58-.15-.17-.32-.31-.52-.41-.2-.1-.42-.16-.64-.17-.22-.02-.45.01-.66.09ZM1364.23,519.3c-.08.03-.17.03-.26,0-.08-.02-.16-.07-.22-.14-.06-.07-.09-.15-.1-.23-.01-.09,0-.17.04-.25.03-.05.06-.1.1-.14.04-.04.09-.07.15-.09.05-.01.09-.02.14-.02.11,0,.21.04.29.1.08.07.13.16.15.27.02.1,0,.21-.06.3-.05.09-.14.16-.24.19Z"/>
            <rect class="cls-14" x="1410.46" y="399.22" width="89.44" height="29.82"/>
            <path class="cls-10" d="M835.12,442.54c-2-1.17-4.92-1.29-9.63-1.26-3.31.02-11.12,1.26-9.25,2.6.73.52,9.16.59,10.71.89,2.91.55.47,3.57-1.19,5.71-3.29,4.24-6.13,8.49-11.17,10.4-6.56,2.22-13.25,4.02-20.03,5.4-3.7.86-9.46,2.1-9.8,2.86-.43.94,6.19.19,6.85.09,7.08-1.03,15.82-3.16,22.76-4.84,4.99-1.16,9.47-3.9,12.77-7.82,1.87-1.98,12.54-11.37,7.98-14.04"/>
            <path class="cls-10" d="M810.39,455c0,4.69,0,8.51-1.25,8.51s-1.25-3.81-1.25-8.51,0-8.51,1.25-8.51,1.25,3.81,1.25,8.51Z"/>
            <path class="cls-23" d="M975.87,528.47c-.14,0-.29-.05-.4-.14-.11-.09-.19-.22-.22-.36-2.82-13.92-7.3-41.49-7.31-56.23,0-19.57,2.84-49.4,8.29-68.56.02-.08.06-.16.1-.23.05-.07.12-.13.19-.17.07-.04.15-.07.24-.08.08-.01.17,0,.25.02.08.02.16.06.22.12.07.05.12.12.16.2.04.08.06.16.07.24,0,.08,0,.17-.03.25-5.43,19.04-8.26,48.74-8.24,68.21,0,14.65,4.47,42.11,7.28,55.98.02.08.02.16,0,.25-.02.08-.05.16-.09.23-.05.07-.1.13-.17.17-.07.05-.15.08-.23.1-.04,0-.08,0-.13,0"/>
            <path class="cls-23" d="M1164.17,528.46c-.13,0-.26-.04-.36-.12-.11-.08-.19-.18-.23-.3-3.21-9.97-4.68-20.43-4.34-30.9v-9.99c0-7.74-.02-15.75,0-23.31.43-16.79,2.09-33.52,4.96-50.07.71-4.79,1.45-9.74,2.11-14.68,0-.09.03-.17.07-.25.04-.08.09-.14.16-.2.07-.05.14-.09.23-.12.08-.02.17-.03.25-.02.09.01.17.04.24.08.07.04.14.1.19.17.05.07.08.15.1.23.02.08.02.17,0,.26-.67,4.94-1.41,9.9-2.12,14.69-2.86,16.49-4.51,33.16-4.94,49.89-.03,7.56-.02,15.56,0,23.31v9.99c-.34,10.33,1.1,20.63,4.27,30.47.05.16.05.33-.03.48-.07.15-.2.27-.36.32-.07.02-.14.04-.21.04"/>
            <path class="cls-23" d="M1258.48,528.46h-300.57c-.17,0-.33-.07-.44-.18-.12-.12-.19-.28-.19-.45s.07-.33.19-.45c.12-.12.28-.18.44-.18h300.57c9.56,0,17.3-8.06,20.01-16.02,5.96-17.5,11.43-27.4,20.93-37.84,3.48-3.68,7.15-7.19,10.99-10.5,7.5-6.71,15.26-13.65,18.87-22.13,4.87-9.94,10.29-19.61,16.22-28.97,6.95-11.56,14.13-23.51,14.71-27.16.79-5-2.03-11.39-7.36-12.57-.16-.04-.31-.14-.39-.28-.09-.14-.12-.31-.08-.48.04-.16.14-.31.28-.39.14-.09.31-.12.48-.08,6.01,1.34,9.21,8.45,8.33,14-.62,3.9-7.54,15.42-14.87,27.62-5.9,9.31-11.29,18.93-16.14,28.82-3.71,8.74-11.58,15.77-19.18,22.58-3.8,3.29-7.44,6.76-10.9,10.41-9.38,10.29-14.78,20.08-20.67,37.4-2.76,8.12-10.58,16.87-21.2,16.87"/>
            <path class="cls-23" d="M1375.18,433.16c-2.79,0-5.51-.81-7.83-2.35-2.32-1.54-4.13-3.74-5.2-6.31-1.07-2.57-1.36-5.41-.82-8.14.54-2.73,1.88-5.25,3.84-7.22,1.97-1.97,4.48-3.32,7.21-3.87,2.73-.55,5.57-.27,8.14.79,2.58,1.06,4.78,2.87,6.33,5.19,1.55,2.32,2.38,5.04,2.38,7.83,0,3.73-1.48,7.31-4.11,9.95-2.63,2.64-6.21,4.13-9.94,4.14ZM1375.18,406.24c-2.54,0-5.02.74-7.14,2.14-2.11,1.41-3.76,3.41-4.74,5.75-.98,2.34-1.24,4.92-.74,7.41.49,2.49,1.71,4.78,3.5,6.58,1.79,1.8,4.08,3.02,6.57,3.52,2.49.5,5.07.25,7.42-.72,2.35-.97,4.35-2.61,5.76-4.72,1.41-2.11,2.16-4.59,2.16-7.13,0-3.4-1.35-6.65-3.74-9.06-2.4-2.4-5.65-3.76-9.05-3.77Z"/>
            <path class="cls-23" d="M1119.07,435.52c-2.59.26-5.17-.48-7.23-2.07-.12-.12-.19-.28-.19-.44,0-.17.06-.33.17-.45.12-.12.28-.19.44-.19.17,0,.33.06.45.18,1.93,1.87,5.48,1.76,8.35,1.67.5-.02.97-.03,1.41-.03h1.57c3.17-.02,6.17-.04,9.29-.23.72-.05,1.57-.07,2.51-.1,5.4-.17,14.44-.46,15.83-5.52.02-.08.06-.16.1-.23.05-.07.12-.13.19-.17.07-.04.15-.07.24-.08.08-.01.17,0,.25.02.08.02.16.06.22.11.07.05.12.12.16.19.04.07.06.16.07.24,0,.08,0,.17-.03.25-1.64,5.95-10.89,6.24-17.01,6.43-.92.03-1.76.06-2.48.1-3.16.2-6.17.22-9.36.24h-1.57c-.43,0-.89.02-1.38.03-.65.02-1.34.04-2.03.04"/>
            <path class="cls-23" d="M1298.45,428.01c-5.42,0-10.69-.73-12.19-3.92-.07-.15-.08-.32-.03-.48s.17-.29.32-.36c.15-.07.32-.08.48-.03s.29.17.36.32c1.87,3.96,12.35,3.28,18.6,2.87.63-.04,1.24-.08,1.8-.11l.79-.04c4.6-.26,15.37-.86,18.09-4.14.22-.24.38-.53.47-.85.1-.31.12-.64.08-.97-.01-.08-.01-.17,0-.25s.06-.16.11-.23c.05-.07.11-.12.19-.17s.15-.07.24-.08c.08-.01.17,0,.25.02.08.02.16.06.22.11.07.05.12.12.16.19.04.07.06.16.07.24.07.5.03,1-.11,1.48-.14.48-.39.92-.71,1.3-3.07,3.7-13.82,4.3-18.99,4.59l-.79.04-1.79.11c-2.3.15-4.98.33-7.63.33"/>
            <path class="cls-23" d="M779.17,473.46c-1.1.12-2.21-.09-3.19-.61-.98-.52-1.78-1.33-2.29-2.31-.05-.07-.09-.16-.11-.25-.02-.09-.01-.18,0-.27.02-.09.06-.17.12-.24s.13-.13.21-.17c.08-.04.17-.07.26-.07.09,0,.18.01.27.04.08.03.16.08.22.15.06.07.11.14.14.23,1.3,2.52,3.69,2.34,6.45,2.12.38-.03.75-.06,1.13-.08,13.44-1.03,26.73-3.49,39.64-7.34,15.22-4.59,28.49-11.46,33.26-15.58.3-.26.65-.55,1.02-.85,1.17-.95,3.34-2.73,3.19-3.48-.04-.18-.34-.36-.81-.5-6.79-1.7-13.68-2.93-20.63-3.7-6.16-1.1-12.45-1.22-18.64-.34-.16.03-.34,0-.48-.09-.14-.09-.24-.23-.27-.4-.03-.16,0-.33.09-.47.09-.14.24-.24.4-.27,6.34-.91,12.77-.8,19.07.33,7.01.77,13.97,2.02,20.81,3.74.98.29,1.55.78,1.68,1.46.3,1.5-1.7,3.13-3.63,4.7-.36.29-.7.57-.99.83-4.99,4.32-18.17,11.14-33.72,15.83-13,3.87-26.38,6.35-39.91,7.39-.36.02-.73.05-1.1.08-.72.06-1.45.11-2.18.11"/>
            <path class="cls-23" d="M790.6,491.76h-.07c-7.45-.85-15.45-1.93-23.83-3.21-.93-.16-1.81-.5-2.6-1.01-.79-.5-1.48-1.16-2.02-1.93-.54-.77-.92-1.64-1.13-2.55-.2-.92-.22-1.87-.06-2.79,0-.08.03-.16.07-.23.04-.07.09-.14.16-.19.06-.05.14-.09.22-.11.08-.02.16-.03.24-.02.08,0,.16.03.23.08.07.04.13.09.19.16.05.06.09.14.11.22.02.08.03.16.01.24-.14.77-.14,1.56.03,2.32.16.76.47,1.49.92,2.13s1.01,1.19,1.67,1.61,1.39.71,2.16.85c8.36,1.28,16.36,2.36,23.79,3.2.15.02.3.1.39.22.1.12.15.27.14.43-.01.16-.08.3-.19.41-.11.11-.26.17-.42.17"/>
          </g>
        </g>
        <g class="cls-16">
          <path class="cls-13" d="M1358.06,336.76h-390.95v70.36h390.95v-70.36Z"/>
        </g>
        <g class="cls-20">
          <path class="cls-7" d="M1155.03,337.12l-133.59,21.02,10.74,68.14,133.59-21.02-10.74-68.14Z"/>
        </g>
        <g class="cls-5">
          <path class="cls-7" d="M1313.57,336.73l-136.5,21.54,10,63.28,136.5-21.54-10-63.28Z"/>
        </g>
        <g class="cls-34">
          <g>
            <path class="cls-10" d="M1354.52,370.88l-2.23-.91c-.71.72-1.47,1.38-2.28,1.98-9.51,5.54-19.47,10.28-29.77,14.18-13.13,4.27-27.09,5.62-40.63,7.25-30.26,3.63-244.36,10.64-250,10.88-13.49.55-47.03-.97-50.41-1.35-3.09-.11-6.15-.67-9.08-1.66-.09-.06-.17-.13-.25-.2-.57.9-.63,1.71.25,2.28,2.97.9,6.04,1.41,9.14,1.52,3.4.35,37.29,2.3,50.86,1.79,5.68-.22,221.12-7.15,251.57-10.45,13.63-1.48,27.68-2.7,40.9-6.59,10.31-3.52,20.33-7.83,29.97-12.9,2.76-1.89,5.48-4.33,1.93-5.79"/>
            <path class="cls-31" d="M1025.23,391.58c-.31-3.77-2.01-7.29-4.77-9.88-2.28-1.93-7.39-1.07-10.63.19-4.52,1.75-17.63,8.46-14.72,14.99,2.83,6.38,14.79,8.83,21.03,9.46,9.48.98,10.04-7.42,9.09-14.76Z"/>
          </g>
        </g>
      </g>
    </g>
  </g>
</svg>